<svg width="52" height="52" viewBox="0 0 52 52" fill="none" xmlns="http://www.w3.org/2000/svg">
<path d="M6.50004 28.167C7.94449 33.8545 7.94449 39.8128 6.50004 45.5003" stroke="#61C967" stroke-width="2" stroke-linecap="round" stroke-linejoin="round"/>
<path d="M17.3333 45.4997V36.833" stroke="#61C967" stroke-width="2" stroke-linecap="round" stroke-linejoin="round"/>
<path d="M7.58179 36.8333H17.3333" stroke="#61C967" stroke-width="2" stroke-linecap="round" stroke-linejoin="round"/>
<path d="M45.5 28.167C44.0556 33.8545 44.0556 39.8128 45.5 45.5003" stroke="#61C967" stroke-width="2" stroke-linecap="round" stroke-linejoin="round"/>
<path d="M34.6667 45.4997V36.833" stroke="#61C967" stroke-width="2" stroke-linecap="round" stroke-linejoin="round"/>
<path d="M44.4181 36.8333H34.6666" stroke="#61C967" stroke-width="2" stroke-linecap="round" stroke-linejoin="round"/>
<path d="M26 17.333V45.4997" stroke="#61C967" stroke-width="2" stroke-linecap="round" stroke-linejoin="round"/>
<path d="M36.8333 30.3333H15.1666" stroke="#61C967" stroke-width="2" stroke-linecap="round" stroke-linejoin="round"/>
<path fill-rule="evenodd" clip-rule="evenodd" d="M46.9887 12.65C35.1933 1.56069 16.8066 1.56069 5.01116 12.65C4.57569 13.0672 4.33062 13.645 4.33327 14.2481V15.1663C4.33327 16.3629 5.30332 17.333 6.49994 17.333H45.4999C46.6966 17.333 47.6666 16.3629 47.6666 15.1663V14.2481C47.6693 13.645 47.4242 13.0672 46.9887 12.65Z" stroke="#61C967" stroke-width="2" stroke-linecap="round" stroke-linejoin="round"/>
</svg>
