<svg width="24" height="22" viewBox="0 0 24 22" fill="none" xmlns="http://www.w3.org/2000/svg">
<path d="M11.728 0C7.68663 0 4.31592 3.11395 4.31592 7.08984C4.31592 8.60243 4.7911 9.95122 5.70306 11.2151L11.1608 19.3611C11.4256 19.7571 12.031 19.7563 12.2953 19.3611L17.7767 11.1874C18.669 9.98078 19.1401 8.56397 19.1401 7.08984C19.1401 3.1805 15.8151 0 11.728 0ZM11.728 10.3125C9.87037 10.3125 8.35889 8.86673 8.35889 7.08984C8.35889 5.31296 9.87037 3.86719 11.728 3.86719C13.5857 3.86719 15.0972 5.31296 15.0972 7.08984C15.0972 8.86673 13.5857 10.3125 11.728 10.3125Z" fill="#61C967"/>
<path d="M16.9957 14.8115L13.6028 19.8856C12.7245 21.1953 10.7267 21.1911 9.85263 19.8868L6.45411 14.8129C3.46393 15.4741 1.62061 16.6856 1.62061 18.1332C1.62061 20.6453 6.82831 22.0004 11.728 22.0004C16.6277 22.0004 21.8354 20.6453 21.8354 18.1332C21.8354 16.6845 19.9896 15.4725 16.9957 14.8115Z" fill="#61C967"/>
</svg>
