<svg width="23" height="24" viewBox="0 0 23 24" fill="none" xmlns="http://www.w3.org/2000/svg">
<path d="M7.06079 10.6376C6.99695 10.5717 6.9463 10.4936 6.91174 10.4076C6.87719 10.3216 6.8594 10.2294 6.85939 10.1363C6.85938 10.0432 6.87716 9.95097 6.9117 9.86495C6.94624 9.77893 6.99687 9.70077 7.06071 9.63493C7.18962 9.50197 7.36448 9.42726 7.54682 9.42724C7.6371 9.42723 7.7265 9.44556 7.80991 9.48118C7.89332 9.5168 7.96911 9.56902 8.03296 9.63485L10.4688 12.1461V3.93164C10.4688 3.74361 10.5412 3.56327 10.6701 3.43031C10.799 3.29735 10.9739 3.22266 11.1562 3.22266C11.3386 3.22266 11.5135 3.29735 11.6424 3.43031C11.7713 3.56327 11.8438 3.74361 11.8438 3.93164V12.1461L14.2795 9.63485C14.3434 9.56902 14.4192 9.5168 14.5026 9.48118C14.586 9.44556 14.6754 9.42723 14.7657 9.42724C14.856 9.42724 14.9454 9.44559 15.0288 9.48123C15.1122 9.51686 15.188 9.56909 15.2518 9.63493C15.3156 9.70077 15.3663 9.77893 15.4008 9.86495C15.4353 9.95097 15.4531 10.0432 15.4531 10.1363C15.4531 10.2294 15.4353 10.3216 15.4008 10.4076C15.3662 10.4936 15.3156 10.5717 15.2517 10.6376L11.6423 14.3588C11.5134 14.4917 11.3386 14.5664 11.1562 14.5664C10.9739 14.5664 10.7991 14.4917 10.6702 14.3588L7.06079 10.6376ZM18.7188 13.1484C18.5364 13.1484 18.3616 13.2231 18.2326 13.3561C18.1037 13.4891 18.0313 13.6694 18.0312 13.8574V18.8203H4.28125V13.8574C4.28125 13.6694 4.20882 13.4891 4.07989 13.3561C3.95095 13.2231 3.77609 13.1484 3.59375 13.1484C3.41141 13.1484 3.23655 13.2231 3.10761 13.3561C2.97868 13.4891 2.90625 13.6694 2.90625 13.8574V18.8203C2.90667 19.1962 3.05167 19.5567 3.30944 19.8225C3.56721 20.0883 3.91671 20.2379 4.28125 20.2383H18.0312C18.3958 20.2379 18.7453 20.0883 19.0031 19.8225C19.2608 19.5567 19.4058 19.1962 19.4062 18.8203V13.8574C19.4062 13.6694 19.3338 13.4891 19.2049 13.3561C19.0759 13.2231 18.9011 13.1484 18.7188 13.1484Z" fill="#61C967"/>
</svg>
