<svg width="194" height="194" viewBox="0 0 194 194" fill="none" xmlns="http://www.w3.org/2000/svg">
<path d="M62.489 57V110.861C61.3001 116.57 59.2866 118.797 53.3264 118.538V121.138H70.7843V118.909C70.2888 118.662 69.7938 118.414 69.2988 118.167V74.7066L88.4902 91.1739V110.365H91.9578V86.098L62.489 57.0001V57Z" fill="#3E4095"/>
<path d="M74.0856 81.2821C74.0703 84.154 74.0575 87.0271 74.0438 89.9139C72.8673 89.3226 71.6084 88.6846 70.2607 87.9956C70.2841 84.7778 70.3074 81.5632 70.3307 78.3627C71.6656 79.412 72.9165 80.3836 74.0856 81.2821Z" fill="#D2AE6D"/>
<path d="M78.7892 84.9249C78.7861 87.3849 78.78 89.8484 78.7769 92.3212C78.0333 91.9424 77.251 91.5464 76.4233 91.1182C76.433 88.4435 76.4423 85.7753 76.4497 83.1147C77.2725 83.7544 78.0505 84.3568 78.7892 84.9249Z" fill="#D2AE6D"/>
<path d="M82.5435 87.839C82.5453 89.9685 82.5471 92.106 82.5483 94.2497C81.9944 93.9654 81.4123 93.6676 80.8069 93.3557C80.8069 91.0646 80.8081 88.7766 80.8081 86.4934C81.4123 86.9634 81.9913 87.4121 82.5435 87.839Z" fill="#D2AE6D"/>
<path d="M85.4071 90.0651C85.4133 91.9482 85.4176 93.831 85.4225 95.7247C84.9926 95.5056 84.5456 95.2746 84.0814 95.037C84.0765 93.0284 84.0735 91.0247 84.0703 89.0222C84.5346 89.387 84.9785 89.7328 85.4071 90.0651Z" fill="#D2AE6D"/>
<path d="M87.6675 91.8261C87.6737 93.513 87.6817 95.2035 87.6878 96.8922C87.3433 96.7202 86.9895 96.5385 86.623 96.3444C86.615 94.558 86.6107 92.7773 86.6045 90.9971C86.9707 91.2871 87.3248 91.5603 87.6675 91.8261Z" fill="#D2AE6D"/>
<path d="M74.0317 92.1664C74.0177 95.0739 74.0035 97.9968 73.9912 100.924C72.8023 100.73 71.5295 100.514 70.1711 100.28C70.1945 97.0045 70.2196 93.7513 70.2429 90.504C71.5915 91.1033 72.8534 91.6542 74.0317 92.1664Z" fill="#D2AE6D"/>
<path d="M78.7732 94.2453C78.7701 96.7396 78.7639 99.2344 78.7609 101.741C78.011 101.612 77.2226 101.48 76.3906 101.331C76.4003 98.6149 76.4095 95.9125 76.417 93.21C77.2446 93.5796 78.0282 93.9196 78.7732 94.2453Z" fill="#D2AE6D"/>
<path d="M82.5498 95.9142C82.5512 98.0737 82.553 100.233 82.5542 102.403C81.9955 102.305 81.4138 102.204 80.8035 102.094C80.8035 99.7717 80.8053 97.456 80.8066 95.1447C81.4138 95.413 81.9941 95.6692 82.5498 95.9142Z" fill="#D2AE6D"/>
<path d="M85.427 97.1988C85.4313 99.1018 85.4363 101.008 85.4406 102.916C85.0094 102.84 84.5606 102.763 84.0951 102.677C84.0903 100.648 84.0872 98.6222 84.0828 96.6C84.5496 96.8125 84.9953 97.0079 85.427 97.1988Z" fill="#D2AE6D"/>
<path d="M87.6938 98.2107C87.7 99.9122 87.7074 101.616 87.7136 103.319C87.3691 103.261 87.0135 103.201 86.6444 103.133C86.6382 101.331 86.6334 99.5316 86.6272 97.7391C86.995 97.9019 87.3489 98.0585 87.6938 98.2107Z" fill="#D2AE6D"/>
<path d="M73.9774 103.517C73.9632 106.476 73.9492 109.439 73.9355 112.412C72.7357 112.638 71.4505 112.873 70.0781 113.116C70.1015 109.79 70.1265 106.479 70.1493 103.176C71.5125 103.302 72.7867 103.415 73.9774 103.517Z" fill="#D2AE6D"/>
<path d="M78.7565 103.959C78.7516 106.483 78.7472 109.021 78.7442 111.559C77.9896 111.695 77.1949 111.838 76.3567 111.981C76.3647 109.227 76.3738 106.477 76.3832 103.737C77.2182 103.815 78.0054 103.888 78.7565 103.959Z" fill="#D2AE6D"/>
<path d="M82.5554 104.32C82.5568 106.506 82.5598 108.69 82.5616 110.886C81.9998 110.984 81.4146 111.09 80.7981 111.192C80.7999 108.84 80.8012 106.493 80.8029 104.15C81.4128 104.213 81.9966 104.271 82.5554 104.32Z" fill="#D2AE6D"/>
<path d="M85.4449 104.607C85.4511 106.529 85.4559 108.455 85.4602 110.382C85.026 110.462 84.5759 110.543 84.1069 110.623C84.1038 108.567 84.1007 106.519 84.0977 104.476C84.5649 104.522 85.0132 104.565 85.4449 104.607Z" fill="#D2AE6D"/>
<path d="M87.7205 104.825C87.7267 106.543 87.7346 108.257 87.7407 109.977C87.3945 110.042 87.0377 110.105 86.6698 110.171C86.6637 108.353 86.6557 106.54 86.6509 104.726C87.0187 104.761 87.3742 104.792 87.7205 104.825Z" fill="#D2AE6D"/>
<path d="M131.344 57V110.861C132.533 116.57 134.547 118.797 140.507 118.538V121.138H123.05V118.909C123.545 118.662 124.04 118.414 124.535 118.167V74.7066L105.343 91.1739V110.365H101.875V86.098L131.344 57.0001V57Z" fill="#3E4095"/>
<path d="M119.748 81.2821C119.764 84.154 119.776 87.0271 119.79 89.9139C120.967 89.3226 122.225 88.6846 123.573 87.9956C123.549 84.7778 123.525 81.5632 123.501 78.3627C122.168 79.412 120.917 80.3836 119.748 81.2821Z" fill="#D2AE6D"/>
<path d="M115.044 84.9249C115.047 87.3849 115.054 89.8484 115.057 92.3212C115.8 91.9424 116.582 91.5464 117.41 91.1182C117.401 88.4435 117.391 85.7753 117.384 83.1147C116.561 83.7544 115.783 84.3568 115.044 84.9249Z" fill="#D2AE6D"/>
<path d="M111.29 87.839C111.289 89.9685 111.287 92.106 111.285 94.2497C111.839 93.9654 112.421 93.6676 113.027 93.3557C113.027 91.0646 113.024 88.7766 113.025 86.4934C112.421 86.9634 111.842 87.4121 111.29 87.839Z" fill="#D2AE6D"/>
<path d="M108.426 90.0651C108.42 91.9482 108.415 93.831 108.411 95.7247C108.841 95.5056 109.288 95.2746 109.752 95.037C109.757 93.0284 109.76 91.0247 109.763 89.0222C109.299 89.387 108.855 89.7328 108.426 90.0651Z" fill="#D2AE6D"/>
<path d="M106.166 91.8261C106.16 93.513 106.152 95.2035 106.146 96.8922C106.49 96.7202 106.844 96.5385 107.21 96.3444C107.218 94.558 107.223 92.7773 107.229 90.9971C106.863 91.2871 106.509 91.5603 106.166 91.8261Z" fill="#D2AE6D"/>
<path d="M119.802 92.1664C119.815 95.0739 119.83 97.9968 119.842 100.924C121.031 100.73 122.304 100.514 123.662 100.28C123.639 97.0045 123.614 93.7513 123.591 90.504C122.243 91.1033 120.98 91.6542 119.802 92.1664Z" fill="#D2AE6D"/>
<path d="M115.06 94.2453C115.063 96.7396 115.069 99.2344 115.072 101.741C115.822 101.612 116.611 101.48 117.443 101.331C117.433 98.6149 117.424 95.9125 117.416 93.21C116.589 93.5796 115.805 93.9196 115.06 94.2453Z" fill="#D2AE6D"/>
<path d="M111.284 95.9142C111.282 98.0737 111.281 100.233 111.279 102.403C111.838 102.305 112.42 102.204 113.03 102.094C113.03 99.7717 113.029 97.456 113.027 95.1447C112.42 95.413 111.84 95.6692 111.284 95.9142Z" fill="#D2AE6D"/>
<path d="M108.407 97.1988C108.402 99.1018 108.397 101.008 108.393 102.916C108.824 102.84 109.273 102.763 109.738 102.677C109.743 100.648 109.746 98.6222 109.751 96.6C109.284 96.8125 108.838 97.0079 108.407 97.1988Z" fill="#D2AE6D"/>
<path d="M106.14 98.2107C106.133 99.9122 106.126 101.616 106.12 103.319C106.464 103.261 106.82 103.201 107.189 103.133C107.195 101.331 107.2 99.5316 107.206 97.7391C106.838 97.9019 106.484 98.0585 106.14 98.2107Z" fill="#D2AE6D"/>
<path d="M119.856 103.517C119.87 106.476 119.884 109.439 119.898 112.412C121.098 112.638 122.383 112.873 123.755 113.116C123.732 109.79 123.707 106.479 123.684 103.176C122.321 103.302 121.047 103.415 119.856 103.517Z" fill="#D2AE6D"/>
<path d="M115.077 103.959C115.083 106.483 115.086 109.021 115.089 111.559C115.844 111.695 116.638 111.838 117.476 111.981C117.469 109.227 117.459 106.477 117.45 103.737C116.617 103.815 115.828 103.888 115.077 103.959Z" fill="#D2AE6D"/>
<path d="M111.278 104.32C111.277 106.506 111.274 108.69 111.272 110.886C111.834 110.984 112.419 111.09 113.035 111.192C113.032 108.84 113.032 106.493 113.031 104.15C112.421 104.213 111.837 104.271 111.278 104.32Z" fill="#D2AE6D"/>
<path d="M108.388 104.607C108.382 106.529 108.378 108.455 108.373 110.382C108.808 110.462 109.256 110.543 109.726 110.623C109.729 108.567 109.732 106.519 109.736 104.476C109.269 104.522 108.82 104.565 108.388 104.607Z" fill="#D2AE6D"/>
<path d="M106.113 104.825C106.105 106.543 106.099 108.257 106.093 109.977C106.439 110.042 106.796 110.105 107.164 110.171C107.17 108.353 107.178 106.54 107.182 104.726C106.814 104.761 106.459 104.792 106.113 104.825Z" fill="#D2AE6D"/>
<path d="M57.2371 132.896L54.9369 128.584V132.414C54.9369 132.511 54.9588 132.582 55.0007 132.63C55.0455 132.678 55.1217 132.717 55.2303 132.749V132.896H53.3955V132.749C53.506 132.717 53.5817 132.678 53.6252 132.63C53.667 132.582 53.689 132.511 53.689 132.414V127.131C53.689 127.039 53.667 126.969 53.6252 126.921C53.5817 126.871 53.506 126.832 53.3955 126.802V126.656H55.8014V126.802C55.6589 126.837 55.5859 126.923 55.5859 127.053C55.5859 127.114 55.6092 127.183 55.6509 127.264L57.3506 130.488L59.0737 127.318C59.1511 127.177 59.1886 127.076 59.1886 127.012C59.1886 126.887 59.1124 126.817 58.9601 126.802V126.656H61.3195V126.802C61.2107 126.832 61.1333 126.871 61.0897 126.921C61.048 126.969 61.0265 127.039 61.0265 127.131V132.414C61.0265 132.511 61.048 132.582 61.0897 132.63C61.1333 132.678 61.2107 132.717 61.3195 132.749V132.896H59.3698V132.749C59.4785 132.72 59.5533 132.683 59.5968 132.632C59.6418 132.582 59.6633 132.511 59.6633 132.414V128.584L57.2371 132.896ZM67.7025 128.242V130.952C67.7025 131.571 67.5798 132.025 67.3378 132.315C66.9434 132.776 66.2029 133.004 65.1131 133.004C64.3854 133.004 63.797 132.894 63.3482 132.67C63.0254 132.511 62.8049 132.279 62.6857 131.981C62.5752 131.706 62.521 131.363 62.521 130.952V128.242C62.521 128.147 62.4991 128.076 62.4572 128.026C62.4137 127.978 62.338 127.936 62.2275 127.903V127.776H64.0421V127.903C63.9304 127.935 63.8529 127.973 63.8094 128.025C63.7676 128.076 63.7456 128.147 63.7456 128.242V130.707C63.7456 130.993 63.7707 131.211 63.8217 131.363C63.8732 131.515 63.9599 131.641 64.0839 131.739C64.3339 131.938 64.6956 132.035 65.1677 132.035C65.6411 132.035 66.0028 131.938 66.2527 131.739C66.3737 131.641 66.4591 131.515 66.5088 131.363C66.5568 131.211 66.5818 130.993 66.5818 130.707V128.242C66.5818 128.147 66.5616 128.076 66.5193 128.026C66.4793 127.978 66.4001 127.936 66.2883 127.903V127.776H67.9955V127.903C67.8855 127.935 67.8095 127.973 67.7658 128.025C67.724 128.076 67.7025 128.147 67.7025 128.242ZM70.313 130.794V132.425C70.313 132.52 70.335 132.593 70.3768 132.643C70.4203 132.692 70.4965 132.734 70.6065 132.768V132.896H68.7937V132.768C68.9023 132.74 68.9767 132.7 69.0203 132.649C69.0652 132.597 69.0885 132.525 69.0885 132.428V128.242C69.0885 128.147 69.0652 128.076 69.0233 128.026C68.9798 127.978 68.9055 127.936 68.7937 127.903V127.776H72.1495C72.5856 127.776 72.9178 127.798 73.1461 127.841C73.3741 127.887 73.5791 127.965 73.7591 128.082C74.1286 128.323 74.3116 128.717 74.3116 129.262C74.3116 129.676 74.1981 130 73.9716 130.234C73.7436 130.468 73.3771 130.635 72.8711 130.74L73.8413 132.088C74.0169 132.337 74.1594 132.507 74.2637 132.596C74.3689 132.686 74.4886 132.743 74.6218 132.768V132.896H72.4707V132.768C72.6304 132.725 72.7096 132.656 72.7096 132.563C72.7096 132.496 72.6599 132.393 72.5622 132.258L71.5392 130.794H70.313ZM70.313 129.865H72.1587C72.4394 129.865 72.6476 129.834 72.7796 129.772C72.9688 129.691 73.0639 129.529 73.0639 129.285C73.0639 129.068 72.9983 128.917 72.8649 128.832C72.7329 128.746 72.4971 128.705 72.1587 128.705H70.313V129.865ZM79.3377 131.616H76.9816L76.7176 132.173C76.6525 132.307 76.6212 132.413 76.6212 132.489C76.6212 132.635 76.7189 132.728 76.9147 132.768V132.896H75.0302V132.768C75.145 132.749 75.2305 132.714 75.2893 132.663C75.3453 132.61 75.4108 132.509 75.4865 132.355L77.3569 128.571C77.4269 128.428 77.4625 128.302 77.4625 128.196C77.4625 128.071 77.3772 127.973 77.2064 127.903V127.776H79.1947V127.903C79.0271 127.97 78.9435 128.074 78.9435 128.214C78.9435 128.315 78.9805 128.439 79.0584 128.584L80.9953 132.256C81.1039 132.456 81.1863 132.584 81.2469 132.643C81.3076 132.701 81.4022 132.745 81.5263 132.768V132.896H79.4372V132.768C79.6357 132.734 79.7334 132.641 79.7334 132.49C79.7334 132.396 79.6964 132.279 79.6185 132.138L79.3377 131.616ZM78.9682 130.897L78.13 129.252L77.3323 130.897H78.9682ZM82.2435 132.428V128.242C82.2435 128.147 82.2215 128.076 82.1798 128.026C82.1361 127.978 82.0618 127.936 81.9501 127.903V127.776H84.9552C85.5792 127.776 86.0728 127.854 86.4314 128.008C86.9387 128.228 87.3022 128.59 87.5257 129.097C87.6792 129.45 87.7567 129.864 87.7567 130.334C87.7567 131.21 87.4962 131.874 86.9762 132.324C86.7416 132.526 86.464 132.67 86.1459 132.762C85.8274 132.85 85.43 132.896 84.9552 132.896H81.9501V132.768C82.0588 132.74 82.1331 132.7 82.1766 132.649C82.2215 132.597 82.2435 132.525 82.2435 132.428ZM83.4698 131.967H84.7765C85.3772 131.967 85.8137 131.829 86.0852 131.554C86.3676 131.269 86.5089 130.862 86.5089 130.334C86.5089 129.808 86.3676 129.402 86.0852 129.116C85.9439 128.973 85.77 128.867 85.5637 128.802C85.3557 128.737 85.0933 128.705 84.7765 128.705H83.4698V131.967Z" fill="#3E4095"/>
<path d="M96.5539 129.626C97.2539 129.892 97.6064 130.384 97.6064 131.099C97.6064 131.669 97.4013 132.116 96.9917 132.439C96.7866 132.601 96.5459 132.717 96.2728 132.788C95.9995 132.86 95.6629 132.895 95.2607 132.895H90.9937V132.749C91.1041 132.718 91.1803 132.678 91.2233 132.63C91.2656 132.582 91.2871 132.51 91.2871 132.416V127.137C91.2871 127.04 91.2656 126.969 91.2233 126.921C91.1803 126.873 91.1041 126.832 90.9937 126.801V126.655H95.2172C95.6242 126.655 95.9502 126.687 96.1966 126.747C96.4452 126.808 96.6596 126.911 96.8456 127.057C97.2152 127.346 97.3996 127.765 97.3996 128.311C97.3996 128.92 97.1171 129.359 96.5539 129.626ZM92.6498 129.137H95.0403C95.4037 129.137 95.6567 129.084 95.7993 128.978C95.9608 128.855 96.0417 128.667 96.0417 128.411C96.0417 128.149 95.9656 127.961 95.8134 127.851C95.6611 127.74 95.4037 127.683 95.0403 127.683H92.6498V129.137ZM92.6498 131.868H94.9611C95.3927 131.868 95.7016 131.807 95.8908 131.689C96.1069 131.552 96.2156 131.328 96.2156 131.017C96.2156 130.71 96.1069 130.485 95.8908 130.343C95.7047 130.225 95.3959 130.166 94.9611 130.166H92.6498V131.868ZM103.801 128.242V130.954C103.801 131.571 103.678 132.025 103.435 132.315C103.042 132.776 102.302 133.005 101.212 133.005C100.484 133.005 99.8957 132.894 99.4473 132.67C99.1243 132.51 98.904 132.279 98.7843 131.981C98.6743 131.706 98.6197 131.363 98.6197 130.954V128.242C98.6197 128.147 98.5981 128.076 98.5563 128.028C98.5128 127.978 98.4366 127.936 98.3266 127.904V127.776H100.141V127.904C100.029 127.934 99.9515 127.973 99.908 128.026C99.8662 128.076 99.8446 128.147 99.8446 128.242V130.707C99.8446 130.992 99.8693 131.211 99.919 131.363C99.9718 131.516 100.059 131.641 100.183 131.739C100.433 131.937 100.795 132.036 101.266 132.036C101.74 132.036 102.101 131.937 102.351 131.739C102.472 131.641 102.558 131.516 102.607 131.363C102.656 131.211 102.68 130.992 102.68 130.707V128.242C102.68 128.147 102.66 128.076 102.618 128.028C102.578 127.978 102.499 127.936 102.387 127.904V127.776H104.095V127.904C103.984 127.934 103.908 127.973 103.865 128.026C103.823 128.076 103.801 128.147 103.801 128.242ZM106.412 128.242V132.425C106.412 132.52 106.434 132.591 106.475 132.642C106.519 132.692 106.595 132.736 106.705 132.768V132.895H104.892V132.768C105.001 132.74 105.075 132.701 105.119 132.649C105.164 132.597 105.186 132.524 105.186 132.43V128.242C105.186 128.147 105.164 128.076 105.122 128.028C105.078 127.978 105.004 127.936 104.892 127.904V127.776H106.705V127.904C106.595 127.934 106.519 127.973 106.475 128.026C106.434 128.076 106.412 128.147 106.412 128.242ZM109.122 131.967H111.988C112.085 131.967 112.158 131.945 112.206 131.904C112.256 131.861 112.298 131.783 112.33 131.671H112.453V133.189H112.33C112.3 133.078 112.26 133.004 112.208 132.959C112.158 132.917 112.085 132.895 111.988 132.895H107.604V132.768C107.711 132.74 107.786 132.701 107.831 132.649C107.876 132.597 107.897 132.524 107.897 132.43V128.242C107.897 128.147 107.876 128.076 107.832 128.028C107.789 127.978 107.714 127.936 107.604 127.904V127.776H109.416V127.904C109.307 127.934 109.229 127.973 109.186 128.026C109.144 128.076 109.122 128.147 109.122 128.242V131.967ZM113.273 132.43V128.242C113.273 128.147 113.251 128.076 113.209 128.028C113.166 127.978 113.089 127.936 112.979 127.904V127.776H115.983C116.609 127.776 117.101 127.854 117.459 128.007C117.967 128.228 118.33 128.589 118.553 129.097C118.709 129.449 118.786 129.864 118.786 130.334C118.786 131.21 118.526 131.874 118.004 132.324C117.769 132.526 117.493 132.67 117.174 132.762C116.855 132.85 116.459 132.895 115.983 132.895H112.979V132.768C113.086 132.74 113.162 132.701 113.206 132.649C113.251 132.597 113.273 132.524 113.273 132.43ZM114.497 131.967H115.806C116.407 131.967 116.841 131.831 117.113 131.556C117.395 131.27 117.538 130.862 117.538 130.334C117.538 129.81 117.395 129.401 117.113 129.116C116.973 128.973 116.798 128.867 116.591 128.802C116.385 128.737 116.123 128.704 115.806 128.704H114.497V131.967ZM121.086 128.242V132.425C121.086 132.52 121.108 132.591 121.15 132.642C121.194 132.692 121.27 132.736 121.38 132.768V132.895H119.568V132.768C119.676 132.74 119.75 132.701 119.794 132.649C119.839 132.597 119.862 132.524 119.862 132.43V128.242C119.862 128.147 119.839 128.076 119.797 128.028C119.753 127.978 119.679 127.936 119.568 127.904V127.776H121.38V127.904C121.27 127.934 121.194 127.973 121.15 128.026C121.108 128.076 121.086 128.147 121.086 128.242ZM123.688 129.522V132.427C123.688 132.52 123.71 132.593 123.755 132.644C123.798 132.696 123.873 132.737 123.982 132.768V132.895H122.279V132.768C122.386 132.74 122.46 132.701 122.505 132.649C122.55 132.597 122.572 132.524 122.572 132.43V128.242C122.572 128.147 122.55 128.076 122.508 128.028C122.463 127.978 122.389 127.936 122.279 127.904V127.776H124.245V127.904C124.11 127.936 124.044 127.996 124.044 128.082C124.044 128.155 124.093 128.24 124.189 128.338L126.932 131.062V128.242C126.932 128.147 126.911 128.076 126.868 128.026C126.824 127.973 126.749 127.934 126.639 127.904V127.776H128.342V127.904C128.232 127.934 128.155 127.973 128.112 128.026C128.07 128.076 128.048 128.147 128.048 128.242V132.425C128.048 132.52 128.07 132.591 128.112 132.642C128.155 132.692 128.232 132.736 128.342 132.768V132.895H126.507V132.768C126.642 132.742 126.709 132.684 126.709 132.599C126.709 132.557 126.69 132.513 126.654 132.469C126.617 132.424 126.532 132.333 126.401 132.201L123.688 129.522ZM133.858 130.919H132.693C132.595 130.919 132.522 130.943 132.472 130.984C132.421 131.028 132.38 131.102 132.35 131.213H132.227V129.859H132.35C132.38 129.966 132.421 130.039 132.472 130.084C132.522 130.126 132.595 130.148 132.693 130.148H135.131V130.28C135.022 130.311 134.948 130.356 134.905 130.413C134.859 130.471 134.838 130.553 134.838 130.66V131.739C134.838 131.835 134.859 131.908 134.905 131.959C134.948 132.011 135.022 132.051 135.131 132.082V132.187C134.142 132.733 133.158 133.005 132.177 133.005C131.33 133.005 130.644 132.805 130.12 132.405C129.836 132.187 129.608 131.916 129.433 131.593C129.229 131.208 129.127 130.798 129.127 130.364C129.127 129.758 129.313 129.224 129.684 128.754C130.263 128.029 131.12 127.666 132.255 127.666C132.752 127.666 133.318 127.776 133.956 127.995C134.209 128.08 134.355 128.124 134.399 128.124C134.45 128.124 134.512 128.099 134.582 128.051L134.69 128.11L134.083 129.398L133.973 129.344V129.316C133.973 129.204 133.86 129.088 133.635 128.97C133.217 128.746 132.77 128.636 132.291 128.636C131.739 128.636 131.288 128.787 130.932 129.088C130.561 129.404 130.375 129.831 130.375 130.368C130.375 130.87 130.544 131.273 130.883 131.574C131.23 131.882 131.718 132.036 132.345 132.036C132.943 132.036 133.447 131.925 133.858 131.702V130.919ZM140.905 128.237L140.286 129.431L140.177 129.372C140.177 129.272 140.145 129.193 140.081 129.134C139.907 128.979 139.651 128.85 139.313 128.751C138.974 128.65 138.631 128.6 138.285 128.6C137.987 128.6 137.726 128.641 137.498 128.723C137.169 128.841 137.003 129.013 137.003 129.24C137.003 129.389 137.082 129.495 137.24 129.557C137.399 129.619 137.706 129.668 138.159 129.705L138.883 129.76C139.514 129.81 139.993 129.931 140.323 130.126C140.506 130.235 140.657 130.382 140.775 130.564C140.926 130.794 141 131.05 141 131.337C141 131.858 140.766 132.268 140.295 132.571C139.848 132.86 139.241 133.005 138.476 133.005C137.703 133.005 136.959 132.841 136.241 132.515C136.191 132.495 136.149 132.484 136.117 132.484C136.056 132.484 135.999 132.52 135.947 132.593L135.832 132.548L136.359 131.295L136.472 131.34V131.377C136.472 131.457 136.503 131.525 136.565 131.579C136.716 131.713 136.98 131.829 137.355 131.928C137.731 132.026 138.1 132.076 138.467 132.076C138.79 132.076 139.078 132.034 139.334 131.948C139.651 131.846 139.811 131.677 139.811 131.446C139.811 131.261 139.701 131.131 139.482 131.059C139.334 131.01 139.07 130.969 138.69 130.935L137.972 130.874C137.585 130.845 137.29 130.806 137.085 130.756C136.882 130.708 136.703 130.635 136.551 130.542C136.356 130.421 136.203 130.254 136.093 130.042C135.985 129.834 135.929 129.603 135.929 129.353C135.929 128.793 136.17 128.364 136.652 128.069C137.09 127.801 137.633 127.666 138.281 127.666C138.631 127.666 138.957 127.705 139.261 127.784C139.564 127.861 139.926 127.996 140.348 128.192C140.472 128.249 140.558 128.279 140.607 128.279C140.657 128.279 140.719 128.245 140.795 128.178L140.905 128.237Z" fill="#3E4095"/>
<path d="M53 124.684H140.834V123.572H53V124.684Z" fill="#3E4095"/>
<path d="M53 136.272H140.834V135.161H53V136.272Z" fill="#3E4095"/>
<circle cx="97" cy="97" r="96.5" stroke="#110D60"/>
</svg>
