<svg width="588" height="157" viewBox="0 0 588 157" fill="none" xmlns="http://www.w3.org/2000/svg">
<path fill-rule="evenodd" clip-rule="evenodd" d="M22.514 0V131.843C19.5912 145.821 14.6519 151.267 0 150.635V157H42.8983V151.546C41.6823 150.936 40.4663 150.335 39.2504 149.725V43.3407L86.4158 83.6496V130.631H94.935V71.2289L22.5216 0L22.514 0Z" fill="#393185"/>
<path fill-rule="evenodd" clip-rule="evenodd" d="M51.0096 59.4396C50.9718 66.4662 50.9416 73.5004 50.9038 80.5646C48.0112 79.1201 44.9223 77.5628 41.6143 75.8701C41.6671 67.9934 41.7275 60.1242 41.788 52.2852C45.0658 54.8581 48.1396 57.2354 51.0096 59.4321V59.4396Z" fill="#D7B56D"/>
<path fill-rule="evenodd" clip-rule="evenodd" d="M62.5732 68.3549C62.5657 74.3734 62.5506 80.407 62.543 86.4556C60.7078 85.5302 58.7894 84.5597 56.7578 83.514C56.7805 76.9689 56.8107 70.4388 56.8258 63.9238C58.8423 65.4886 60.7606 66.9632 62.5732 68.3549Z" fill="#D7B56D"/>
<path fill-rule="evenodd" clip-rule="evenodd" d="M71.8013 75.4865C71.8013 80.7001 71.8089 85.9286 71.8089 91.1798C70.4495 90.4876 69.022 89.7579 67.5342 88.9905C67.5342 83.3783 67.5417 77.7811 67.5417 72.1914C69.022 73.3424 70.4494 74.4408 71.8013 75.4865Z" fill="#D7B56D"/>
<path fill-rule="evenodd" clip-rule="evenodd" d="M78.8322 80.9329C78.8473 85.5445 78.8624 90.1487 78.87 94.7829C77.8126 94.2488 76.7175 93.6845 75.5771 93.0977C75.5695 88.1851 75.562 83.2801 75.5469 78.375C76.6873 79.2703 77.7824 80.1128 78.8322 80.9253V80.9329Z" fill="#D7B56D"/>
<path fill-rule="evenodd" clip-rule="evenodd" d="M84.3837 85.2464C84.4063 89.3766 84.4214 93.5143 84.4365 97.652C83.5907 97.2307 82.7221 96.7793 81.8158 96.3129C81.8007 91.942 81.7856 87.5785 81.7705 83.2227C82.6693 83.9298 83.5454 84.5994 84.3837 85.2539V85.2464Z" fill="#D7B56D"/>
<path fill-rule="evenodd" clip-rule="evenodd" d="M50.8805 86.0795C50.8503 93.1964 50.8125 100.351 50.7823 107.513C47.867 107.039 44.7403 106.505 41.3945 105.933C41.455 97.9133 41.5154 89.9539 41.5682 82.002C44.8838 83.469 47.9879 84.8156 50.8805 86.072V86.0795Z" fill="#D7B56D"/>
<path fill-rule="evenodd" clip-rule="evenodd" d="M62.5346 91.1703C62.527 97.2716 62.5119 103.38 62.5044 109.519C60.6616 109.203 58.7206 108.88 56.6738 108.519C56.6965 101.868 56.7267 95.2554 56.7418 88.6426C58.7734 89.5454 60.6993 90.3804 62.527 91.1779L62.5346 91.1703Z" fill="#D7B56D"/>
<path fill-rule="evenodd" clip-rule="evenodd" d="M71.8093 95.2594C71.8169 100.548 71.8169 105.829 71.8169 111.141C70.4499 110.9 69.0149 110.652 67.512 110.388C67.512 104.701 67.5195 99.036 67.5195 93.3711C69.0149 94.0331 70.4348 94.6575 71.8018 95.2594H71.8093Z" fill="#D7B56D"/>
<path fill-rule="evenodd" clip-rule="evenodd" d="M78.8793 98.4045C78.8944 103.061 78.902 107.726 78.9095 112.398C77.8522 112.209 76.7495 112.021 75.6015 111.811C75.5939 106.845 75.5788 101.888 75.5713 96.9375C76.7193 97.4566 77.8144 97.9381 78.8717 98.4045H78.8793Z" fill="#D7B56D"/>
<path fill-rule="evenodd" clip-rule="evenodd" d="M84.4518 100.877C84.4669 105.045 84.4895 109.213 84.5046 113.381C83.6588 113.238 82.7827 113.095 81.8764 112.922C81.8613 108.513 81.8462 104.105 81.8311 99.7188C82.7374 100.117 83.6059 100.501 84.4518 100.877Z" fill="#D7B56D"/>
<path fill-rule="evenodd" clip-rule="evenodd" d="M50.7453 113.86C50.7075 121.105 50.6773 128.357 50.6395 135.632C47.6865 136.181 44.5371 136.761 41.1611 137.355C41.2216 129.207 41.282 121.105 41.3424 113.018C44.6957 113.326 47.8224 113.604 50.7453 113.853V113.86Z" fill="#D7B56D"/>
<path fill-rule="evenodd" clip-rule="evenodd" d="M62.4893 114.95C62.4742 121.126 62.4667 127.34 62.4591 133.555C60.6088 133.886 58.6527 134.239 56.5908 134.585C56.6059 127.844 56.6361 121.111 56.6588 114.408C58.7055 114.596 60.6465 114.769 62.4893 114.95Z" fill="#D7B56D"/>
<path fill-rule="evenodd" clip-rule="evenodd" d="M71.8249 115.832C71.8325 121.181 71.8325 126.53 71.84 131.901C70.4579 132.142 69.0229 132.398 67.5049 132.653C67.5124 126.898 67.5124 121.151 67.5124 115.418C69.0154 115.576 70.4504 115.711 71.8249 115.832Z" fill="#D7B56D"/>
<path fill-rule="evenodd" clip-rule="evenodd" d="M78.9239 116.532C78.9391 121.234 78.9542 125.951 78.9617 130.668C77.8968 130.856 76.7941 131.06 75.6386 131.255C75.6235 126.222 75.6235 121.212 75.6084 116.209C76.7564 116.322 77.859 116.427 78.9164 116.525L78.9239 116.532Z" fill="#D7B56D"/>
<path fill-rule="evenodd" clip-rule="evenodd" d="M84.5199 117.067C84.535 121.272 84.5501 125.47 84.5727 129.676C83.7193 129.834 82.8432 129.992 81.9369 130.157C81.9218 125.711 81.9067 121.265 81.8916 116.826C82.7904 116.916 83.674 116.992 84.5199 117.067Z" fill="#D7B56D"/>
<path fill-rule="evenodd" clip-rule="evenodd" d="M191.72 0V131.843C194.643 145.821 199.582 151.267 214.234 150.635V157H171.336V151.546C172.552 150.936 173.768 150.335 174.984 149.725V43.3407L127.826 83.6496V130.631H119.307V71.2289L191.728 0L191.72 0Z" fill="#393185"/>
<path fill-rule="evenodd" clip-rule="evenodd" d="M163.224 59.4396C163.254 66.4662 163.292 73.5004 163.322 80.5646C166.214 79.1201 169.311 77.5628 172.619 75.8701C172.566 67.9934 172.498 60.1242 172.445 52.2852C169.167 54.8581 166.094 57.2354 163.224 59.4321V59.4396Z" fill="#D7B56D"/>
<path fill-rule="evenodd" clip-rule="evenodd" d="M151.663 68.3549C151.671 74.3734 151.686 80.407 151.693 86.4556C153.521 85.5302 155.447 84.5597 157.479 83.514C157.456 76.9689 157.426 70.4388 157.411 63.9238C155.394 65.4886 153.476 66.9632 151.663 68.3549Z" fill="#D7B56D"/>
<path fill-rule="evenodd" clip-rule="evenodd" d="M142.432 75.4865C142.432 80.7001 142.425 85.9286 142.425 91.1798C143.784 90.4876 145.212 89.7579 146.7 88.9905C146.7 83.3783 146.692 77.7811 146.692 72.1914C145.212 73.3424 143.792 74.4408 142.432 75.4865Z" fill="#D7B56D"/>
<path fill-rule="evenodd" clip-rule="evenodd" d="M135.402 80.9329C135.387 85.5445 135.372 90.1487 135.364 94.7829C136.422 94.2488 137.517 93.6845 138.665 93.0977C138.672 88.1851 138.68 83.2801 138.687 78.375C137.547 79.2703 136.452 80.1128 135.402 80.9253V80.9329Z" fill="#D7B56D"/>
<path fill-rule="evenodd" clip-rule="evenodd" d="M129.85 85.2464C129.835 89.3766 129.812 93.5143 129.797 97.652C130.643 97.2307 131.511 96.7793 132.418 96.3129C132.433 91.942 132.448 87.5785 132.463 83.2227C131.557 83.9298 130.688 84.5994 129.85 85.2539V85.2464Z" fill="#D7B56D"/>
<path fill-rule="evenodd" clip-rule="evenodd" d="M163.354 86.0795C163.391 93.1964 163.421 100.351 163.459 107.513C166.375 107.039 169.509 106.505 172.847 105.933C172.794 97.9133 172.734 89.9539 172.673 82.002C169.358 83.469 166.254 84.8156 163.361 86.072L163.354 86.0795Z" fill="#D7B56D"/>
<path fill-rule="evenodd" clip-rule="evenodd" d="M151.7 91.1703C151.708 97.2716 151.723 103.38 151.73 109.519C153.573 109.203 155.514 108.88 157.561 108.519C157.538 101.868 157.508 95.2554 157.493 88.6426C155.454 89.5454 153.535 90.3804 151.7 91.1779V91.1703Z" fill="#D7B56D"/>
<path fill-rule="evenodd" clip-rule="evenodd" d="M142.424 95.2594C142.424 100.548 142.417 105.829 142.417 111.141C143.791 110.9 145.219 110.652 146.722 110.388C146.722 104.701 146.714 99.036 146.714 93.3711C145.219 94.0331 143.799 94.6575 142.432 95.2594H142.424Z" fill="#D7B56D"/>
<path fill-rule="evenodd" clip-rule="evenodd" d="M135.348 98.4045C135.341 103.061 135.326 107.726 135.311 112.398C136.368 112.209 137.471 112.021 138.619 111.811C138.626 106.845 138.641 101.888 138.649 96.9375C137.501 97.4566 136.406 97.9381 135.348 98.4045Z" fill="#D7B56D"/>
<path fill-rule="evenodd" clip-rule="evenodd" d="M129.782 100.877C129.767 105.045 129.745 109.213 129.729 113.381C130.575 113.238 131.451 113.095 132.358 112.922C132.373 108.513 132.388 104.105 132.403 99.7188C131.497 100.117 130.628 100.501 129.782 100.877Z" fill="#D7B56D"/>
<path fill-rule="evenodd" clip-rule="evenodd" d="M163.488 113.86C163.526 121.105 163.556 128.357 163.594 135.632C166.539 136.181 169.696 136.761 173.072 137.355C173.02 129.207 172.952 121.105 172.891 113.018C169.545 113.326 166.411 113.604 163.488 113.853V113.86Z" fill="#D7B56D"/>
<path fill-rule="evenodd" clip-rule="evenodd" d="M151.745 114.95C151.753 121.126 151.768 127.34 151.775 133.555C153.626 133.886 155.582 134.239 157.644 134.585C157.621 127.844 157.598 121.111 157.576 114.408C155.521 114.596 153.588 114.769 151.745 114.95Z" fill="#D7B56D"/>
<path fill-rule="evenodd" clip-rule="evenodd" d="M142.41 115.832C142.41 121.181 142.402 126.53 142.395 131.901C143.769 132.142 145.212 132.398 146.722 132.653C146.722 126.898 146.722 121.151 146.715 115.418C145.212 115.576 143.777 115.711 142.402 115.832H142.41Z" fill="#D7B56D"/>
<path fill-rule="evenodd" clip-rule="evenodd" d="M135.31 116.532C135.295 121.234 135.28 125.951 135.272 130.668C136.337 130.856 137.44 131.06 138.596 131.255C138.603 126.222 138.611 121.212 138.626 116.209C137.47 116.322 136.375 116.427 135.31 116.525V116.532Z" fill="#D7B56D"/>
<path fill-rule="evenodd" clip-rule="evenodd" d="M129.715 117.067C129.7 121.272 129.685 125.47 129.662 129.676C130.516 129.834 131.392 129.992 132.298 130.157C132.313 125.711 132.328 121.265 132.343 116.826C131.437 116.916 130.561 116.992 129.715 117.067Z" fill="#D7B56D"/>
<path d="M266.18 73.0236L250.191 43.1719V69.6984C250.191 70.3605 250.342 70.857 250.629 71.188C250.939 71.5265 251.468 71.7898 252.223 72.008V73.0236H239.467V72.008C240.237 71.7898 240.758 71.5265 241.06 71.188C241.347 70.857 241.498 70.3605 241.498 69.6984V33.1135C241.498 32.474 241.347 31.9925 241.06 31.654C240.751 31.323 240.23 31.0522 239.467 30.834V29.8184H256.196V30.834C255.199 31.0822 254.693 31.6615 254.693 32.5718C254.693 32.9931 254.844 33.4821 255.138 34.0313L266.958 56.3599L278.936 34.415C279.465 33.4445 279.729 32.7373 279.729 32.301C279.729 31.4358 279.208 30.9544 278.143 30.8415V29.8259H294.547V30.8415C293.784 31.0597 293.256 31.323 292.954 31.6615C292.659 32.0001 292.508 32.4815 292.508 33.121V69.7059C292.508 70.368 292.659 70.8645 292.954 71.1955C293.256 71.5341 293.784 71.7974 294.547 72.0155V73.0312H280.998V72.0155C281.746 71.8199 282.267 71.5642 282.569 71.203C282.879 70.857 283.037 70.3605 283.037 69.6984V43.1719L266.165 73.0236H266.18ZM338.926 40.8021V59.5723C338.926 63.853 338.08 66.9976 336.388 69.0063C333.654 72.1961 328.503 73.7835 320.928 73.7835C315.876 73.7835 311.79 73.0161 308.663 71.4739C306.42 70.3605 304.887 68.758 304.056 66.6967C303.293 64.7933 302.915 62.416 302.915 59.5723V40.8021C302.915 40.1401 302.764 39.6436 302.47 39.3125C302.168 38.9815 301.647 38.6881 300.876 38.4624V37.5747H313.496V38.4624C312.719 38.6806 312.175 38.9514 311.88 39.305C311.593 39.6511 311.442 40.1476 311.442 40.8096V57.8721C311.442 59.8507 311.616 61.3703 311.963 62.4236C312.318 63.4843 312.93 64.3495 313.791 65.0266C315.528 66.3958 318.043 67.0804 321.321 67.0804C324.614 67.0804 327.129 66.3958 328.866 65.0266C329.712 64.342 330.308 63.4768 330.648 62.4236C330.981 61.3778 331.154 59.8507 331.154 57.8721V40.8096C331.154 40.1476 331.018 39.6511 330.716 39.3201C330.429 38.989 329.893 38.6956 329.108 38.4699V37.5822H340.973V38.4699C340.21 38.6881 339.681 38.959 339.379 39.3125C339.084 39.6586 338.933 40.1551 338.933 40.8172L338.926 40.8021ZM357.074 58.4664V69.7661C357.074 70.4131 357.226 70.9247 357.52 71.2707C357.83 71.6168 358.358 71.9102 359.114 72.1359V73.0236H346.524V72.1359C347.271 71.9403 347.792 71.6695 348.095 71.3159C348.412 70.9623 348.563 70.4507 348.563 69.7962V40.8021C348.563 40.1401 348.412 39.6436 348.125 39.3125C347.815 38.9815 347.302 38.6881 346.531 38.4624V37.5747H369.853C372.889 37.5747 375.193 37.7252 376.787 38.0261C378.373 38.3421 379.792 38.8912 381.054 39.6887C383.606 41.3664 384.89 44.0897 384.89 47.8588C384.89 50.7326 384.097 52.982 382.526 54.592C380.94 56.2095 378.388 57.3755 374.876 58.0902L381.613 67.4415C382.836 69.1568 383.825 70.3379 384.551 70.9548C385.276 71.5792 386.106 71.9704 387.043 72.1434V73.0312H372.081V72.1434C373.192 71.85 373.743 71.3761 373.743 70.7291C373.743 70.2627 373.395 69.548 372.723 68.6151L365.609 58.4814H357.082L357.074 58.4664ZM357.074 52.0341H369.906C371.862 52.0341 373.305 51.816 374.226 51.3947C375.54 50.8304 376.197 49.702 376.197 48.0093C376.197 46.5122 375.744 45.474 374.823 44.8796C373.894 44.2853 372.263 43.9919 369.906 43.9919H357.074V52.0266V52.0341ZM419.806 64.1614H403.432L401.589 68.0208C401.143 68.9461 400.924 69.6834 400.924 70.2025C400.924 71.2181 401.597 71.8651 402.964 72.1359V73.0236H389.86V72.1359C390.66 72.008 391.257 71.7673 391.657 71.4137C392.05 71.0451 392.503 70.3454 393.032 69.2846L406.03 43.0816C406.521 42.0886 406.77 41.2234 406.77 40.4786C406.77 39.6135 406.173 38.9439 404.988 38.4624V37.5747H418.809V38.4624C417.653 38.9289 417.064 39.6436 417.064 40.614C417.064 41.3137 417.321 42.1713 417.857 43.1719L431.331 68.6C432.078 69.9843 432.66 70.872 433.075 71.2783C433.498 71.692 434.155 71.9779 435.016 72.1434V73.0312H420.493V72.1434C421.867 71.9177 422.555 71.2707 422.555 70.225C422.555 69.578 422.298 68.7656 421.762 67.7951L419.798 64.1764L419.806 64.1614ZM417.245 59.1886L411.422 47.7911L405.871 59.1886H417.253H417.245ZM440.016 69.7887V40.7946C440.016 40.1326 439.865 39.636 439.571 39.305C439.268 38.974 438.747 38.6806 437.977 38.4549V37.5672H458.86C463.202 37.5672 466.631 38.1088 469.124 39.1771C472.651 40.7043 475.181 43.2095 476.729 46.7228C477.801 49.1678 478.345 52.0266 478.345 55.2916C478.345 61.3553 476.533 65.9444 472.915 69.0665C471.291 70.4582 469.358 71.4664 467.145 72.0908C464.932 72.7077 462.175 73.0161 458.867 73.0161H437.984V72.1284C438.732 71.9328 439.253 71.6619 439.555 71.3084C439.873 70.9548 440.024 70.4432 440.024 69.7887H440.016ZM448.528 66.5914H457.621C461.798 66.5914 464.826 65.6435 466.707 63.7401C468.67 61.7615 469.66 58.9404 469.66 55.2916C469.66 51.6505 468.67 48.8293 466.707 46.8507C465.732 45.8576 464.516 45.1354 463.082 44.6765C461.639 44.2176 459.819 43.9919 457.613 43.9919H448.52V66.5838L448.528 66.5914Z" fill="#393185"/>
<path d="M278.121 111.039C282.992 112.875 285.431 116.283 285.431 121.24C285.431 125.182 284.011 128.274 281.164 130.509C279.729 131.637 278.06 132.435 276.164 132.931C274.269 133.428 271.927 133.676 269.125 133.676H239.467V132.66C240.237 132.442 240.758 132.171 241.06 131.84C241.347 131.509 241.506 131.005 241.506 130.351V93.7959C241.506 93.1339 241.355 92.6374 241.06 92.3063C240.758 91.9753 240.237 91.7045 239.467 91.4863V90.4707H268.831C271.648 90.4707 273.921 90.6889 275.628 91.1102C277.35 91.5315 278.853 92.2462 280.145 93.2618C282.712 95.2629 283.996 98.1593 283.996 101.936C283.996 106.149 282.033 109.196 278.113 111.046L278.121 111.039ZM250.984 107.654H267.6C270.13 107.654 271.89 107.285 272.887 106.54C274.004 105.697 274.571 104.388 274.571 102.621C274.571 100.807 274.042 99.5135 272.985 98.7461C271.92 97.9788 270.138 97.5876 267.6 97.5876H250.984V107.661V107.654ZM250.984 126.552H267.056C270.047 126.552 272.199 126.138 273.506 125.318C275.016 124.37 275.764 122.813 275.764 120.661C275.764 118.532 275.016 116.975 273.506 116.004C272.214 115.184 270.07 114.77 267.056 114.77H250.984V126.544V126.552ZM328.496 101.454V120.225C328.496 124.505 327.65 127.65 325.958 129.659C323.224 132.848 318.073 134.436 310.498 134.436C305.446 134.436 301.352 133.668 298.233 132.126C295.99 131.013 294.457 129.418 293.618 127.349C292.863 125.446 292.478 123.068 292.478 120.225V101.454C292.478 100.792 292.327 100.296 292.032 99.9649C291.73 99.6339 291.209 99.3405 290.439 99.1073V98.2195H303.051V99.1073C302.273 99.3254 301.73 99.5963 301.443 99.9498C301.148 100.296 300.997 100.792 300.997 101.454V118.517C300.997 120.495 301.171 122.015 301.518 123.068C301.881 124.129 302.485 124.987 303.353 125.671C305.091 127.041 307.606 127.725 310.883 127.725C314.169 127.725 316.684 127.048 318.421 125.671C319.267 124.987 319.863 124.129 320.203 123.068C320.543 122.023 320.717 120.495 320.717 118.517V101.454C320.717 100.792 320.573 100.296 320.279 99.9649C319.999 99.6339 319.455 99.3405 318.67 99.1073V98.2195H330.535V99.1073C329.78 99.3254 329.243 99.5963 328.941 99.9498C328.654 100.296 328.496 100.792 328.496 101.454ZM346.644 101.454V130.411C346.644 131.073 346.796 131.57 347.09 131.923C347.392 132.269 347.921 132.563 348.684 132.788V133.676H336.086V132.788C336.834 132.593 337.355 132.322 337.665 131.968C337.974 131.615 338.133 131.103 338.133 130.441V101.454C338.133 100.792 337.982 100.296 337.687 99.9649C337.385 99.6339 336.864 99.3405 336.094 99.1073V98.2195H348.691V99.1073C347.928 99.3254 347.4 99.5963 347.098 99.9498C346.803 100.296 346.652 100.792 346.652 101.454H346.644ZM365.488 127.244H385.404C386.091 127.244 386.597 127.093 386.937 126.8C387.277 126.506 387.564 125.965 387.798 125.19H388.659V135.707H387.798C387.579 134.94 387.307 134.421 386.952 134.12C386.605 133.826 386.099 133.676 385.411 133.676H354.945V132.788C355.692 132.593 356.213 132.322 356.516 131.968C356.833 131.615 356.984 131.103 356.984 130.441V101.454C356.984 100.792 356.833 100.296 356.538 99.9649C356.236 99.6339 355.707 99.3405 354.945 99.1073V98.2195H367.542V99.1073C366.779 99.3254 366.251 99.5963 365.949 99.9498C365.654 100.296 365.503 100.792 365.503 101.454V127.244H365.488ZM394.339 130.441V101.454C394.339 100.792 394.187 100.296 393.893 99.9649C393.591 99.6339 393.07 99.3405 392.299 99.1073V98.2195H413.182C417.517 98.2195 420.946 98.7612 423.446 99.8295C426.973 101.349 429.503 103.862 431.051 107.375C432.124 109.82 432.66 112.679 432.66 115.944C432.66 122.008 430.847 126.597 427.23 129.719C425.606 131.111 423.672 132.119 421.46 132.743C419.247 133.36 416.49 133.668 413.182 133.668H392.299V132.781C393.047 132.585 393.568 132.314 393.878 131.961C394.188 131.607 394.346 131.096 394.346 130.434L394.339 130.441ZM402.85 127.244H411.943C416.12 127.244 419.149 126.296 421.029 124.392C422.993 122.414 423.982 119.593 423.982 115.944C423.982 112.303 423 109.482 421.029 107.503C420.055 106.51 418.839 105.788 417.404 105.329C415.961 104.877 414.141 104.652 411.936 104.652H402.843V127.244H402.85ZM448.649 101.454V130.411C448.649 131.073 448.8 131.57 449.087 131.923C449.396 132.269 449.925 132.563 450.68 132.788V133.676H438.09V132.788C438.845 132.593 439.359 132.322 439.661 131.968C439.971 131.615 440.129 131.103 440.129 130.441V101.454C440.129 100.792 439.978 100.296 439.684 99.9649C439.374 99.6339 438.861 99.3405 438.09 99.1073V98.2195H450.68V99.1073C449.925 99.3254 449.389 99.5963 449.087 99.9498C448.8 100.296 448.649 100.792 448.649 101.454ZM466.729 110.317V130.426C466.729 131.073 466.88 131.585 467.198 131.938C467.5 132.292 468.021 132.578 468.769 132.796V133.684H456.934V132.796C457.681 132.6 458.203 132.329 458.512 131.976C458.822 131.622 458.98 131.111 458.98 130.449V101.462C458.98 100.8 458.829 100.303 458.535 99.9724C458.233 99.6414 457.712 99.348 456.941 99.1148V98.227H470.611V99.1148C469.675 99.3405 469.207 99.7618 469.207 100.349C469.207 100.853 469.554 101.447 470.226 102.124L489.289 120.992V101.47C489.289 100.807 489.138 100.311 488.843 99.9649C488.541 99.6113 488.02 99.3405 487.25 99.1223V98.2346H499.084V99.1223C498.329 99.3405 497.793 99.6113 497.491 99.9649C497.196 100.311 497.045 100.807 497.045 101.47V130.426C497.045 131.088 497.196 131.585 497.491 131.938C497.793 132.284 498.322 132.578 499.084 132.803V133.691H486.343V132.803C487.28 132.623 487.74 132.232 487.74 131.637C487.74 131.344 487.604 131.043 487.363 130.727C487.098 130.411 486.517 129.802 485.603 128.876L466.737 110.324L466.729 110.317ZM537.428 119.999H529.325C528.645 119.999 528.131 120.149 527.784 120.443C527.421 120.744 527.157 121.263 526.938 122.03H526.085V112.649H526.938C527.157 113.394 527.429 113.905 527.784 114.206C528.131 114.5 528.645 114.65 529.325 114.65H546.265V115.568C545.517 115.786 544.996 116.087 544.694 116.486C544.377 116.884 544.226 117.456 544.226 118.193V125.671C544.226 126.333 544.377 126.837 544.694 127.191C544.996 127.545 545.517 127.831 546.265 128.049V128.771C539.4 132.54 532.557 134.428 525.73 134.428C519.839 134.428 515.081 133.044 511.433 130.276C509.461 128.763 507.875 126.883 506.659 124.648C505.24 121.993 504.537 119.149 504.537 116.132C504.537 111.949 505.829 108.24 508.412 104.99C512.43 99.9649 518.389 97.4597 526.273 97.4597C529.717 97.4597 533.66 98.212 538.093 99.7392C539.853 100.326 540.872 100.627 541.174 100.627C541.529 100.627 541.952 100.454 542.443 100.115L543.198 100.529L538.977 109.459L538.206 109.083C538.206 108.993 538.206 108.932 538.206 108.887C538.206 108.112 537.428 107.307 535.85 106.487C532.957 104.945 529.846 104.178 526.507 104.178C522.678 104.178 519.536 105.224 517.074 107.307C514.491 109.504 513.208 112.453 513.208 116.17C513.208 119.653 514.378 122.436 516.735 124.52C519.151 126.649 522.535 127.718 526.893 127.718C531.047 127.718 534.551 126.95 537.413 125.408V119.999H537.428ZM586.406 101.424L582.109 109.692L581.354 109.279C581.354 108.586 581.127 108.037 580.682 107.631C579.481 106.555 577.698 105.667 575.342 104.975C572.986 104.276 570.599 103.93 568.19 103.93C566.128 103.93 564.308 104.208 562.722 104.787C560.433 105.607 559.278 106.796 559.278 108.361C559.278 109.399 559.829 110.121 560.924 110.557C562.027 110.994 564.157 111.332 567.314 111.596L572.336 111.972C576.732 112.31 580.062 113.153 582.351 114.5C583.627 115.252 584.669 116.275 585.493 117.531C586.535 119.119 587.056 120.894 587.056 122.88C587.056 126.491 585.432 129.328 582.162 131.427C579.043 133.428 574.828 134.428 569.511 134.428C564.149 134.428 558.968 133.292 553.968 131.035C553.629 130.892 553.334 130.817 553.107 130.817C552.684 130.817 552.284 131.065 551.922 131.57L551.129 131.261L554.784 122.587L555.577 122.903C555.577 123.031 555.577 123.121 555.577 123.159C555.577 123.708 555.796 124.174 556.219 124.55C557.269 125.476 559.104 126.281 561.717 126.973C564.323 127.657 566.891 128.004 569.443 128.004C571.687 128.004 573.696 127.71 575.47 127.116C577.676 126.401 578.778 125.235 578.778 123.633C578.778 122.346 578.023 121.451 576.49 120.954C575.47 120.608 573.643 120.33 570.992 120.097L566 119.675C563.311 119.472 561.257 119.202 559.837 118.855C558.417 118.524 557.178 118.02 556.113 117.373C554.754 116.531 553.704 115.372 552.934 113.913C552.178 112.468 551.793 110.866 551.793 109.136C551.793 105.254 553.462 102.282 556.816 100.243C559.867 98.385 563.643 97.4522 568.129 97.4522C570.569 97.4522 572.835 97.723 574.949 98.2647C577.049 98.8063 579.564 99.7467 582.494 101.101C583.363 101.5 583.959 101.703 584.307 101.703C584.647 101.703 585.077 101.47 585.613 101.003L586.376 101.417L586.406 101.424Z" fill="#393185"/>
</svg>
