<svg width="600" height="1756" viewBox="0 0 600 1756" fill="none" xmlns="http://www.w3.org/2000/svg">
<g opacity="0.08">
<mask id="path-1-inside-1_933_518" fill="white">
<path d="M77.7063 918.232L2.8888 980.025L2.83984 1344.91"/>
</mask>
<path d="M2.8888 980.025L2.252 979.254L1.88887 979.554L1.8888 980.025L2.8888 980.025ZM77.0695 917.461L2.252 979.254L3.52561 980.796L78.3431 919.003L77.0695 917.461ZM1.8888 980.025L1.83984 1344.91L3.83984 1344.91L3.8888 980.025L1.8888 980.025Z" fill="#110D60" mask="url(#path-1-inside-1_933_518)"/>
<mask id="path-3-inside-2_933_518" fill="white">
<path d="M153.65 696.223L77.5106 759.093L77.7064 928.999L9.20535 985.553L9.10742 1350.43"/>
</mask>
<path d="M77.5106 759.093L76.8738 758.322L76.51 758.622L76.5106 759.094L77.5106 759.093ZM77.7064 928.999L78.3431 929.77L78.707 929.47L78.7064 928.998L77.7064 928.999ZM9.20535 985.553L8.5687 984.782L8.20548 985.082L8.20535 985.553L9.20535 985.553ZM153.013 695.452L76.8738 758.322L78.1473 759.864L154.287 696.994L153.013 695.452ZM76.5106 759.094L76.7064 929L78.7064 928.998L78.5106 759.092L76.5106 759.094ZM77.0698 928.228L8.5687 984.782L9.842 986.324L78.3431 929.77L77.0698 928.228ZM8.20535 985.553L8.10742 1350.43L10.1074 1350.44L10.2053 985.553L8.20535 985.553Z" fill="#110D60" mask="url(#path-3-inside-2_933_518)"/>
<mask id="path-5-inside-3_933_518" fill="white">
<path d="M360.818 447.73L293.003 503.599L292.611 602.066L222.592 659.893L222.543 769.573L153.65 826.469V977.426"/>
</mask>
<path d="M293.003 503.599L292.367 502.827L292.005 503.125L292.003 503.595L293.003 503.599ZM292.611 602.066L293.248 602.837L293.609 602.539L293.611 602.07L292.611 602.066ZM222.592 659.893L221.955 659.122L221.592 659.422L221.592 659.892L222.592 659.893ZM222.543 769.573L223.18 770.344L223.543 770.044L223.543 769.573L222.543 769.573ZM153.65 826.469L153.014 825.698L152.65 825.998V826.469H153.65ZM360.183 446.959L292.367 502.827L293.639 504.371L361.454 448.502L360.183 446.959ZM292.003 503.595L291.611 602.062L293.611 602.07L294.003 503.603L292.003 503.595ZM291.974 601.295L221.955 659.122L223.229 660.664L293.248 602.837L291.974 601.295ZM221.592 659.892L221.543 769.572L223.543 769.573L223.592 659.893L221.592 659.892ZM221.906 768.802L153.014 825.698L154.287 827.24L223.18 770.344L221.906 768.802ZM152.65 826.469V977.426H154.65V826.469H152.65Z" fill="#110D60" mask="url(#path-5-inside-3_933_518)"/>
<mask id="path-7-inside-4_933_518" fill="white">
<path d="M418.155 0L402.437 8.81358L358.32 476.178L308.132 517.602L308.083 615.677L238.064 673.504V783.184L169.416 839.885V963.03"/>
</mask>
<path d="M402.437 8.81358L401.948 7.94135L401.491 8.19773L401.442 8.7196L402.437 8.81358ZM358.32 476.178L358.957 476.949L359.277 476.685L359.316 476.272L358.32 476.178ZM308.132 517.602L307.495 516.83L307.132 517.13L307.132 517.601L308.132 517.602ZM308.083 615.677L308.72 616.448L309.083 616.149L309.083 615.678L308.083 615.677ZM238.064 673.504L237.427 672.733L237.064 673.033V673.504H238.064ZM238.064 783.184L238.701 783.955L239.064 783.655V783.184H238.064ZM169.416 839.885L168.779 839.114L168.416 839.414V839.885H169.416ZM417.666 -0.872228L401.948 7.94135L402.926 9.6858L418.644 0.872228L417.666 -0.872228ZM401.442 8.7196L357.325 476.084L359.316 476.272L403.433 8.90755L401.442 8.7196ZM357.684 475.407L307.495 516.83L308.768 518.373L358.957 476.949L357.684 475.407ZM307.132 517.601L307.083 615.677L309.083 615.678L309.132 517.602L307.132 517.601ZM307.446 614.906L237.427 672.733L238.701 674.275L308.72 616.448L307.446 614.906ZM237.064 673.504V783.184H239.064V673.504H237.064ZM237.427 782.413L168.779 839.114L170.053 840.656L238.701 783.955L237.427 782.413ZM168.416 839.885V963.03H170.416V839.885H168.416Z" fill="#110D60" mask="url(#path-7-inside-4_933_518)"/>
<mask id="path-9-inside-5_933_518" fill="white">
<path d="M194.73 943.735V862.063L263.329 805.411L263.378 695.731L333.397 637.904V539.78L384.467 497.719L411.593 14.2946L428.486 3.86523"/>
</mask>
<path d="M194.73 862.063L194.094 861.292L193.73 861.592V862.063H194.73ZM263.329 805.411L263.966 806.182L264.329 805.882L264.329 805.411L263.329 805.411ZM263.378 695.731L262.742 694.96L262.379 695.26L262.378 695.73L263.378 695.731ZM333.397 637.904L334.034 638.675L334.397 638.375V637.904H333.397ZM333.397 539.78L332.762 539.008L332.397 539.308V539.78H333.397ZM384.467 497.719L385.103 498.491L385.441 498.213L385.466 497.775L384.467 497.719ZM411.593 14.2946L411.068 13.4437L410.624 13.7178L410.595 14.2386L411.593 14.2946ZM195.73 943.735V862.063H193.73V943.735H195.73ZM195.367 862.834L263.966 806.182L262.693 804.64L194.094 861.292L195.367 862.834ZM264.329 805.411L264.378 695.731L262.378 695.73L262.329 805.411L264.329 805.411ZM264.015 696.502L334.034 638.675L332.761 637.133L262.742 694.96L264.015 696.502ZM334.397 637.904V539.78H332.397V637.904H334.397ZM334.033 540.552L385.103 498.491L383.831 496.947L332.762 539.008L334.033 540.552ZM385.466 497.775L412.592 14.3507L410.595 14.2386L383.469 497.663L385.466 497.775ZM412.119 15.1455L429.011 4.71613L427.961 3.01434L411.068 13.4437L412.119 15.1455Z" fill="#110D60" mask="url(#path-9-inside-5_933_518)"/>
<mask id="path-11-inside-6_933_518" fill="white">
<path d="M486.607 413.547L474.66 423.389Z"/>
</mask>
<path d="M485.972 412.775L474.024 422.617L475.296 424.161L487.243 414.319L485.972 412.775Z" fill="#110D60" mask="url(#path-11-inside-6_933_518)"/>
<mask id="path-13-inside-7_933_518" fill="white">
<path d="M203.887 951.571V870.193L272.535 813.492V703.812L342.554 645.985L342.603 547.861L393.966 505.506L414.874 16.255L432.11 5.33594"/>
</mask>
<path d="M203.887 870.193L203.25 869.422L202.887 869.722V870.193H203.887ZM272.535 813.492L273.172 814.263L273.535 813.963V813.492H272.535ZM272.535 703.812L271.898 703.041L271.535 703.341V703.812H272.535ZM342.554 645.985L343.19 646.756L343.553 646.456L343.554 645.986L342.554 645.985ZM342.603 547.861L341.966 547.089L341.603 547.389L341.603 547.86L342.603 547.861ZM393.966 505.506L394.602 506.278L394.946 505.994L394.965 505.549L393.966 505.506ZM414.874 16.255L414.339 15.4102L413.898 15.69L413.875 16.2123L414.874 16.255ZM204.887 951.571V870.193H202.887V951.571H204.887ZM204.524 870.964L273.172 814.263L271.898 812.721L203.25 869.422L204.524 870.964ZM273.535 813.492V703.812H271.535V813.492H273.535ZM273.171 704.583L343.19 646.756L341.917 645.214L271.898 703.041L273.171 704.583ZM343.554 645.986L343.603 547.861L341.603 547.86L341.554 645.985L343.554 645.986ZM343.239 548.632L394.602 506.278L393.33 504.735L341.966 547.089L343.239 548.632ZM394.965 505.549L415.874 16.2977L413.875 16.2123L392.967 505.464L394.965 505.549ZM415.41 17.0997L432.645 6.18068L431.575 4.49119L414.339 15.4102L415.41 17.0997Z" fill="#110D60" mask="url(#path-13-inside-7_933_518)"/>
<mask id="path-15-inside-8_933_518" fill="white">
<path d="M495.814 421.58L475.787 438.081Z"/>
</mask>
<path d="M495.178 420.808L475.151 437.309L476.423 438.853L496.449 422.352L495.178 420.808Z" fill="#110D60" mask="url(#path-15-inside-8_933_518)"/>
<mask id="path-17-inside-9_933_518" fill="white">
<path d="M222.836 968.366V886.841L291.533 830.14L291.582 720.411L361.503 662.682L361.552 564.557L413.552 521.665L421.092 20.0253L438.328 8.8125"/>
</mask>
<path d="M222.836 886.841L222.199 886.069L221.836 886.369V886.841H222.836ZM291.533 830.14L292.169 830.911L292.533 830.611L292.533 830.14L291.533 830.14ZM291.582 720.411L290.945 719.64L290.582 719.94L290.582 720.41L291.582 720.411ZM361.503 662.682L362.14 663.453L362.503 663.153L362.503 662.682L361.503 662.682ZM361.552 564.557L360.916 563.786L360.552 564.086L360.552 564.557L361.552 564.557ZM413.552 521.665L414.188 522.436L414.545 522.142L414.552 521.68L413.552 521.665ZM421.092 20.0253L420.547 19.1871L420.101 19.4776L420.093 20.0103L421.092 20.0253ZM223.836 968.366V886.841H221.836V968.366H223.836ZM223.472 887.612L292.169 830.911L290.896 829.369L222.199 886.069L223.472 887.612ZM292.533 830.14L292.582 720.411L290.582 720.41L290.533 830.139L292.533 830.14ZM292.219 721.182L362.14 663.453L360.866 661.911L290.945 719.64L292.219 721.182ZM362.503 662.682L362.552 564.558L360.552 564.557L360.503 662.681L362.503 662.682ZM362.188 565.329L414.188 522.436L412.916 520.893L360.916 563.786L362.188 565.329ZM414.552 521.68L422.092 20.0404L420.093 20.0103L412.552 521.65L414.552 521.68ZM421.638 20.8636L438.873 9.65073L437.783 7.97427L420.547 19.1871L421.638 20.8636Z" fill="#110D60" mask="url(#path-17-inside-9_933_518)"/>
<mask id="path-19-inside-10_933_518" fill="white">
<path d="M514.81 438.23L478.332 468.295Z"/>
</mask>
<path d="M514.174 437.459L477.696 467.523L478.968 469.066L515.446 439.002L514.174 437.459Z" fill="#110D60" mask="url(#path-19-inside-10_933_518)"/>
<mask id="path-21-inside-11_933_518" fill="white">
<path d="M153.651 702.1L80.9877 762.13V932.183L12.6335 988.59L12.3887 1353.32"/>
</mask>
<path d="M80.9877 762.13L80.3508 761.359L79.9877 761.659V762.13H80.9877ZM80.9877 932.183L81.6241 932.954L81.9877 932.654V932.183H80.9877ZM12.6335 988.59L11.997 987.818L11.6338 988.118L11.6335 988.589L12.6335 988.59ZM153.014 701.329L80.3508 761.359L81.6246 762.901L154.288 702.871L153.014 701.329ZM79.9877 762.13V932.183H81.9877V762.13H79.9877ZM80.3512 931.412L11.997 987.818L13.27 989.361L81.6241 932.954L80.3512 931.412ZM11.6335 988.589L11.3887 1353.32L13.3887 1353.33L13.6335 988.59L11.6335 988.589Z" fill="#110D60" mask="url(#path-21-inside-11_933_518)"/>
<mask id="path-23-inside-12_933_518" fill="white">
<path d="M20.4668 1360.47V995.689L88.9679 938.891V769.18L157.665 712.48V602.8L252.46 524.555"/>
</mask>
<path d="M20.4668 995.689L19.8285 994.92L19.4668 995.219V995.689H20.4668ZM88.9679 938.891L89.6062 939.661L89.9679 939.361V938.891H88.9679ZM88.9679 769.18L88.3313 768.409L87.9679 768.709V769.18H88.9679ZM157.665 712.48L158.301 713.251L158.665 712.951V712.48H157.665ZM157.665 602.8L157.028 602.028L156.665 602.328V602.8H157.665ZM21.4668 1360.47V995.689H19.4668V1360.47H21.4668ZM21.1051 996.459L89.6062 939.661L88.3296 938.121L19.8285 994.92L21.1051 996.459ZM89.9679 938.891V769.18H87.9679V938.891H89.9679ZM89.6044 769.952L158.301 713.251L157.028 711.708L88.3313 768.409L89.6044 769.952ZM158.665 712.48V602.8H156.665V712.48H158.665ZM158.301 603.571L253.096 525.326L251.823 523.783L157.028 602.028L158.301 603.571Z" fill="#110D60" mask="url(#path-23-inside-12_933_518)"/>
<mask id="path-25-inside-13_933_518" fill="white">
<path d="M367.869 375.117L252.705 470.059L252.656 568.183L182.637 625.961V735.69L114.038 792.293V962.15L45.5859 1018.95V1383.83"/>
</mask>
<path d="M252.705 470.059L252.069 469.287L251.705 469.587L251.705 470.058L252.705 470.059ZM252.656 568.183L253.292 568.955L253.656 568.655L253.656 568.184L252.656 568.183ZM182.637 625.961L182.001 625.19L181.637 625.49V625.961H182.637ZM182.637 735.69L183.273 736.462L183.637 736.162V735.69H182.637ZM114.038 792.293L113.402 791.522L113.038 791.822V792.293H114.038ZM114.038 962.15L114.677 962.92L115.038 962.62V962.15H114.038ZM45.5859 1018.95L44.9474 1018.18L44.5859 1018.48V1018.95H45.5859ZM367.233 374.346L252.069 469.287L253.341 470.831L368.505 375.889L367.233 374.346ZM251.705 470.058L251.656 568.183L253.656 568.184L253.705 470.059L251.705 470.058ZM252.02 567.412L182.001 625.19L183.274 626.733L253.292 568.955L252.02 567.412ZM181.637 625.961V735.69H183.637V625.961H181.637ZM182.001 734.919L113.402 791.522L114.674 793.064L183.273 736.462L182.001 734.919ZM113.038 792.293V962.15H115.038V792.293H113.038ZM113.399 961.381L44.9474 1018.18L46.2245 1019.72L114.677 962.92L113.399 961.381ZM44.5859 1018.95V1383.83H46.5859V1018.95H44.5859Z" fill="#110D60" mask="url(#path-25-inside-13_933_518)"/>
<mask id="path-27-inside-14_933_518" fill="white">
<path d="M365.861 396.609L265.043 479.702L264.994 577.826L195.024 635.604L194.975 745.333L126.327 801.985V971.744L57.875 1028.54V1393.52"/>
</mask>
<path d="M265.043 479.702L264.407 478.93L264.043 479.23L264.043 479.701L265.043 479.702ZM264.994 577.826L265.631 578.597L265.994 578.298L265.994 577.827L264.994 577.826ZM195.024 635.604L194.387 634.833L194.024 635.133L194.024 635.604L195.024 635.604ZM194.975 745.333L195.612 746.104L195.975 745.805L195.975 745.334L194.975 745.333ZM126.327 801.985L125.691 801.214L125.327 801.514V801.985H126.327ZM126.327 971.744L126.966 972.514L127.327 972.214V971.744H126.327ZM57.875 1028.54L57.2364 1027.77L56.875 1028.07V1028.54H57.875ZM365.225 395.838L264.407 478.93L265.679 480.473L366.497 397.381L365.225 395.838ZM264.043 479.701L263.994 577.826L265.994 577.827L266.043 479.702L264.043 479.701ZM264.357 577.055L194.387 634.833L195.661 636.375L265.631 578.597L264.357 577.055ZM194.024 635.604L193.975 745.333L195.975 745.334L196.024 635.605L194.024 635.604ZM194.339 744.562L125.691 801.214L126.964 802.756L195.612 746.104L194.339 744.562ZM125.327 801.985V971.744H127.327V801.985H125.327ZM125.689 970.975L57.2364 1027.77L58.5136 1029.31L126.966 972.514L125.689 970.975ZM56.875 1028.54V1393.52H58.875V1028.54H56.875Z" fill="#110D60" mask="url(#path-27-inside-14_933_518)"/>
<mask id="path-29-inside-15_933_518" fill="white">
<path d="M363.56 420.992L278.264 491.305L278.215 589.429L208.196 647.256V756.936L139.548 813.637V983.347L71.0469 1040.19V1052.73"/>
</mask>
<path d="M278.264 491.305L277.628 490.533L277.264 490.833L277.264 491.304L278.264 491.305ZM278.215 589.429L278.852 590.2L279.215 589.901L279.215 589.43L278.215 589.429ZM208.196 647.256L207.559 646.485L207.196 646.785V647.256H208.196ZM208.196 756.936L208.833 757.707L209.196 757.407V756.936H208.196ZM139.548 813.637L138.911 812.866L138.548 813.166V813.637H139.548ZM139.548 983.347L140.187 984.117L140.548 983.817V983.347H139.548ZM71.0469 1040.19L70.4083 1039.43L70.0469 1039.73V1040.19H71.0469ZM362.924 420.221L277.628 490.533L278.9 492.077L364.196 421.764L362.924 420.221ZM277.264 491.304L277.215 589.429L279.215 589.43L279.264 491.305L277.264 491.304ZM277.578 588.658L207.559 646.485L208.833 648.027L278.852 590.2L277.578 588.658ZM207.196 647.256V756.936H209.196V647.256H207.196ZM207.559 756.165L138.911 812.866L140.185 814.408L208.833 757.707L207.559 756.165ZM138.548 813.637V983.347H140.548V813.637H138.548ZM138.909 982.578L70.4083 1039.43L71.6855 1040.96L140.187 984.117L138.909 982.578ZM70.0469 1040.19V1052.73H72.0469V1040.19H70.0469Z" fill="#110D60" mask="url(#path-29-inside-15_933_518)"/>
<mask id="path-31-inside-16_933_518" fill="white">
<path d="M362.337 433.727L285.169 497.38L285.12 595.505L215.101 653.283V763.012L146.404 819.712V984.036"/>
</mask>
<path d="M285.169 497.38L284.533 496.609L284.169 496.909L284.169 497.38L285.169 497.38ZM285.12 595.505L285.757 596.276L286.12 595.976L286.12 595.505L285.12 595.505ZM215.101 653.283L214.465 652.511L214.101 652.811V653.283H215.101ZM215.101 763.012L215.738 763.783L216.101 763.483V763.012H215.101ZM146.404 819.712L145.768 818.941L145.404 819.241V819.712H146.404ZM361.701 432.955L284.533 496.609L285.805 498.152L362.973 434.498L361.701 432.955ZM284.169 497.38L284.12 595.504L286.12 595.505L286.169 497.381L284.169 497.38ZM284.484 594.733L214.465 652.511L215.738 654.054L285.757 596.276L284.484 594.733ZM214.101 653.283V763.012H216.101V653.283H214.101ZM214.465 762.24L145.768 818.941L147.041 820.483L215.738 763.783L214.465 762.24ZM145.404 819.712V984.036H147.404V819.712H145.404Z" fill="#110D60" mask="url(#path-31-inside-16_933_518)"/>
<mask id="path-33-inside-17_933_518" fill="white">
<path d="M359.741 461.34L300.103 510.5L300.054 608.625L230.035 666.451C230.916 669.144 230.035 776.131 230.035 776.131L161.387 832.832V970.373"/>
</mask>
<path d="M300.103 510.5L299.467 509.728L299.103 510.028L299.103 510.5L300.103 510.5ZM300.054 608.625L300.69 609.396L301.053 609.096L301.054 608.625L300.054 608.625ZM230.035 666.451L229.398 665.68L228.872 666.114L229.084 666.762L230.035 666.451ZM230.035 776.131L230.672 776.902L231.031 776.606L231.035 776.14L230.035 776.131ZM161.387 832.832L160.75 832.061L160.387 832.361V832.832H161.387ZM359.105 460.568L299.467 509.728L300.739 511.272L360.377 462.111L359.105 460.568ZM299.103 510.5L299.054 608.624L301.054 608.625L301.103 510.501L299.103 510.5ZM299.417 607.853L229.398 665.68L230.671 667.222L300.69 609.396L299.417 607.853ZM229.084 666.762C229.069 666.716 229.089 666.779 229.116 667.089C229.138 667.35 229.16 667.712 229.181 668.172C229.222 669.09 229.258 670.368 229.288 671.956C229.348 675.132 229.386 679.526 229.407 684.729C229.448 695.134 229.42 708.756 229.365 722.297C229.31 735.838 229.227 749.294 229.159 759.366C229.124 764.402 229.093 768.591 229.071 771.521C229.06 772.987 229.051 774.137 229.044 774.921C229.041 775.313 229.039 775.614 229.037 775.816C229.036 775.918 229.036 775.994 229.035 776.046C229.035 776.071 229.035 776.091 229.035 776.104C229.035 776.11 229.035 776.115 229.035 776.118C229.035 776.12 229.035 776.121 229.035 776.122C229.035 776.123 229.035 776.123 230.035 776.131C231.035 776.14 231.035 776.139 231.035 776.138C231.035 776.138 231.035 776.136 231.035 776.135C231.035 776.131 231.035 776.127 231.035 776.12C231.035 776.107 231.035 776.088 231.035 776.062C231.036 776.011 231.036 775.934 231.037 775.833C231.039 775.63 231.041 775.329 231.044 774.937C231.051 774.153 231.06 773.002 231.071 771.537C231.093 768.606 231.124 764.416 231.159 759.379C231.227 749.307 231.31 735.848 231.365 722.305C231.42 708.763 231.448 695.134 231.406 684.721C231.386 679.515 231.348 675.109 231.288 671.918C231.257 670.324 231.221 669.026 231.179 668.082C231.158 667.611 231.134 667.218 231.109 666.917C231.087 666.664 231.055 666.355 230.985 666.14L229.084 666.762ZM229.398 775.36L160.75 832.061L162.024 833.603L230.672 776.902L229.398 775.36ZM160.387 832.832V970.373H162.387V832.832H160.387Z" fill="#110D60" mask="url(#path-33-inside-17_933_518)"/>
<mask id="path-35-inside-18_933_518" fill="white">
<path d="M421.337 1.41992L405.522 10.6742L366.644 483.033L316.162 524.653V622.777L246.143 680.555L246.094 790.284L177.201 847.18V955.979"/>
</mask>
<path d="M405.522 10.6742L405.017 9.81108L404.568 10.0738L404.525 10.5922L405.522 10.6742ZM366.644 483.033L367.28 483.804L367.606 483.536L367.641 483.115L366.644 483.033ZM316.162 524.653L315.526 523.881L315.162 524.181V524.653H316.162ZM316.162 622.777L316.798 623.548L317.162 623.248V622.777H316.162ZM246.143 680.555L245.506 679.784L245.143 680.083L245.143 680.554L246.143 680.555ZM246.094 790.284L246.731 791.055L247.094 790.755L247.094 790.284L246.094 790.284ZM177.201 847.18L176.564 846.409L176.201 846.709V847.18H177.201ZM420.832 0.556822L405.017 9.81108L406.027 11.5373L421.842 2.28302L420.832 0.556822ZM404.525 10.5922L365.647 482.951L367.641 483.115L406.518 10.7562L404.525 10.5922ZM366.008 482.261L315.526 523.881L316.798 525.424L367.28 483.804L366.008 482.261ZM315.162 524.653V622.777H317.162V524.653H315.162ZM315.525 622.006L245.506 679.784L246.779 681.326L316.798 623.548L315.525 622.006ZM245.143 680.554L245.094 790.283L247.094 790.284L247.143 680.555L245.143 680.554ZM245.457 789.513L176.564 846.409L177.838 847.951L246.731 791.055L245.457 789.513ZM176.201 847.18V955.979H178.201V847.18H176.201Z" fill="#110D60" mask="url(#path-35-inside-18_933_518)"/>
<mask id="path-37-inside-19_933_518" fill="white">
<path d="M213.094 959.605V878.275L281.742 821.574V711.894L351.761 654.067V555.943L403.467 513.344L417.862 18.0697L434.657 7.73828"/>
</mask>
<path d="M213.094 878.275L212.457 877.504L212.094 877.804V878.275H213.094ZM281.742 821.574L282.379 822.345L282.742 822.045V821.574H281.742ZM281.742 711.894L281.105 711.123L280.742 711.423V711.894H281.742ZM351.761 654.067L352.397 654.838L352.761 654.538V654.067H351.761ZM351.761 555.943L351.125 555.171L350.761 555.471V555.943H351.761ZM403.467 513.344L404.103 514.116L404.453 513.827L404.467 513.373L403.467 513.344ZM417.862 18.0697L417.339 17.218L416.879 17.5009L416.863 18.0407L417.862 18.0697ZM214.094 959.605V878.275H212.094V959.605H214.094ZM213.731 879.046L282.379 822.345L281.105 820.803L212.457 877.504L213.731 879.046ZM282.742 821.574V711.894H280.742V821.574H282.742ZM282.378 712.665L352.397 654.838L351.124 653.296L281.105 711.123L282.378 712.665ZM352.761 654.067V555.943H350.761V654.067H352.761ZM352.397 556.715L404.103 514.116L402.831 512.572L351.125 555.171L352.397 556.715ZM404.467 513.373L418.862 18.0988L416.863 18.0407L402.467 513.315L404.467 513.373ZM418.386 18.9215L435.181 8.59002L434.133 6.88654L417.339 17.218L418.386 18.9215Z" fill="#110D60" mask="url(#path-37-inside-19_933_518)"/>
<mask id="path-39-inside-20_933_518" fill="white">
<path d="M505.019 429.662L477.061 452.724Z"/>
</mask>
<path d="M504.383 428.891L476.424 451.953L477.697 453.496L505.655 430.434L504.383 428.891Z" fill="#110D60" mask="url(#path-39-inside-20_933_518)"/>
<mask id="path-41-inside-21_933_518" fill="white">
<path d="M186.064 947.85V854.524L254.713 797.873L254.761 688.144L324.732 630.366L324.78 532.241L375.556 490.377L408.558 12.485L425.108 2.44727"/>
</mask>
<path d="M186.064 854.524L185.428 853.753L185.064 854.053V854.524H186.064ZM254.713 797.873L255.349 798.644L255.713 798.344L255.713 797.873L254.713 797.873ZM254.761 688.144L254.125 687.372L253.762 687.672L253.761 688.143L254.761 688.144ZM324.732 630.366L325.369 631.137L325.732 630.837L325.732 630.366L324.732 630.366ZM324.78 532.241L324.144 531.47L323.781 531.769L323.78 532.241L324.78 532.241ZM375.556 490.377L376.192 491.148L376.524 490.875L376.554 490.446L375.556 490.377ZM408.558 12.485L408.04 11.6299L407.596 11.8988L407.561 12.4161L408.558 12.485ZM187.064 947.85V854.524H185.064V947.85H187.064ZM186.701 855.296L255.349 798.644L254.076 797.101L185.428 853.753L186.701 855.296ZM255.713 797.873L255.761 688.144L253.761 688.143L253.713 797.872L255.713 797.873ZM255.398 688.915L325.369 631.137L324.095 629.595L254.125 687.372L255.398 688.915ZM325.732 630.366L325.78 532.242L323.78 532.241L323.732 630.365L325.732 630.366ZM325.416 533.013L376.192 491.148L374.92 489.605L324.144 531.47L325.416 533.013ZM376.554 490.446L409.556 12.5538L407.561 12.4161L374.559 490.308L376.554 490.446ZM409.077 13.34L425.627 3.30229L424.59 1.59224L408.04 11.6299L409.077 13.34Z" fill="#110D60" mask="url(#path-41-inside-21_933_518)"/>
<mask id="path-43-inside-22_933_518" fill="white">
<path d="M477.94 406.01L473.533 409.633Z"/>
</mask>
<path d="M477.305 405.237L472.898 408.861L474.168 410.406L478.575 406.782L477.305 405.237Z" fill="#110D60" mask="url(#path-43-inside-22_933_518)"/>
<mask id="path-45-inside-23_933_518" fill="white">
<path d="M556.185 474.561L402.78 600.986V699.16L332.957 756.791V866.618L264.309 923.318V1004.4"/>
</mask>
<path d="M402.78 600.986L402.144 600.215L401.78 600.515V600.986H402.78ZM402.78 699.16L403.416 699.931L403.78 699.631V699.16H402.78ZM332.957 756.791L332.32 756.02L331.957 756.32V756.791H332.957ZM332.957 866.618L333.593 867.389L333.957 867.089V866.618H332.957ZM264.309 923.318L263.672 922.547L263.309 922.847V923.318H264.309ZM555.549 473.789L402.144 600.215L403.416 601.758L556.821 475.332L555.549 473.789ZM401.78 600.986V699.16H403.78V600.986H401.78ZM402.143 698.389L332.32 756.02L333.593 757.562L403.416 699.931L402.143 698.389ZM331.957 756.791V866.618H333.957V756.791H331.957ZM332.32 865.847L263.672 922.547L264.945 924.09L333.593 867.389L332.32 865.847ZM263.309 923.318V1004.4H265.309V923.318H263.309Z" fill="#110D60" mask="url(#path-45-inside-23_933_518)"/>
<mask id="path-47-inside-24_933_518" fill="white">
<path d="M578.758 494.102L425.205 620.723V718.848L355.382 776.479V886.355L286.734 943.006V1023.99"/>
</mask>
<path d="M425.205 620.723L424.569 619.952L424.205 620.252V620.723H425.205ZM425.205 718.848L425.842 719.619L426.205 719.319V718.848H425.205ZM355.382 776.479L354.746 775.708L354.382 776.008V776.479H355.382ZM355.382 886.355L356.019 887.126L356.382 886.826V886.355H355.382ZM286.734 943.006L286.098 942.235L285.734 942.535V943.006H286.734ZM578.121 493.33L424.569 619.952L425.842 621.495L579.394 494.873L578.121 493.33ZM424.205 620.723V718.848H426.205V620.723H424.205ZM424.569 718.077L354.746 775.708L356.019 777.25L425.842 719.619L424.569 718.077ZM354.382 776.479V886.355H356.382V776.479H354.382ZM354.746 885.583L286.098 942.235L287.371 943.778L356.019 887.126L354.746 885.583ZM285.734 943.006V1023.99H287.734V943.006H285.734Z" fill="#110D60" mask="url(#path-47-inside-24_933_518)"/>
<mask id="path-49-inside-25_933_518" fill="white">
<path d="M298.781 1034.51V953.626L367.429 896.925V787.098L437.252 729.467V631.294L590.902 504.672"/>
</mask>
<path d="M298.781 953.626L298.144 952.855L297.781 953.155V953.626H298.781ZM367.429 896.925L368.066 897.696L368.429 897.396V896.925H367.429ZM367.429 787.098L366.793 786.327L366.429 786.627V787.098H367.429ZM437.252 729.467L437.889 730.238L438.252 729.938V729.467H437.252ZM437.252 631.294L436.616 630.522L436.252 630.822V631.294H437.252ZM299.781 1034.51V953.626H297.781V1034.51H299.781ZM299.418 954.397L368.066 897.696L366.792 896.154L298.144 952.855L299.418 954.397ZM368.429 896.925V787.098H366.429V896.925H368.429ZM368.066 787.869L437.889 730.238L436.616 728.696L366.793 786.327L368.066 787.869ZM438.252 729.467V631.294H436.252V729.467H438.252ZM437.888 632.065L591.538 505.444L590.266 503.9L436.616 630.522L437.888 632.065Z" fill="#110D60" mask="url(#path-49-inside-25_933_518)"/>
<mask id="path-51-inside-26_933_518" fill="white">
<path d="M381.53 680.461L311.707 738.092V847.968L243.059 904.62V986.439"/>
</mask>
<path d="M311.707 738.092L311.07 737.321L310.707 737.621V738.092H311.707ZM311.707 847.968L312.343 848.739L312.707 848.439V847.968H311.707ZM243.059 904.62L242.422 903.848L242.059 904.148V904.62H243.059ZM380.893 679.69L311.07 737.321L312.343 738.863L382.166 681.232L380.893 679.69ZM310.707 738.092V847.968H312.707V738.092H310.707ZM311.07 847.197L242.422 903.848L243.695 905.391L312.343 848.739L311.07 847.197ZM242.059 904.62V986.439H244.059V904.62H242.059Z" fill="#110D60" mask="url(#path-51-inside-26_933_518)"/>
<mask id="path-53-inside-27_933_518" fill="white">
<path d="M534.983 455.861L381.529 582.336V680.461"/>
</mask>
<path d="M381.529 582.336L380.893 581.564L380.529 581.864V582.336H381.529ZM534.347 455.09L380.893 581.564L382.165 583.108L535.619 456.633L534.347 455.09ZM380.529 582.336V680.461H382.529V582.336H380.529Z" fill="#110D60" mask="url(#path-53-inside-27_933_518)"/>
<mask id="path-55-inside-28_933_518" fill="white">
<path d="M567.986 483.424L413.7 610.584V708.758L343.876 766.389V876.215L275.229 932.916V1014.2"/>
</mask>
<path d="M413.7 610.584L413.064 609.812L412.7 610.112V610.584H413.7ZM413.7 708.758L414.336 709.529L414.7 709.229V708.758H413.7ZM343.876 766.389L343.24 765.617L342.876 765.917V766.389H343.876ZM343.876 876.215L344.513 876.986L344.876 876.687V876.215H343.876ZM275.229 932.916L274.592 932.145L274.229 932.445V932.916H275.229ZM567.35 482.652L413.064 609.812L414.336 611.356L568.622 484.196L567.35 482.652ZM412.7 610.584V708.758H414.7V610.584H412.7ZM413.063 707.986L343.24 765.617L344.513 767.16L414.336 709.529L413.063 707.986ZM342.876 766.389V876.215H344.876V766.389H342.876ZM343.24 875.444L274.592 932.145L275.865 933.687L344.513 876.986L343.24 875.444ZM274.229 932.916V1014.2H276.229V932.916H274.229Z" fill="#110D60" mask="url(#path-55-inside-28_933_518)"/>
<mask id="path-57-inside-29_933_518" fill="white">
<path d="M620.33 617.734L390.393 807.618V917.102L322.039 974.537V1054.84"/>
</mask>
<path d="M390.393 807.618L389.756 806.847L389.393 807.147V807.618H390.393ZM390.393 917.102L391.037 917.868L391.393 917.568V917.102H390.393ZM322.039 974.537L321.396 973.772L321.039 974.071V974.537H322.039ZM619.693 616.963L389.756 806.847L391.03 808.389L620.966 618.505L619.693 616.963ZM389.393 807.618V917.102H391.393V807.618H389.393ZM389.75 916.337L321.396 973.772L322.682 975.303L391.037 917.868L389.75 916.337ZM321.039 974.537V1054.84H323.039V974.537H321.039Z" fill="#110D60" mask="url(#path-57-inside-29_933_518)"/>
<mask id="path-59-inside-30_933_518" fill="white">
<path d="M633.55 629.389L402.781 819.909V928.022L336.092 986.437V1067.13"/>
</mask>
<path d="M402.781 819.909L402.145 819.138L401.781 819.438V819.909H402.781ZM402.781 928.022L403.44 928.774L403.781 928.476V928.022H402.781ZM336.092 986.437L335.433 985.684L335.092 985.983V986.437H336.092ZM632.913 628.618L402.145 819.138L403.418 820.68L634.187 630.16L632.913 628.618ZM401.781 819.909V928.022H403.781V819.909H401.781ZM402.122 927.27L335.433 985.684L336.751 987.189L403.44 928.774L402.122 927.27ZM335.092 986.437V1067.13H337.092V986.437H335.092Z" fill="#110D60" mask="url(#path-59-inside-30_933_518)"/>
<mask id="path-61-inside-31_933_518" fill="white">
<path d="M647.357 641.479L417.371 831.362V940.846L349.898 998.526V1079.17"/>
</mask>
<path d="M417.371 831.362L416.735 830.591L416.371 830.891V831.362H417.371ZM417.371 940.846L418.021 941.606L418.371 941.307V940.846H417.371ZM349.898 998.526L349.249 997.766L348.898 998.066V998.526H349.898ZM646.72 640.707L416.735 830.591L418.008 832.133L647.993 642.25L646.72 640.707ZM416.371 831.362V940.846H418.371V831.362H416.371ZM416.721 940.086L349.249 997.766L350.548 999.286L418.021 941.606L416.721 940.086ZM348.898 998.526V1079.17H350.898V998.526H348.898Z" fill="#110D60" mask="url(#path-61-inside-31_933_518)"/>
<mask id="path-63-inside-32_933_518" fill="white">
<path d="M661.117 653.625L431.18 843.46V952.993L364.246 1011.16V1091.71"/>
</mask>
<path d="M431.18 843.46L430.544 842.688L430.18 842.988V843.46H431.18ZM431.18 952.993L431.836 953.748L432.18 953.449V952.993H431.18ZM364.246 1011.16L363.59 1010.41L363.246 1010.71V1011.16H364.246ZM660.48 652.854L430.544 842.688L431.817 844.231L661.753 654.396L660.48 652.854ZM430.18 843.46V952.993H432.18V843.46H430.18ZM430.524 952.238L363.59 1010.41L364.902 1011.92L431.836 953.748L430.524 952.238ZM363.246 1011.16V1091.71H365.246V1011.16H363.246Z" fill="#110D60" mask="url(#path-63-inside-32_933_518)"/>
<mask id="path-65-inside-33_933_518" fill="white">
<path d="M712.822 775.254L391.861 1036.33V1115.85"/>
</mask>
<path d="M391.861 1036.33L391.23 1035.56L390.861 1035.86V1036.33H391.861ZM712.191 774.478L391.23 1035.56L392.492 1037.11L713.453 776.03L712.191 774.478ZM390.861 1036.33V1115.85H392.861V1036.33H390.861Z" fill="#110D60" mask="url(#path-65-inside-33_933_518)"/>
<mask id="path-67-inside-34_933_518" fill="white">
<path d="M545.267 465.016L391.862 591.393V689.566L322.039 747.197V857.024L253.391 913.725V994.859"/>
</mask>
<path d="M391.862 591.393L391.226 590.621L390.862 590.921V591.393H391.862ZM391.862 689.566L392.498 690.337L392.862 690.037V689.566H391.862ZM322.039 747.197L321.402 746.426L321.039 746.726V747.197H322.039ZM322.039 857.024L322.675 857.795L323.039 857.495V857.024H322.039ZM253.391 913.725L252.754 912.954L252.391 913.254V913.725H253.391ZM544.631 464.244L391.226 590.621L392.498 592.164L545.903 465.787L544.631 464.244ZM390.862 591.393V689.566H392.862V591.393H390.862ZM391.225 688.795L321.402 746.426L322.675 747.968L392.498 690.337L391.225 688.795ZM321.039 747.197V857.024H323.039V747.197H321.039ZM321.402 856.253L252.754 912.954L254.027 914.496L322.675 857.795L321.402 856.253ZM252.391 913.725V994.859H254.391V913.725H252.391Z" fill="#110D60" mask="url(#path-67-inside-34_933_518)"/>
<mask id="path-69-inside-35_933_518" fill="white">
<path d="M0 1342.41V977.475L77.7064 913.332"/>
</mask>
<path d="M0 977.475L-0.636592 976.704L-1 977.004V977.475H0ZM1 1342.41V977.475H-1V1342.41H1ZM0.636592 978.246L78.343 914.103L77.0698 912.561L-0.636592 976.704L0.636592 978.246Z" fill="#110D60" mask="url(#path-69-inside-35_933_518)"/>
<mask id="path-71-inside-36_933_518" fill="white">
<path d="M5.67969 1347.4L5.72865 982.519L77.7062 923.125"/>
</mask>
<path d="M5.72865 982.519L5.09219 981.747L4.72871 982.047L4.72865 982.519L5.72865 982.519ZM6.67969 1347.4L6.72865 982.519L4.72865 982.519L4.67969 1347.4L6.67969 1347.4ZM6.36511 983.29L78.3427 923.896L77.0697 922.354L5.09219 981.747L6.36511 983.29Z" fill="#110D60" mask="url(#path-71-inside-36_933_518)"/>
<mask id="path-73-inside-37_933_518" fill="white">
<path d="M252.655 517.504L153.649 599.274V708.954L85.0012 765.655V935.414L16.4512 992.115V1356.9"/>
</mask>
<path d="M153.649 599.274L153.012 598.503L152.649 598.803V599.274H153.649ZM153.649 708.954L154.286 709.725L154.649 709.425V708.954H153.649ZM85.0012 765.655L84.3644 764.884L84.0012 765.184V765.655H85.0012ZM85.0012 935.414L85.6386 936.185L86.0012 935.885V935.414H85.0012ZM16.4512 992.115L15.8138 991.344L15.4512 991.644V992.115H16.4512ZM252.018 516.733L153.012 598.503L154.286 600.045L253.292 518.275L252.018 516.733ZM152.649 599.274V708.954H154.649V599.274H152.649ZM153.012 708.183L84.3644 764.884L85.638 766.426L154.286 709.725L153.012 708.183ZM84.0012 765.655V935.414H86.0012V765.655H84.0012ZM84.3638 934.644L15.8138 991.344L17.0885 992.886L85.6386 936.185L84.3638 934.644ZM15.4512 992.115V1356.9H17.4512V992.115H15.4512Z" fill="#110D60" mask="url(#path-73-inside-37_933_518)"/>
<mask id="path-75-inside-38_933_518" fill="white">
<path d="M252.655 532.189L162.413 606.713L162.364 716.442L93.6185 773.192V942.951L25.0195 999.652V1364.48"/>
</mask>
<path d="M162.413 606.713L161.777 605.942L161.414 606.242L161.413 606.713L162.413 606.713ZM162.364 716.442L163.001 717.213L163.364 716.913L163.364 716.443L162.364 716.442ZM93.6185 773.192L92.9819 772.421L92.6185 772.721V773.192H93.6185ZM93.6185 942.951L94.2556 943.722L94.6185 943.422V942.951H93.6185ZM25.0195 999.652L24.3824 998.881L24.0195 999.181V999.652H25.0195ZM252.018 531.418L161.777 605.942L163.05 607.484L253.291 532.961L252.018 531.418ZM161.413 606.713L161.364 716.442L163.364 716.443L163.413 606.714L161.413 606.713ZM161.728 715.671L92.9819 772.421L94.2551 773.963L163.001 717.213L161.728 715.671ZM92.6185 773.192V942.951H94.6185V773.192H92.6185ZM92.9814 942.18L24.3824 998.881L25.6566 1000.42L94.2556 943.722L92.9814 942.18ZM24.0195 999.652V1364.48H26.0195V999.652H24.0195Z" fill="#110D60" mask="url(#path-75-inside-38_933_518)"/>
<mask id="path-77-inside-39_933_518" fill="white">
<path d="M29.6719 1368.6V1003.77L98.1729 947.019V777.259L166.821 720.559L166.87 610.879L252.655 540.027"/>
</mask>
<path d="M29.6719 1003.77L29.0339 1003L28.6719 1003.3V1003.77H29.6719ZM98.1729 947.019L98.8109 947.789L99.1729 947.489V947.019H98.1729ZM98.1729 777.259L97.5361 776.488L97.1729 776.788V777.259H98.1729ZM166.821 720.559L167.458 721.33L167.821 721.03L167.821 720.559L166.821 720.559ZM166.87 610.879L166.233 610.108L165.87 610.407L165.87 610.878L166.87 610.879ZM30.6719 1368.6V1003.77H28.6719V1368.6H30.6719ZM30.3098 1004.54L98.8109 947.789L97.535 946.249L29.0339 1003L30.3098 1004.54ZM99.1729 947.019V777.259H97.1729V947.019H99.1729ZM98.8098 778.03L167.458 721.33L166.184 719.788L97.5361 776.488L98.8098 778.03ZM167.821 720.559L167.87 610.879L165.87 610.878L165.821 720.558L167.821 720.559ZM167.507 611.65L253.292 540.798L252.019 539.256L166.233 610.108L167.507 611.65Z" fill="#110D60" mask="url(#path-77-inside-39_933_518)"/>
<mask id="path-79-inside-40_933_518" fill="white">
<path d="M34.8145 1373.1V1008.27L103.364 951.571V781.811L172.012 725.111V615.431L252.461 549.035"/>
</mask>
<path d="M34.8145 1008.27L34.1771 1007.5L33.8145 1007.8V1008.27H34.8145ZM103.364 951.571L104.002 952.341L104.364 952.041V951.571H103.364ZM103.364 781.811L102.728 781.04L102.364 781.34V781.811H103.364ZM172.012 725.111L172.649 725.882L173.012 725.582V725.111H172.012ZM172.012 615.431L171.376 614.659L171.012 614.959V615.431H172.012ZM35.8145 1373.1V1008.27H33.8145V1373.1H35.8145ZM35.4518 1009.04L104.002 952.341L102.727 950.8L34.1771 1007.5L35.4518 1009.04ZM104.364 951.571V781.811H102.364V951.571H104.364ZM104.001 782.582L172.649 725.882L171.376 724.34L102.728 781.04L104.001 782.582ZM173.012 725.111V615.431H171.012V725.111H173.012ZM172.649 616.202L253.097 549.806L251.824 548.264L171.376 614.659L172.649 616.202Z" fill="#110D60" mask="url(#path-79-inside-40_933_518)"/>
<mask id="path-81-inside-41_933_518" fill="white">
<path d="M40.248 1377.96V1013.07L108.553 956.128V786.369L177.201 729.668V619.988L252.655 557.656"/>
</mask>
<path d="M40.248 1013.07L39.6077 1012.31L39.248 1012.61V1013.07H40.248ZM108.553 956.128L109.194 956.896L109.553 956.596V956.128H108.553ZM108.553 786.369L107.916 785.598L107.553 785.898V786.369H108.553ZM177.201 729.668L177.838 730.439L178.201 730.139V729.668H177.201ZM177.201 619.988L176.564 619.217L176.201 619.517V619.988H177.201ZM41.248 1377.96V1013.07H39.248V1377.96H41.248ZM40.8884 1013.84L109.194 956.896L107.913 955.36L39.6077 1012.31L40.8884 1013.84ZM109.553 956.128V786.369H107.553V956.128H109.553ZM109.19 787.14L177.838 730.439L176.564 728.897L107.916 785.598L109.19 787.14ZM178.201 729.668V619.988H176.201V729.668H178.201ZM177.838 620.759L253.292 558.427L252.018 556.885L176.564 619.217L177.838 620.759Z" fill="#110D60" mask="url(#path-81-inside-41_933_518)"/>
<mask id="path-83-inside-42_933_518" fill="white">
<path d="M366.938 384.953L258.727 474.117L258.678 572.242L188.708 630.068L188.659 739.749L120.011 796.449V965.768L51.4609 1022.91V1387.84"/>
</mask>
<path d="M258.727 474.117L258.091 473.345L257.727 473.645L257.727 474.117L258.727 474.117ZM258.678 572.242L259.315 573.012L259.678 572.713L259.678 572.242L258.678 572.242ZM188.708 630.068L188.071 629.298L187.708 629.597L187.708 630.068L188.708 630.068ZM188.659 739.749L189.296 740.52L189.659 740.22L189.659 739.749L188.659 739.749ZM120.011 796.449L119.374 795.678L119.011 795.978V796.449H120.011ZM120.011 965.768L120.651 966.536L121.011 966.236V965.768H120.011ZM51.4609 1022.91L50.8206 1022.14L50.4609 1022.44V1022.91H51.4609ZM366.302 384.181L258.091 473.345L259.363 474.889L367.574 385.725L366.302 384.181ZM257.727 474.117L257.678 572.241L259.678 572.242L259.727 474.118L257.727 474.117ZM258.041 571.471L188.071 629.298L189.345 630.839L259.315 573.012L258.041 571.471ZM187.708 630.068L187.659 739.748L189.659 739.749L189.708 630.069L187.708 630.068ZM188.022 738.978L119.374 795.678L120.648 797.22L189.296 740.52L188.022 738.978ZM119.011 796.449V965.768H121.011V796.449H119.011ZM119.371 965L50.8206 1022.14L52.1012 1023.68L120.651 966.536L119.371 965ZM50.4609 1022.91V1387.84H52.4609V1022.91H50.4609Z" fill="#110D60" mask="url(#path-83-inside-42_933_518)"/>
<mask id="path-85-inside-43_933_518" fill="white">
<path d="M64.0449 1059.1V1033.98L132.644 977.327V807.568L201.292 750.867L201.341 641.187L271.311 583.36L271.36 485.236L364.735 408.264"/>
</mask>
<path d="M64.0449 1033.98L63.4082 1033.21L63.0449 1033.51V1033.98H64.0449ZM132.644 977.327L133.281 978.098L133.644 977.798V977.327H132.644ZM132.644 807.568L132.007 806.797L131.644 807.097V807.568H132.644ZM201.292 750.867L201.929 751.638L202.292 751.338L202.292 750.867L201.292 750.867ZM201.341 641.187L200.704 640.416L200.341 640.716L200.341 641.186L201.341 641.187ZM271.311 583.36L271.948 584.131L272.311 583.831L272.311 583.361L271.311 583.36ZM271.36 485.236L270.724 484.464L270.36 484.764L270.36 485.235L271.36 485.236ZM65.0449 1059.1V1033.98H63.0449V1059.1H65.0449ZM64.6817 1034.75L133.281 978.098L132.007 976.556L63.4082 1033.21L64.6817 1034.75ZM133.644 977.327V807.568H131.644V977.327H133.644ZM133.281 808.339L201.929 751.638L200.655 750.096L132.007 806.797L133.281 808.339ZM202.292 750.867L202.341 641.187L200.341 641.186L200.292 750.867L202.292 750.867ZM201.978 641.958L271.948 584.131L270.674 582.589L200.704 640.416L201.978 641.958ZM272.311 583.361L272.36 485.236L270.36 485.235L270.311 583.36L272.311 583.361ZM271.996 486.007L365.371 409.035L364.099 407.492L270.724 484.464L271.996 486.007Z" fill="#110D60" mask="url(#path-85-inside-43_933_518)"/>
<mask id="path-87-inside-44_933_518" fill="white">
<path d="M368.75 1668.07V1301.87L449.051 1235.67L448.856 1075.95"/>
</mask>
<path d="M368.75 1301.87L368.114 1301.1L367.75 1301.4V1301.87H368.75ZM449.051 1235.67L449.688 1236.44L450.052 1236.14L450.051 1235.67L449.051 1235.67ZM369.75 1668.07V1301.87H367.75V1668.07H369.75ZM369.386 1302.64L449.688 1236.44L448.415 1234.9L368.114 1301.1L369.386 1302.64ZM450.051 1235.67L449.856 1075.94L447.856 1075.95L448.051 1235.67L450.051 1235.67Z" fill="#110D60" mask="url(#path-87-inside-44_933_518)"/>
<mask id="path-89-inside-45_933_518" fill="white">
<path d="M452.332 1233.46V1073.25Z"/>
</mask>
<path d="M453.332 1233.46V1073.25H451.332V1233.46H453.332Z" fill="#110D60" mask="url(#path-89-inside-45_933_518)"/>
<mask id="path-91-inside-46_933_518" fill="white">
<path d="M460.312 1066.5V1226.9Z"/>
</mask>
<path d="M459.312 1066.5V1226.9H461.312V1066.5H459.312Z" fill="#110D60" mask="url(#path-91-inside-46_933_518)"/>
<mask id="path-93-inside-47_933_518" fill="white">
<path d="M456.348 1230.18V1069.77Z"/>
</mask>
<path d="M457.348 1230.18V1069.77H455.348V1230.18H457.348Z" fill="#110D60" mask="url(#path-93-inside-47_933_518)"/>
<mask id="path-95-inside-48_933_518" fill="white">
<path d="M464.965 1223.13V1062.04Z"/>
</mask>
<path d="M465.965 1223.13V1062.04H463.965V1223.13H465.965Z" fill="#110D60" mask="url(#path-95-inside-48_933_518)"/>
<mask id="path-97-inside-49_933_518" fill="white">
<path d="M469.568 1219.36V1058.86Z"/>
</mask>
<path d="M470.568 1219.36V1058.86H468.568V1219.36H470.568Z" fill="#110D60" mask="url(#path-97-inside-49_933_518)"/>
<mask id="path-99-inside-50_933_518" fill="white">
<path d="M524.996 1013.12V1173.53Z"/>
</mask>
<path d="M523.996 1013.12V1173.53H525.996V1013.12H523.996Z" fill="#110D60" mask="url(#path-99-inside-50_933_518)"/>
<mask id="path-101-inside-51_933_518" fill="white">
<path d="M540.762 1000.05V1160.6Z"/>
</mask>
<path d="M539.762 1000.05V1160.6H541.762V1000.05H539.762Z" fill="#110D60" mask="url(#path-101-inside-51_933_518)"/>
<mask id="path-103-inside-52_933_518" fill="white">
<path d="M566.076 979.582V1140.28Z"/>
</mask>
<path d="M565.076 979.582V1140.28H567.076V979.582H565.076Z" fill="#110D60" mask="url(#path-103-inside-52_933_518)"/>
<mask id="path-105-inside-53_933_518" fill="white">
<path d="M575.232 972.043V1132.55Z"/>
</mask>
<path d="M574.232 972.043V1132.55H576.232V972.043H574.232Z" fill="#110D60" mask="url(#path-105-inside-53_933_518)"/>
<mask id="path-107-inside-54_933_518" fill="white">
<path d="M594.182 956.373V1117.27Z"/>
</mask>
<path d="M593.182 956.373V1117.27H595.182V956.373H593.182Z" fill="#110D60" mask="url(#path-107-inside-54_933_518)"/>
<mask id="path-109-inside-55_933_518" fill="white">
<path d="M485.383 1045.78V1206.38Z"/>
</mask>
<path d="M484.383 1045.78V1206.38H486.383V1045.78H484.383Z" fill="#110D60" mask="url(#path-109-inside-55_933_518)"/>
<mask id="path-111-inside-56_933_518" fill="white">
<path d="M497.674 1035.65V1196.3Z"/>
</mask>
<path d="M496.674 1035.65V1196.3H498.674V1035.65H496.674Z" fill="#110D60" mask="url(#path-111-inside-56_933_518)"/>
<mask id="path-113-inside-57_933_518" fill="white">
<path d="M510.893 1024.73V1185.53Z"/>
</mask>
<path d="M509.893 1024.73V1185.53H511.893V1024.73H509.893Z" fill="#110D60" mask="url(#path-113-inside-57_933_518)"/>
<mask id="path-115-inside-58_933_518" fill="white">
<path d="M517.748 1019.04V1179.89Z"/>
</mask>
<path d="M516.748 1019.04V1179.89H518.748V1019.04H516.748Z" fill="#110D60" mask="url(#path-115-inside-58_933_518)"/>
<mask id="path-117-inside-59_933_518" fill="white">
<path d="M532.732 1006.71V1167.21Z"/>
</mask>
<path d="M531.732 1006.71V1167.21H533.732V1006.71H531.732Z" fill="#110D60" mask="url(#path-117-inside-59_933_518)"/>
<mask id="path-119-inside-60_933_518" fill="white">
<path d="M548.547 993.637V1154.29Z"/>
</mask>
<path d="M547.547 993.637V1154.29H549.547V993.637H547.547Z" fill="#110D60" mask="url(#path-119-inside-60_933_518)"/>
<mask id="path-121-inside-61_933_518" fill="white">
<path d="M584.438 964.453V1125.3Z"/>
</mask>
<path d="M583.438 964.453V1125.3H585.438V964.453H583.438Z" fill="#110D60" mask="url(#path-121-inside-61_933_518)"/>
<mask id="path-123-inside-62_933_518" fill="white">
<path d="M557.41 986.73V1147.38Z"/>
</mask>
<path d="M556.41 986.73V1147.38H558.41V986.73H556.41Z" fill="#110D60" mask="url(#path-123-inside-62_933_518)"/>
<mask id="path-125-inside-63_933_518" fill="white">
<path d="M474.709 1215.1V1054.6Z"/>
</mask>
<path d="M475.709 1215.1V1054.6H473.709V1215.1H475.709Z" fill="#110D60" mask="url(#path-125-inside-63_933_518)"/>
<mask id="path-127-inside-64_933_518" fill="white">
<path d="M479.898 1210.89V1050.34Z"/>
</mask>
<path d="M480.898 1210.89V1050.34H478.898V1210.89H480.898Z" fill="#110D60" mask="url(#path-127-inside-64_933_518)"/>
<mask id="path-129-inside-65_933_518" fill="white">
<path d="M491.355 1201.49V1040.84Z"/>
</mask>
<path d="M492.355 1201.49V1040.84H490.355V1201.49H492.355Z" fill="#110D60" mask="url(#path-129-inside-65_933_518)"/>
<mask id="path-131-inside-66_933_518" fill="white">
<path d="M503.99 1191.11V1030.41Z"/>
</mask>
<path d="M504.99 1191.11V1030.41H502.99V1191.11H504.99Z" fill="#110D60" mask="url(#path-131-inside-66_933_518)"/>
<mask id="path-133-inside-67_933_518" fill="white">
<path d="M376.486 1102.38V1021.93L448.954 962.099L449.002 961.805L448.856 853.398"/>
</mask>
<path d="M376.486 1021.93L375.85 1021.16L375.486 1021.46V1021.93H376.486ZM448.954 962.099L449.59 962.87L449.878 962.632L449.94 962.264L448.954 962.099ZM449.002 961.805L449.989 961.97L450.003 961.888L450.002 961.804L449.002 961.805ZM377.486 1102.38V1021.93H375.486V1102.38H377.486ZM377.123 1022.7L449.59 962.87L448.317 961.328L375.85 1021.16L377.123 1022.7ZM449.94 962.264L449.989 961.97L448.016 961.641L447.967 961.935L449.94 962.264ZM450.002 961.804L449.856 853.397L447.856 853.4L448.002 961.807L450.002 961.804Z" fill="#110D60" mask="url(#path-133-inside-67_933_518)"/>
<mask id="path-135-inside-68_933_518" fill="white">
<path d="M524.996 790.578V899.328Z"/>
</mask>
<path d="M523.996 790.578V899.328H525.996V790.578H523.996Z" fill="#110D60" mask="url(#path-135-inside-68_933_518)"/>
<mask id="path-137-inside-69_933_518" fill="white">
<path d="M540.762 777.506V886.451Z"/>
</mask>
<path d="M539.762 777.506V886.451H541.762V777.506H539.762Z" fill="#110D60" mask="url(#path-137-inside-69_933_518)"/>
<mask id="path-139-inside-70_933_518" fill="white">
<path d="M566.076 756.598V865.396Z"/>
</mask>
<path d="M565.076 756.598V865.396H567.076V756.598H565.076Z" fill="#110D60" mask="url(#path-139-inside-70_933_518)"/>
<mask id="path-141-inside-71_933_518" fill="white">
<path d="M575.232 749.057V857.855Z"/>
</mask>
<path d="M574.232 749.057V857.855H576.232V749.057H574.232Z" fill="#110D60" mask="url(#path-141-inside-71_933_518)"/>
<mask id="path-143-inside-72_933_518" fill="white">
<path d="M594.182 733.441V842.191Z"/>
</mask>
<path d="M593.182 733.441V842.191H595.182V733.441H593.182Z" fill="#110D60" mask="url(#path-143-inside-72_933_518)"/>
<mask id="path-145-inside-73_933_518" fill="white">
<path d="M452.332 959.604V850.707Z"/>
</mask>
<path d="M453.332 959.604V850.707H451.332V959.604H453.332Z" fill="#110D60" mask="url(#path-145-inside-73_933_518)"/>
<mask id="path-147-inside-74_933_518" fill="white">
<path d="M460.312 843.953V952.703Z"/>
</mask>
<path d="M459.312 843.953V952.703H461.312V843.953H459.312Z" fill="#110D60" mask="url(#path-147-inside-74_933_518)"/>
<mask id="path-149-inside-75_933_518" fill="white">
<path d="M485.383 823.24V932.039Z"/>
</mask>
<path d="M484.383 823.24V932.039H486.383V823.24H484.383Z" fill="#110D60" mask="url(#path-149-inside-75_933_518)"/>
<mask id="path-151-inside-76_933_518" fill="white">
<path d="M497.672 813.104V921.853Z"/>
</mask>
<path d="M496.672 813.104V921.853H498.672V813.104H496.672Z" fill="#110D60" mask="url(#path-151-inside-76_933_518)"/>
<mask id="path-153-inside-77_933_518" fill="white">
<path d="M510.893 802.184V910.982Z"/>
</mask>
<path d="M509.893 802.184V910.982H511.893V802.184H509.893Z" fill="#110D60" mask="url(#path-153-inside-77_933_518)"/>
<mask id="path-155-inside-78_933_518" fill="white">
<path d="M517.748 796.553V905.302Z"/>
</mask>
<path d="M516.748 796.553V905.302H518.748V796.553H516.748Z" fill="#110D60" mask="url(#path-155-inside-78_933_518)"/>
<mask id="path-157-inside-79_933_518" fill="white">
<path d="M532.73 784.164V892.865Z"/>
</mask>
<path d="M531.73 784.164V892.865H533.73V784.164H531.73Z" fill="#110D60" mask="url(#path-157-inside-79_933_518)"/>
<mask id="path-159-inside-80_933_518" fill="white">
<path d="M548.547 771.094V879.892Z"/>
</mask>
<path d="M547.547 771.094V879.892H549.547V771.094H547.547Z" fill="#110D60" mask="url(#path-159-inside-80_933_518)"/>
<mask id="path-161-inside-81_933_518" fill="white">
<path d="M584.438 741.469V850.267Z"/>
</mask>
<path d="M583.438 741.469V850.267H585.438V741.469H583.438Z" fill="#110D60" mask="url(#path-161-inside-81_933_518)"/>
<mask id="path-163-inside-82_933_518" fill="white">
<path d="M557.41 763.748V872.547Z"/>
</mask>
<path d="M556.41 763.748V872.547H558.41V763.748H556.41Z" fill="#110D60" mask="url(#path-163-inside-82_933_518)"/>
<mask id="path-165-inside-83_933_518" fill="white">
<path d="M456.348 955.98V847.23Z"/>
</mask>
<path d="M457.348 955.98V847.23H455.348V955.98H457.348Z" fill="#110D60" mask="url(#path-165-inside-83_933_518)"/>
<mask id="path-167-inside-84_933_518" fill="white">
<path d="M464.965 948.88V839.494Z"/>
</mask>
<path d="M465.965 948.88V839.494H463.965V948.88H465.965Z" fill="#110D60" mask="url(#path-167-inside-84_933_518)"/>
<mask id="path-169-inside-85_933_518" fill="white">
<path d="M469.566 945.111V836.312Z"/>
</mask>
<path d="M470.566 945.111V836.312H468.566V945.111H470.566Z" fill="#110D60" mask="url(#path-169-inside-85_933_518)"/>
<mask id="path-171-inside-86_933_518" fill="white">
<path d="M474.709 940.8V832.051Z"/>
</mask>
<path d="M475.709 940.8V832.051H473.709V940.8H475.709Z" fill="#110D60" mask="url(#path-171-inside-86_933_518)"/>
<mask id="path-173-inside-87_933_518" fill="white">
<path d="M479.898 936.541V827.791Z"/>
</mask>
<path d="M480.898 936.541V827.791H478.898V936.541H480.898Z" fill="#110D60" mask="url(#path-173-inside-87_933_518)"/>
<mask id="path-175-inside-88_933_518" fill="white">
<path d="M491.357 927.092V818.293Z"/>
</mask>
<path d="M492.357 927.092V818.293H490.357V927.092H492.357Z" fill="#110D60" mask="url(#path-175-inside-88_933_518)"/>
<mask id="path-177-inside-89_933_518" fill="white">
<path d="M503.99 916.66V807.861Z"/>
</mask>
<path d="M504.99 916.66V807.861H502.99V916.66H504.99Z" fill="#110D60" mask="url(#path-177-inside-89_933_518)"/>
<mask id="path-179-inside-90_933_518" fill="white">
<path d="M309.111 1043.53V962.686L377.759 906.034V796.501L449.002 738.38L448.855 641.088"/>
</mask>
<path d="M309.111 962.686L308.475 961.914L308.111 962.214V962.686H309.111ZM377.759 906.034L378.396 906.805L378.759 906.505V906.034H377.759ZM377.759 796.501L377.127 795.726L376.759 796.026V796.501H377.759ZM449.002 738.38L449.635 739.155L450.003 738.854L450.002 738.378L449.002 738.38ZM310.111 1043.53V962.686H308.111V1043.53H310.111ZM309.748 963.457L378.396 906.805L377.123 905.262L308.475 961.914L309.748 963.457ZM378.759 906.034V796.501H376.759V906.034H378.759ZM378.391 797.275L449.635 739.155L448.37 737.605L377.127 795.726L378.391 797.275ZM450.002 738.378L449.855 641.086L447.855 641.089L448.002 738.381L450.002 738.378Z" fill="#110D60" mask="url(#path-179-inside-90_933_518)"/>
<mask id="path-181-inside-91_933_518" fill="white">
<path d="M524.996 579.396V674.926Z"/>
</mask>
<path d="M523.996 579.396V674.926H525.996V579.396H523.996Z" fill="#110D60" mask="url(#path-181-inside-91_933_518)"/>
<mask id="path-183-inside-92_933_518" fill="white">
<path d="M540.762 566.371V661.998Z"/>
</mask>
<path d="M539.762 566.371V661.998H541.762V566.371H539.762Z" fill="#110D60" mask="url(#path-183-inside-92_933_518)"/>
<mask id="path-185-inside-93_933_518" fill="white">
<path d="M566.076 545.461V640.941Z"/>
</mask>
<path d="M565.076 545.461V640.941H567.076V545.461H565.076Z" fill="#110D60" mask="url(#path-185-inside-93_933_518)"/>
<mask id="path-187-inside-94_933_518" fill="white">
<path d="M575.232 537.92V633.4Z"/>
</mask>
<path d="M574.232 537.92V633.4H576.232V537.92H574.232Z" fill="#110D60" mask="url(#path-187-inside-94_933_518)"/>
<mask id="path-189-inside-95_933_518" fill="white">
<path d="M594.182 522.252V617.781Z"/>
</mask>
<path d="M593.182 522.252V617.781H595.182V522.252H593.182Z" fill="#110D60" mask="url(#path-189-inside-95_933_518)"/>
<mask id="path-191-inside-96_933_518" fill="white">
<path d="M452.332 735.201V638.398Z"/>
</mask>
<path d="M453.332 735.201V638.398H451.332V735.201H453.332Z" fill="#110D60" mask="url(#path-191-inside-96_933_518)"/>
<mask id="path-193-inside-97_933_518" fill="white">
<path d="M460.312 632.766V728.295Z"/>
</mask>
<path d="M459.312 632.766V728.295H461.312V632.766H459.312Z" fill="#110D60" mask="url(#path-193-inside-97_933_518)"/>
<mask id="path-195-inside-98_933_518" fill="white">
<path d="M485.383 612.102V707.582Z"/>
</mask>
<path d="M484.383 612.102V707.582H486.383V612.102H484.383Z" fill="#110D60" mask="url(#path-195-inside-98_933_518)"/>
<mask id="path-197-inside-99_933_518" fill="white">
<path d="M497.674 601.914V697.443Z"/>
</mask>
<path d="M496.674 601.914V697.443H498.674V601.914H496.674Z" fill="#110D60" mask="url(#path-197-inside-99_933_518)"/>
<mask id="path-199-inside-100_933_518" fill="white">
<path d="M510.893 591.047V686.527Z"/>
</mask>
<path d="M509.893 591.047V686.527H511.893V591.047H509.893Z" fill="#110D60" mask="url(#path-199-inside-100_933_518)"/>
<mask id="path-201-inside-101_933_518" fill="white">
<path d="M517.748 585.367V680.848Z"/>
</mask>
<path d="M516.748 585.367V680.848H518.748V585.367H516.748Z" fill="#110D60" mask="url(#path-201-inside-101_933_518)"/>
<mask id="path-203-inside-102_933_518" fill="white">
<path d="M532.732 572.98V668.461Z"/>
</mask>
<path d="M531.732 572.98V668.461H533.732V572.98H531.732Z" fill="#110D60" mask="url(#path-203-inside-102_933_518)"/>
<mask id="path-205-inside-103_933_518" fill="white">
<path d="M548.547 559.955V655.435Z"/>
</mask>
<path d="M547.547 559.955V655.435H549.547V559.955H547.547Z" fill="#110D60" mask="url(#path-205-inside-103_933_518)"/>
<mask id="path-207-inside-104_933_518" fill="white">
<path d="M584.438 530.332V625.812Z"/>
</mask>
<path d="M583.438 530.332V625.812H585.438V530.332H583.438Z" fill="#110D60" mask="url(#path-207-inside-104_933_518)"/>
<mask id="path-209-inside-105_933_518" fill="white">
<path d="M557.41 552.613V648.094Z"/>
</mask>
<path d="M556.41 552.613V648.094H558.41V552.613H556.41Z" fill="#110D60" mask="url(#path-209-inside-105_933_518)"/>
<mask id="path-211-inside-106_933_518" fill="white">
<path d="M456.348 731.576V636.047Z"/>
</mask>
<path d="M457.348 731.576V636.047H455.348V731.576H457.348Z" fill="#110D60" mask="url(#path-211-inside-106_933_518)"/>
<mask id="path-213-inside-107_933_518" fill="white">
<path d="M464.965 724.475V628.309Z"/>
</mask>
<path d="M465.965 724.475V628.309H463.965V724.475H465.965Z" fill="#110D60" mask="url(#path-213-inside-107_933_518)"/>
<mask id="path-215-inside-108_933_518" fill="white">
<path d="M469.568 720.656V625.176Z"/>
</mask>
<path d="M470.568 720.656V625.176H468.568V720.656H470.568Z" fill="#110D60" mask="url(#path-215-inside-108_933_518)"/>
<mask id="path-217-inside-109_933_518" fill="white">
<path d="M474.709 716.397V620.867Z"/>
</mask>
<path d="M475.709 716.397V620.867H473.709V716.397H475.709Z" fill="#110D60" mask="url(#path-217-inside-109_933_518)"/>
<mask id="path-219-inside-110_933_518" fill="white">
<path d="M479.898 712.135V616.605Z"/>
</mask>
<path d="M480.898 712.135V616.605H478.898V712.135H480.898Z" fill="#110D60" mask="url(#path-219-inside-110_933_518)"/>
<mask id="path-221-inside-111_933_518" fill="white">
<path d="M491.357 702.637V607.156Z"/>
</mask>
<path d="M492.357 702.637V607.156H490.357V702.637H492.357Z" fill="#110D60" mask="url(#path-221-inside-111_933_518)"/>
<mask id="path-223-inside-112_933_518" fill="white">
<path d="M503.988 692.207V596.727Z"/>
</mask>
<path d="M504.988 692.207V596.727H502.988V692.207H504.988Z" fill="#110D60" mask="url(#path-223-inside-112_933_518)"/>
<mask id="path-225-inside-113_933_518" fill="white">
<path d="M425.157 21.1973L424.079 530.328L371.296 573.123V671.248L301.277 729.074V838.754L232.629 895.455V976.687"/>
</mask>
<path d="M424.079 530.328L424.709 531.105L425.078 530.806L425.079 530.33L424.079 530.328ZM371.296 573.123L370.666 572.346L370.296 572.646V573.123H371.296ZM371.296 671.248L371.933 672.019L372.296 671.719V671.248H371.296ZM301.277 729.074L300.64 728.303L300.277 728.603V729.074H301.277ZM301.277 838.754L301.914 839.525L302.277 839.225V838.754H301.277ZM232.629 895.455L231.992 894.684L231.629 894.984V895.455H232.629ZM424.157 21.1951L423.079 530.326L425.079 530.33L426.157 21.1994L424.157 21.1951ZM423.45 529.551L370.666 572.346L371.926 573.9L424.709 531.105L423.45 529.551ZM370.296 573.123V671.248H372.296V573.123H370.296ZM370.659 670.476L300.64 728.303L301.914 729.845L371.933 672.019L370.659 670.476ZM300.277 729.074V838.754H302.277V729.074H300.277ZM300.64 837.983L231.992 894.684L233.266 896.226L301.914 839.525L300.64 837.983ZM231.629 895.455V976.687H233.629V895.455H231.629Z" fill="#110D60" mask="url(#path-225-inside-113_933_518)"/>
<mask id="path-227-inside-114_933_518" fill="white">
<path d="M471.379 490.67L437.594 13.3164Z"/>
</mask>
<path d="M472.377 490.599L438.591 13.2458L436.596 13.387L470.382 490.74L472.377 490.599Z" fill="#110D60" mask="url(#path-227-inside-114_933_518)"/>
<mask id="path-229-inside-115_933_518" fill="white">
<path d="M524.602 446.796L479.653 484.303L440.775 10.9648"/>
</mask>
<path d="M479.653 484.303L478.656 484.385L478.814 486.305L480.294 485.071L479.653 484.303ZM523.962 446.028L479.012 483.535L480.294 485.071L525.243 447.564L523.962 446.028ZM480.65 484.221L441.772 10.883L439.779 11.0467L478.656 484.385L480.65 484.221Z" fill="#110D60" mask="url(#path-229-inside-115_933_518)"/>
<mask id="path-231-inside-116_933_518" fill="white">
<path d="M436.076 519.753L428.486 19.3379Z"/>
</mask>
<path d="M437.076 519.738L429.486 19.3227L427.486 19.3531L435.076 519.768L437.076 519.738Z" fill="#110D60" mask="url(#path-231-inside-116_933_518)"/>
<mask id="path-233-inside-117_933_518" fill="white">
<path d="M448.953 509.129L431.375 16.9883Z"/>
</mask>
<path d="M449.953 509.093L432.374 16.9526L430.376 17.024L447.954 509.164L449.953 509.093Z" fill="#110D60" mask="url(#path-233-inside-117_933_518)"/>
<mask id="path-235-inside-118_933_518" fill="white">
<path d="M434.41 14.4414L460.557 500.363Z"/>
</mask>
<path d="M433.412 14.4951L459.559 500.417L461.556 500.31L435.409 14.3877L433.412 14.4951Z" fill="#110D60" mask="url(#path-235-inside-118_933_518)"/>
<mask id="path-237-inside-119_933_518" fill="white">
<path d="M199.04 945.402L64.0449 1059.1V1398.47"/>
</mask>
<path d="M64.0449 1059.1L63.4007 1058.33L63.0449 1058.63V1059.1H64.0449ZM198.395 944.637L63.4007 1058.33L64.6891 1059.86L199.684 946.167L198.395 944.637ZM63.0449 1059.1V1398.47H65.0449V1059.1H63.0449Z" fill="#110D60" mask="url(#path-237-inside-119_933_518)"/>
<mask id="path-239-inside-120_933_518" fill="white">
<path d="M207.707 955.045L73.6914 1067.96V1407.48"/>
</mask>
<path d="M73.6914 1067.96L73.0471 1067.19L72.6914 1067.49V1067.96H73.6914ZM207.062 954.28L73.0471 1067.19L74.3357 1068.72L208.351 955.81L207.062 954.28ZM72.6914 1067.96V1407.48H74.6914V1067.96H72.6914Z" fill="#110D60" mask="url(#path-239-inside-120_933_518)"/>
<mask id="path-241-inside-121_933_518" fill="white">
<path d="M217.107 963.277L83.1406 1076.14V1415.81"/>
</mask>
<path d="M83.1406 1076.14L82.4963 1075.38L82.1406 1075.67V1076.14H83.1406ZM216.463 962.513L82.4963 1075.38L83.7849 1076.9L217.751 964.042L216.463 962.513ZM82.1406 1076.14V1415.81H84.1406V1076.14H82.1406Z" fill="#110D60" mask="url(#path-241-inside-121_933_518)"/>
<mask id="path-243-inside-122_933_518" fill="white">
<path d="M226.558 971.5L92.5918 1084.41V1424.18"/>
</mask>
<path d="M92.5918 1084.41L91.9473 1083.65L91.5918 1083.95V1084.41H92.5918ZM225.914 970.735L91.9473 1083.65L93.2363 1085.18L227.203 972.265L225.914 970.735ZM91.5918 1084.41V1424.18H93.5918V1084.41H91.5918Z" fill="#110D60" mask="url(#path-243-inside-122_933_518)"/>
<mask id="path-245-inside-123_933_518" fill="white">
<path d="M236.988 980.605L102.973 1093.52V1433.33"/>
</mask>
<path d="M102.973 1093.52L102.328 1092.75L101.973 1093.05V1093.52H102.973ZM236.344 979.841L102.328 1092.75L103.617 1094.28L237.632 981.37L236.344 979.841ZM101.973 1093.52V1433.33H103.973V1093.52H101.973Z" fill="#110D60" mask="url(#path-245-inside-123_933_518)"/>
<mask id="path-247-inside-124_933_518" fill="white">
<path d="M247.515 989.812L113.549 1102.72V1442.68"/>
</mask>
<path d="M113.549 1102.72L112.904 1101.96L112.549 1102.26V1102.72H113.549ZM246.871 989.048L112.904 1101.96L114.193 1103.49L248.16 990.577L246.871 989.048ZM112.549 1102.72V1442.68H114.549V1102.72H112.549Z" fill="#110D60" mask="url(#path-247-inside-124_933_518)"/>
<mask id="path-249-inside-125_933_518" fill="white">
<path d="M257.503 998.531L123.537 1111.44V1451.5"/>
</mask>
<path d="M123.537 1111.44L122.893 1110.68L122.537 1110.98V1111.44H123.537ZM256.859 997.767L122.893 1110.68L124.182 1112.21L258.148 999.296L256.859 997.767ZM122.537 1111.44V1451.5H124.537V1111.44H122.537Z" fill="#110D60" mask="url(#path-249-inside-125_933_518)"/>
<mask id="path-251-inside-126_933_518" fill="white">
<path d="M268.863 1008.42L134.848 1121.33V1461.49"/>
</mask>
<path d="M134.848 1121.33L134.203 1120.57L133.848 1120.87V1121.33H134.848ZM268.219 1007.66L134.203 1120.57L135.492 1122.1L269.507 1009.18L268.219 1007.66ZM133.848 1121.33V1461.49H135.848V1121.33H133.848Z" fill="#110D60" mask="url(#path-251-inside-126_933_518)"/>
<mask id="path-253-inside-127_933_518" fill="white">
<path d="M279.634 1017.87L145.619 1130.73V1471.04"/>
</mask>
<path d="M145.619 1130.73L144.975 1129.97L144.619 1130.27V1130.73H145.619ZM278.99 1017.11L144.975 1129.97L146.263 1131.5L280.279 1018.64L278.99 1017.11ZM144.619 1130.73V1471.04H146.619V1130.73H144.619Z" fill="#110D60" mask="url(#path-253-inside-127_933_518)"/>
<mask id="path-255-inside-128_933_518" fill="white">
<path d="M291.484 1028.21L157.518 1141.12V1481.52"/>
</mask>
<path d="M157.518 1141.12L156.873 1140.35L156.518 1140.65V1141.12H157.518ZM290.839 1027.44L156.873 1140.35L158.162 1141.88L292.128 1028.97L290.839 1027.44ZM156.518 1141.12V1481.52H158.518V1141.12H156.518Z" fill="#110D60" mask="url(#path-255-inside-128_933_518)"/>
<mask id="path-257-inside-129_933_518" fill="white">
<path d="M303.187 1038.44L169.074 1151.45V1491.7"/>
</mask>
<path d="M169.074 1151.45L168.43 1150.68L168.074 1150.98V1151.45H169.074ZM302.543 1037.67L168.43 1150.68L169.719 1152.21L303.832 1039.2L302.543 1037.67ZM168.074 1151.45V1491.7H170.074V1151.45H168.074Z" fill="#110D60" mask="url(#path-257-inside-129_933_518)"/>
<mask id="path-259-inside-130_933_518" fill="white">
<path d="M314.791 1048.53L180.531 1161.63V1501.84"/>
</mask>
<path d="M180.531 1161.63L179.887 1160.87L179.531 1161.17V1161.63H180.531ZM314.147 1047.76L179.887 1160.87L181.176 1162.4L315.436 1049.29L314.147 1047.76ZM179.531 1161.63V1501.84H181.531V1161.63H179.531Z" fill="#110D60" mask="url(#path-259-inside-130_933_518)"/>
<mask id="path-261-inside-131_933_518" fill="white">
<path d="M328.257 1060.32L194.291 1173.23V1511.92"/>
</mask>
<path d="M194.291 1173.23L193.647 1172.47L193.291 1172.77V1173.23H194.291ZM327.613 1059.56L193.647 1172.47L194.935 1174L328.902 1061.09L327.613 1059.56ZM193.291 1173.23V1511.92H195.291V1173.23H193.291Z" fill="#110D60" mask="url(#path-261-inside-131_933_518)"/>
<mask id="path-263-inside-132_933_518" fill="white">
<path d="M342.259 1072.52L208.244 1185.43V1526.32"/>
</mask>
<path d="M208.244 1185.43L207.6 1184.66L207.244 1184.96V1185.43H208.244ZM341.615 1071.75L207.6 1184.66L208.888 1186.19L342.904 1073.28L341.615 1071.75ZM207.244 1185.43V1526.32H209.244V1185.43H207.244Z" fill="#110D60" mask="url(#path-263-inside-132_933_518)"/>
<mask id="path-265-inside-133_933_518" fill="white">
<path d="M355.873 1084.46L221.906 1197.33V1538.36"/>
</mask>
<path d="M221.906 1197.33L221.262 1196.56L220.906 1196.86V1197.33H221.906ZM355.228 1083.7L221.262 1196.56L222.551 1198.09L356.517 1085.23L355.228 1083.7ZM220.906 1197.33V1538.36H222.906V1197.33H220.906Z" fill="#110D60" mask="url(#path-265-inside-133_933_518)"/>
<mask id="path-267-inside-134_933_518" fill="white">
<path d="M369.289 1096.16L235.322 1209.03V1550.21"/>
</mask>
<path d="M235.322 1209.03L234.678 1208.26L234.322 1208.56V1209.03H235.322ZM368.644 1095.4L234.678 1208.26L235.967 1209.79L369.933 1096.93L368.644 1095.4ZM234.322 1209.03V1550.21H236.322V1209.03H234.322Z" fill="#110D60" mask="url(#path-267-inside-134_933_518)"/>
<mask id="path-269-inside-135_933_518" fill="white">
<path d="M382.607 1107.77L248.592 1220.63V1561.96"/>
</mask>
<path d="M248.592 1220.63L247.948 1219.87L247.592 1220.17V1220.63H248.592ZM381.963 1107L247.948 1219.87L249.236 1221.4L383.251 1108.53L381.963 1107ZM247.592 1220.63V1561.96H249.592V1220.63H247.592Z" fill="#110D60" mask="url(#path-269-inside-135_933_518)"/>
<mask id="path-271-inside-136_933_518" fill="white">
<path d="M397.052 1120.4L263.086 1233.26V1574.74"/>
</mask>
<path d="M263.086 1233.26L262.442 1232.5L262.086 1232.8V1233.26H263.086ZM396.408 1119.64L262.442 1232.5L263.73 1234.03L397.697 1121.17L396.408 1119.64ZM262.086 1233.26V1574.74H264.086V1233.26H262.086Z" fill="#110D60" mask="url(#path-271-inside-136_933_518)"/>
<mask id="path-273-inside-137_933_518" fill="white">
<path d="M282.328 1599.37V1239.54Z"/>
</mask>
<path d="M283.328 1599.37V1239.54H281.328V1599.37H283.328Z" fill="#110D60" mask="url(#path-273-inside-137_933_518)"/>
<mask id="path-275-inside-138_933_518" fill="white">
<path d="M303.578 1221.32V1618.12Z"/>
</mask>
<path d="M302.578 1221.32V1618.12H304.578V1221.32H302.578Z" fill="#110D60" mask="url(#path-275-inside-138_933_518)"/>
<mask id="path-277-inside-139_933_518" fill="white">
<path d="M825.049 972.428L396.465 1326.29V1692.55"/>
</mask>
<path d="M396.465 1326.29L395.828 1325.52L395.465 1325.82V1326.29H396.465ZM824.413 971.657L395.828 1325.52L397.102 1327.06L825.686 973.199L824.413 971.657ZM395.465 1326.29V1692.55H397.465V1326.29H395.465Z" fill="#110D60" mask="url(#path-277-inside-139_933_518)"/>
<mask id="path-279-inside-140_933_518" fill="white">
<path d="M841.159 986.578L412.574 1340.44V1706.75"/>
</mask>
<path d="M412.574 1340.44L411.938 1339.67L411.574 1339.97V1340.44H412.574ZM840.522 985.807L411.938 1339.67L413.211 1341.21L841.796 987.349L840.522 985.807ZM411.574 1340.44V1706.75H413.574V1340.44H411.574Z" fill="#110D60" mask="url(#path-279-inside-140_933_518)"/>
<mask id="path-281-inside-141_933_518" fill="white">
<path d="M857.807 1001.22L429.223 1355.09V1721.49"/>
</mask>
<path d="M429.223 1355.09L428.586 1354.31L428.223 1354.61V1355.09H429.223ZM857.171 1000.45L428.586 1354.31L429.859 1355.86L858.444 1001.99L857.171 1000.45ZM428.223 1355.09V1721.49H430.223V1355.09H428.223Z" fill="#110D60" mask="url(#path-281-inside-141_933_518)"/>
<mask id="path-283-inside-142_933_518" fill="white">
<path d="M862.262 1025.95L445.869 1369.72V1736.17"/>
</mask>
<path d="M445.869 1369.72L445.232 1368.95L444.869 1369.25V1369.72H445.869ZM861.625 1025.17L445.232 1368.95L446.506 1370.49L862.898 1026.72L861.625 1025.17ZM444.869 1369.72V1736.17H446.869V1369.72H444.869Z" fill="#110D60" mask="url(#path-283-inside-142_933_518)"/>
<mask id="path-285-inside-143_933_518" fill="white">
<path d="M862.214 1055.37L463.105 1384.85V1751.4"/>
</mask>
<path d="M463.105 1384.85L462.469 1384.08L462.105 1384.38V1384.85H463.105ZM861.577 1054.6L462.469 1384.08L463.742 1385.62L862.85 1056.14L861.577 1054.6ZM462.105 1384.85V1751.4H464.105V1384.85H462.105Z" fill="#110D60" mask="url(#path-285-inside-143_933_518)"/>
<mask id="path-287-inside-144_933_518" fill="white">
<path d="M808.94 958.277L380.551 1312V1678.49"/>
</mask>
<path d="M380.551 1312L379.914 1311.22L379.551 1311.52V1312H380.551ZM808.303 957.506L379.914 1311.22L381.187 1312.77L809.576 959.048L808.303 957.506ZM379.551 1312V1678.49H381.551V1312H379.551Z" fill="#110D60" mask="url(#path-287-inside-144_933_518)"/>
<mask id="path-289-inside-145_933_518" fill="white">
<path d="M524.996 1353.52V1713.94Z"/>
</mask>
<path d="M523.996 1353.52V1713.94H525.996V1353.52H523.996Z" fill="#110D60" mask="url(#path-289-inside-145_933_518)"/>
<mask id="path-291-inside-146_933_518" fill="white">
<path d="M540.764 1340.49V1701.01Z"/>
</mask>
<path d="M539.764 1340.49V1701.01H541.764V1340.49H539.764Z" fill="#110D60" mask="url(#path-291-inside-146_933_518)"/>
<mask id="path-293-inside-147_933_518" fill="white">
<path d="M566.078 1319.98V1680.7Z"/>
</mask>
<path d="M565.078 1319.98V1680.7H567.078V1319.98H565.078Z" fill="#110D60" mask="url(#path-293-inside-147_933_518)"/>
<mask id="path-295-inside-148_933_518" fill="white">
<path d="M575.234 1312.44V1672.96Z"/>
</mask>
<path d="M574.234 1312.44V1672.96H576.234V1312.44H574.234Z" fill="#110D60" mask="url(#path-295-inside-148_933_518)"/>
<mask id="path-297-inside-149_933_518" fill="white">
<path d="M594.184 1296.77V1657.69Z"/>
</mask>
<path d="M593.184 1296.77V1657.69H595.184V1296.77H593.184Z" fill="#110D60" mask="url(#path-297-inside-149_933_518)"/>
<mask id="path-299-inside-150_933_518" fill="white">
<path d="M485.385 1386.17V1746.8Z"/>
</mask>
<path d="M484.385 1386.17V1746.8H486.385V1386.17H484.385Z" fill="#110D60" mask="url(#path-299-inside-150_933_518)"/>
<mask id="path-301-inside-151_933_518" fill="white">
<path d="M497.674 1376.04V1736.71Z"/>
</mask>
<path d="M496.674 1376.04V1736.71H498.674V1376.04H496.674Z" fill="#110D60" mask="url(#path-301-inside-151_933_518)"/>
<mask id="path-303-inside-152_933_518" fill="white">
<path d="M510.895 1365.17V1725.89Z"/>
</mask>
<path d="M509.895 1365.17V1725.89H511.895V1365.17H509.895Z" fill="#110D60" mask="url(#path-303-inside-152_933_518)"/>
<mask id="path-305-inside-153_933_518" fill="white">
<path d="M517.75 1359.49V1720.31Z"/>
</mask>
<path d="M516.75 1359.49V1720.31H518.75V1359.49H516.75Z" fill="#110D60" mask="url(#path-305-inside-153_933_518)"/>
<mask id="path-307-inside-154_933_518" fill="white">
<path d="M532.732 1347.1V1707.63Z"/>
</mask>
<path d="M531.732 1347.1V1707.63H533.732V1347.1H531.732Z" fill="#110D60" mask="url(#path-307-inside-154_933_518)"/>
<mask id="path-309-inside-155_933_518" fill="white">
<path d="M548.549 1334.08V1694.66Z"/>
</mask>
<path d="M547.549 1334.08V1694.66H549.549V1334.08H547.549Z" fill="#110D60" mask="url(#path-309-inside-155_933_518)"/>
<mask id="path-311-inside-156_933_518" fill="white">
<path d="M584.439 1304.85V1665.71Z"/>
</mask>
<path d="M583.439 1304.85V1665.71H585.439V1304.85H583.439Z" fill="#110D60" mask="url(#path-311-inside-156_933_518)"/>
<mask id="path-313-inside-157_933_518" fill="white">
<path d="M557.41 1327.12V1687.8Z"/>
</mask>
<path d="M556.41 1327.12V1687.8H558.41V1327.12H556.41Z" fill="#110D60" mask="url(#path-313-inside-157_933_518)"/>
<mask id="path-315-inside-158_933_518" fill="white">
<path d="M474.709 1755.51V1394.99Z"/>
</mask>
<path d="M475.709 1755.51V1394.99H473.709V1755.51H475.709Z" fill="#110D60" mask="url(#path-315-inside-158_933_518)"/>
<mask id="path-317-inside-159_933_518" fill="white">
<path d="M479.9 1751.3V1390.73Z"/>
</mask>
<path d="M480.9 1751.3V1390.73H478.9V1751.3H480.9Z" fill="#110D60" mask="url(#path-317-inside-159_933_518)"/>
<mask id="path-319-inside-160_933_518" fill="white">
<path d="M491.357 1741.9V1381.28Z"/>
</mask>
<path d="M492.357 1741.9V1381.28H490.357V1741.9H492.357Z" fill="#110D60" mask="url(#path-319-inside-160_933_518)"/>
<mask id="path-321-inside-161_933_518" fill="white">
<path d="M503.99 1731.52V1370.8Z"/>
</mask>
<path d="M504.99 1731.52V1370.8H502.99V1731.52H504.99Z" fill="#110D60" mask="url(#path-321-inside-161_933_518)"/>
<mask id="path-323-inside-162_933_518" fill="white">
<path d="M747.832 802.178L426.724 1064.97V1146.25V1226.06L353.082 1287.71V1648.48"/>
</mask>
<path d="M426.724 1064.97L426.091 1064.2L425.724 1064.5V1064.97H426.724ZM426.724 1226.06L427.366 1226.83L427.724 1226.53V1226.06H426.724ZM353.082 1287.71L352.44 1286.94L352.082 1287.24V1287.71H353.082ZM747.199 801.404L426.091 1064.2L427.358 1065.74L748.466 802.952L747.199 801.404ZM425.724 1064.97V1146.25H427.724V1064.97H425.724ZM425.724 1146.25V1226.06H427.724V1146.25H425.724ZM426.082 1225.29L352.44 1286.94L353.724 1288.47L427.366 1226.83L426.082 1225.29ZM352.082 1287.71V1648.48H354.082V1287.71H352.082Z" fill="#110D60" mask="url(#path-323-inside-162_933_518)"/>
<mask id="path-325-inside-163_933_518" fill="white">
<path d="M336.092 1628.16V1273.95L407.188 1214.07V1049.15L730.303 788.957"/>
</mask>
<path d="M336.092 1273.95L335.448 1273.18L335.092 1273.48V1273.95H336.092ZM407.188 1214.07L407.832 1214.83L408.188 1214.53V1214.07H407.188ZM407.188 1049.15L406.561 1048.37L406.188 1048.67V1049.15H407.188ZM337.092 1628.16V1273.95H335.092V1628.16H337.092ZM336.736 1274.71L407.832 1214.83L406.544 1213.3L335.448 1273.18L336.736 1274.71ZM408.188 1214.07V1049.15H406.188V1214.07H408.188ZM407.815 1049.93L730.931 789.736L729.676 788.178L406.561 1048.37L407.815 1049.93Z" fill="#110D60" mask="url(#path-325-inside-163_933_518)"/>
<mask id="path-327-inside-164_933_518" fill="white">
<path d="M321.988 1205.79V1637.61Z"/>
</mask>
<path d="M320.988 1205.79V1637.61H322.988V1205.79H320.988Z" fill="#110D60" mask="url(#path-327-inside-164_933_518)"/>
<mask id="path-329-inside-165_933_518" fill="white">
<path d="M340.596 1254.86V1189.54Z"/>
</mask>
<path d="M341.596 1254.86V1189.54H339.596V1254.86H341.596Z" fill="#110D60" mask="url(#path-329-inside-165_933_518)"/>
<mask id="path-331-inside-166_933_518" fill="white">
<path d="M357.242 1239.04V1174.85Z"/>
</mask>
<path d="M358.242 1239.04V1174.85H356.242V1239.04H358.242Z" fill="#110D60" mask="url(#path-331-inside-166_933_518)"/>
<mask id="path-333-inside-167_933_518" fill="white">
<path d="M374.869 1222.34V1160.11Z"/>
</mask>
<path d="M375.869 1222.34V1160.11H373.869V1222.34H375.869Z" fill="#110D60" mask="url(#path-333-inside-167_933_518)"/>
<mask id="path-335-inside-168_933_518" fill="white">
<path d="M391.859 1146.94V1210.88Z"/>
</mask>
<path d="M390.859 1146.94V1210.88H392.859V1146.94H390.859Z" fill="#110D60" mask="url(#path-335-inside-168_933_518)"/>
</g>
</svg>
