<svg width="21" height="21" viewBox="0 0 21 21" fill="none" xmlns="http://www.w3.org/2000/svg">
<path fill-rule="evenodd" clip-rule="evenodd" d="M21 10.4999L20.9984 10.4999L20.9937 10.5L20.9858 10.5002L20.9748 10.5006L20.9607 10.5012L20.9434 10.5022L20.923 10.5035L20.8996 10.5053L20.873 10.5076L20.8434 10.5104L20.8108 10.5138L20.7751 10.5179L20.7364 10.5228L20.6948 10.5285L20.6502 10.535L20.6028 10.5424L20.5524 10.5508L20.4993 10.5602L20.4433 10.5707L20.3845 10.5823L20.3231 10.595L20.2589 10.6091L20.1921 10.6243L20.1228 10.641L20.0509 10.6589L19.9765 10.6783L19.8996 10.6992L19.8204 10.7215L19.7388 10.7454L19.655 10.7709L19.5689 10.798L19.4807 10.8268L19.3904 10.8572L19.298 10.8894L19.2037 10.9233L19.1074 10.959L19.0093 10.9964L18.9094 11.0358L18.8078 11.0769L18.7045 11.12L18.5997 11.1649L18.4933 11.2118L18.3855 11.2606L18.2764 11.3113L18.1659 11.364L18.0542 11.4187L17.9414 11.4753L17.8274 11.5339L17.7125 11.5944L17.5966 11.657L17.4799 11.7215L17.3624 11.788L17.2442 11.8565L17.1253 11.9269L17.0059 11.9993L16.886 12.0737L16.7657 12.1499L16.6451 12.2281L16.5242 12.3082L16.4031 12.3901L16.2819 12.474L16.1607 12.5596L16.0395 12.6471L15.9184 12.7363L15.7974 12.8273L15.6767 12.92L15.5564 13.0143L15.4364 13.1104L15.3169 13.208L15.1979 13.3072L15.0795 13.408L14.9617 13.5102L14.8447 13.6139L14.7285 13.719L14.6131 13.8254L14.4986 13.9331L14.3851 14.0421L14.2726 14.1523L14.1612 14.2636L14.0509 14.376L13.9418 14.4895L13.834 14.6039L13.7274 14.7192L13.6223 14.8354L13.5185 14.9524L13.4161 15.07L13.3152 15.1884L13.2159 15.3074L13.1181 15.4268L13.022 15.5468L12.9275 15.6671L12.8346 15.7878L12.7435 15.9087L12.6541 16.0298L12.5665 16.151L12.4808 16.2722L12.3968 16.3934L12.3147 16.5145L12.2345 16.6354L12.1561 16.7561L12.0797 16.8764L12.0052 16.9964L11.9327 17.1158L11.8621 17.2347L11.7934 17.353L11.7268 17.4705L11.6621 17.5873L11.5994 17.7033L11.5387 17.8183L11.4799 17.9323L11.4231 18.0452L11.3683 18.157L11.3155 18.2676L11.2646 18.3769L11.2157 18.4848L11.1687 18.5912L11.1236 18.6962L11.0804 18.7996L11.039 18.9013L10.9996 19.0014L10.9619 19.0996L10.9261 19.196L10.892 19.2905L10.8597 19.3831L10.8292 19.4736L10.8003 19.5619L10.7731 19.6482L10.7475 19.7322L10.7234 19.8139L10.701 19.8934L10.68 19.9704L10.6605 20.045L10.6424 20.1171L10.6257 20.1867L10.6103 20.2537L10.5962 20.318L10.5833 20.3797L10.5716 20.4386L10.561 20.4949L10.5515 20.5483L10.5431 20.5988L10.5356 20.6465L10.529 20.6913L10.5233 20.7332L10.5184 20.7721L10.5142 20.808L10.5107 20.8409L10.5078 20.8707L10.5055 20.8975L10.5037 20.9212L10.5023 20.9419L10.5014 20.9594L10.5007 20.9738L10.5003 20.985L10.5001 20.9931L10.5 20.9981L10.5 20.9999L10.5 20.9986L10.4999 20.9941L10.4997 20.9865L10.4993 20.9758L10.4987 20.9619L10.4978 20.9449L10.4965 20.9247L10.4948 20.9015L10.4926 20.8752L10.4898 20.8458L10.4864 20.8134L10.4823 20.778L10.4775 20.7396L10.4719 20.6982L10.4655 20.6539L10.4581 20.6066L10.4498 20.5565L10.4405 20.5035L10.4301 20.4478L10.4186 20.3893L10.4059 20.328L10.392 20.2641L10.3768 20.1975L10.3603 20.1283L10.3425 20.0566L10.3232 19.9824L10.3024 19.9058L10.2802 19.8267L10.2564 19.7454L10.2311 19.6617L10.2041 19.5758L10.1755 19.4878L10.1452 19.3976L10.1132 19.3054L10.0794 19.2112L10.0439 19.1151L10.0065 19.0171L9.96734 18.9174L9.92631 18.8159L9.88341 18.7128L9.83861 18.6081L9.7919 18.5018L9.74327 18.3941L9.69269 18.2851L9.64017 18.1747L9.58568 18.0631L9.52922 17.9503L9.47078 17.8365L9.41037 17.7216L9.34798 17.6059L9.28361 17.4892L9.21726 17.3717L9.14894 17.2536L9.07866 17.1348L9.00642 17.0154L8.93224 16.8956L8.85613 16.7753L8.7781 16.6547L8.69817 16.5338L8.61636 16.4127L8.5327 16.2915L8.4472 16.1703L8.35989 16.0491L8.2708 15.9279L8.17996 15.807L8.0874 15.6863L7.99315 15.5659L7.89725 15.4459L7.79973 15.3263L7.70064 15.2073L7.60002 15.0889L7.4979 14.9711L7.39433 14.854L7.28936 14.7377L7.18303 14.6222L7.0754 14.5076L6.96652 14.394L6.85643 14.2814L6.7452 14.1699L6.63287 14.0596L6.51951 13.9504L6.40517 13.8425L6.28992 13.7358L6.17381 13.6305L6.0569 13.5266L5.93926 13.4242L5.82096 13.3232L5.70205 13.2237L5.58262 13.1258L5.46271 13.0295L5.34241 12.9349L5.22177 12.8419L5.10088 12.7507L4.9798 12.6611L4.85861 12.5734L4.73737 12.4875L4.61615 12.4034L4.49504 12.3211L4.37411 12.2407L4.25342 12.1623L4.13306 12.0857L4.01309 12.011L3.8936 11.9383L3.77466 11.8676L3.65633 11.7988L3.53871 11.732L3.42185 11.6671L3.30585 11.6043L3.19076 11.5434L3.07667 11.4845L2.96364 11.4275L2.85176 11.3726L2.74109 11.3196L2.63171 11.2685L2.52369 11.2194L2.4171 11.1723L2.31201 11.127L2.20849 11.0837L2.10661 11.0422L2.00644 11.0026L1.90804 10.9648L1.81148 10.9288L1.71683 10.8946L1.62414 10.8622L1.53349 10.8315L1.44493 10.8025L1.35852 10.7751L1.27432 10.7494L1.1924 10.7252L1.11279 10.7026L1.03557 10.6816L0.960777 10.6619L0.888469 10.6437L0.818694 10.6269L0.7515 10.6114L0.686933 10.5972L0.625039 10.5842L0.56586 10.5724L0.509436 10.5618L0.455807 10.5522L0.405011 10.5437L0.357081 10.5361L0.312053 10.5294L0.269956 10.5237L0.230821 10.5187L0.194674 10.5144L0.161541 10.5109L0.131445 10.508L0.104407 10.5056L0.080446 10.5038L0.0595782 10.5024L0.0418185 10.5014L0.0271793 10.5007L0.0156709 10.5003L0.00730139 10.5L0.00207652 10.4999L0 10.4999L0.00107327 10.4999L0.00529558 10.4999L0.012664 10.4997L0.0231733 10.4993L0.0368162 10.4987L0.0535832 10.4978L0.0734624 10.4966L0.0964401 10.4949L0.1225 10.4927L0.151624 10.49L0.183792 10.4866L0.218982 10.4826L0.257168 10.4779L0.298324 10.4724L0.342422 10.466L0.389431 10.4587L0.439318 10.4505L0.492048 10.4412L0.547586 10.4309L0.605892 10.4195L0.666926 10.4069L0.730646 10.3931L0.797008 10.378L0.865966 10.3616L0.937473 10.3439L1.01148 10.3247L1.08793 10.3041L1.16678 10.282L1.24798 10.2583L1.33146 10.2331L1.41717 10.2063L1.50505 10.1778L1.59504 10.1476L1.68709 10.1157L1.78112 10.0821L1.87708 10.0467L1.9749 10.0095L2.07452 9.97048L2.17586 9.9296L2.27887 9.88685L2.38346 9.8422L2.48958 9.79565L2.59716 9.74716L2.70611 9.69674L2.81637 9.64437L2.92788 9.59004L3.04054 9.53374L3.1543 9.47546L3.26908 9.41521L3.38481 9.35297L3.5014 9.28876L3.61879 9.22257L3.7369 9.15441L3.85565 9.08428L3.97498 9.0122L4.0948 8.93817L4.21504 8.86221L4.33563 8.78433L4.4565 8.70455L4.57756 8.6229L4.69875 8.53938L4.81999 8.45402L4.94121 8.36686L5.06233 8.27791L5.18329 8.18721L5.30401 8.09478L5.42443 8.00067L5.54447 7.9049L5.66406 7.80751L5.78315 7.70854L5.90165 7.60804L6.01951 7.50603L6.13665 7.40258L6.25302 7.29772L6.36856 7.1915L6.4832 7.08397L6.59687 6.97519L6.70954 6.86519L6.82112 6.75405L6.93158 6.64181L7.04085 6.52853L7.14889 6.41426L7.25564 6.29908L7.36104 6.18303L7.46506 6.06619L7.56765 5.94861L7.66875 5.83035L7.76834 5.71149L7.86636 5.5921L7.96278 5.47222L8.05756 5.35195L8.15066 5.23134L8.24205 5.11047L8.33171 4.9894L8.41958 4.86821L8.50566 4.74697L8.58991 4.62575L8.67231 4.50463L8.75284 4.38368L8.83148 4.26297L8.9082 4.14258L8.983 4.02258L9.05586 3.90305L9.12677 3.78406L9.19571 3.66568L9.26269 3.548L9.32769 3.43108L9.39071 3.315L9.45176 3.19984L9.51082 3.08566L9.56791 2.97255L9.62302 2.86058L9.67617 2.74981L9.72737 2.64033L9.77662 2.53219L9.82394 2.42549L9.86935 2.32028L9.91285 2.21663L9.95447 2.11462L9.99424 2.0143L10.0322 1.91576L10.0683 1.81905L10.1026 1.72425L10.1352 1.6314L10.166 1.54058L10.1952 1.45185L10.2227 1.36527L10.2485 1.2809L10.2728 1.19879L10.2955 1.119L10.3167 1.04158L10.3365 0.966593L10.3548 0.894085L10.3717 0.824106L10.3873 0.756705L10.4016 0.691928L10.4147 0.629819L10.4266 0.570422L10.4373 0.513777L10.447 0.459925L10.4556 0.408901L10.4633 0.360742L10.47 0.315482L10.4758 0.27315L10.4809 0.233778L10.4852 0.197393L10.4888 0.164019L10.4917 0.13368L10.4941 0.106398L10.496 0.082191L10.4974 0.0610763L10.4985 0.0430686L10.4992 0.0281805L10.4996 0.0164225L10.4999 0.00780277L10.5 0.00232732L10.5 0L10.5 0.000822442L10.5 0.00479407L10.5002 0.0119121L10.5005 0.0221716L10.5011 0.0355652L10.502 0.0520838L10.5032 0.0717157L10.5049 0.0944472L10.507 0.120262L10.5097 0.149143L10.513 0.18107L10.5169 0.216019L10.5216 0.253968L10.5271 0.294889L10.5334 0.338753L10.5406 0.385532L10.5487 0.435191L10.5579 0.487696L10.5681 0.543011L10.5794 0.601098L10.5919 0.661917L10.6056 0.725425L10.6206 0.791578L10.6369 0.860331L10.6546 0.931636L10.6736 1.00545L10.6941 1.08171L10.7161 1.16037L10.7396 1.24138L10.7647 1.32468L10.7914 1.41021L10.8198 1.49792L10.8498 1.58775L10.8816 1.67964L10.9151 1.77351L10.9503 1.86932L10.9874 1.967L11.0263 2.06647L11.067 2.16768L11.1096 2.27055L11.1541 2.37503L11.2005 2.48103L11.2488 2.58849L11.2991 2.69734L11.3513 2.8075L11.4055 2.9189L11.4616 3.03148L11.5197 3.14516L11.5798 3.25986L11.6419 3.37551L11.706 3.49203L11.772 3.60936L11.84 3.72742L11.91 3.84612L11.9819 3.96541L12.0558 4.08519L12.1316 4.20541L12.2093 4.32597L12.2889 4.44682L12.3704 4.56787L12.4538 4.68905L12.539 4.81028L12.626 4.93151L12.7149 5.05264L12.8054 5.17362L12.8977 5.29436L12.9917 5.4148L13.0873 5.53488L13.1846 5.65451L13.2834 5.77363L13.3838 5.89219L13.4857 6.0101L13.589 6.1273L13.6938 6.24374L13.7999 6.35934L13.9073 6.47405L14.016 6.58781L14.1259 6.70055L14.237 6.81223L14.3491 6.92278L14.4623 7.03215L14.5765 7.14028L14.6916 7.24714L14.8076 7.35265L14.9244 7.45678L15.0419 7.55948L15.1601 7.66071L15.2789 7.76042L15.3983 7.85856L15.5181 7.95511L15.6384 8.05002L15.759 8.14326L15.8798 8.23479L16.0009 8.32458L16.122 8.4126L16.2433 8.49882L16.3645 8.58322L16.4856 8.66577L16.6066 8.74645L16.7273 8.82524L16.8478 8.90212L16.9678 8.97707L17.0874 9.05008L17.2064 9.12115L17.3248 9.19025L17.4426 9.25738L17.5595 9.32254L17.6757 9.38572L17.7909 9.44692L17.9052 9.50614L18.0184 9.56338L18.1305 9.61866L18.2413 9.67196L18.3509 9.72332L18.4592 9.77272L18.566 9.8202L18.6713 9.86575L18.7751 9.90941L18.8772 9.95118L18.9777 9.99109L19.0764 10.0292L19.1732 10.0654L19.2682 10.0999L19.3612 10.1326L19.4522 10.1636L19.5411 10.1929L19.6278 10.2205L19.7124 10.2465L19.7947 10.2709L19.8746 10.2937L19.9523 10.315L20.0274 10.3349L20.1001 10.3533L20.1703 10.3704L20.2379 10.3861L20.3029 10.4005L20.3652 10.4137L20.4249 10.4256L20.4817 10.4365L20.5358 10.4462L20.587 10.4549L20.6354 10.4626L20.6809 10.4694L20.7235 10.4753L20.7631 10.4805L20.7997 10.4848L20.8333 10.4885L20.8639 10.4915L20.8915 10.4939L20.9159 10.4958L20.9373 10.4973L20.9555 10.4984L20.9707 10.4991L20.9827 10.4995L20.9915 10.4998L20.9973 10.4999L20.9998 10.4999L21 10.4999Z" fill="#D2AE6D"/>
</svg>
