<svg width="38" height="30" viewBox="0 0 38 30" fill="none" xmlns="http://www.w3.org/2000/svg">
<path fill-rule="evenodd" clip-rule="evenodd" d="M37.6243 14.8939L37.6215 14.8939L37.6131 14.894L37.5991 14.8943L37.5796 14.8948L37.5545 14.8957L37.5238 14.8971L37.4876 14.899L37.446 14.9015L37.3988 14.9047L37.3463 14.9087L37.2883 14.9136L37.2249 14.9194L37.1563 14.9263L37.0824 14.9343L37.0033 14.9436L36.919 14.9541L36.8296 14.966L36.7352 14.9793L36.6358 14.9942L36.5315 15.0106L36.4223 15.0288L36.3085 15.0486L36.1899 15.0703L36.0667 15.0939L35.939 15.1194L35.8069 15.1469L35.6705 15.1765L35.5298 15.2082L35.385 15.2421L35.2362 15.2782L35.0834 15.3167L34.9267 15.3575L34.7663 15.4006L34.6023 15.4462L34.4348 15.4943L34.2639 15.545L34.0897 15.5981L33.9124 15.6539L33.7319 15.7123L33.5486 15.7734L33.3624 15.8372L33.1736 15.9036L32.9822 15.9728L32.7884 16.0448L32.5922 16.1195L32.3939 16.197L32.1935 16.2774L31.9913 16.3605L31.7872 16.4464L31.5815 16.5351L31.3742 16.6266L31.1656 16.721L30.9557 16.8181L30.7447 16.918L30.5326 17.0207L30.3198 17.1261L30.1062 17.2343L29.892 17.3452L29.6773 17.4588L29.4623 17.5751L29.2471 17.694L29.0318 17.8154L28.8166 17.9395L28.6016 18.0661L28.3869 18.1951L28.1726 18.3266L27.9589 18.4605L27.7459 18.5967L27.5337 18.7352L27.3224 18.8759L27.1122 19.0188L26.9031 19.1639L26.6953 19.3109L26.4889 19.46L26.284 19.6109L26.0808 19.7638L25.8792 19.9183L25.6795 20.0746L25.4816 20.2325L25.2858 20.392L25.0922 20.5529L24.9007 20.7152L24.7115 20.8788L24.5248 21.0436L24.3405 21.2095L24.1588 21.3764L23.9797 21.5443L23.8033 21.713L23.6297 21.8825L23.459 22.0527L23.2911 22.2233L23.1263 22.3945L22.9645 22.566L22.8058 22.7378L22.6503 22.9097L22.498 23.0817L22.3489 23.2536L22.2031 23.4254L22.0607 23.5969L21.9216 23.768L21.7859 23.9387L21.6537 24.1088L21.5249 24.2783L21.3995 24.4469L21.2777 24.6147L21.1593 24.7815L21.0444 24.9471L20.9331 25.1116L20.8253 25.2747L20.721 25.4364L20.6202 25.5966L20.5229 25.7552L20.429 25.912L20.3387 26.067L20.2518 26.2201L20.1683 26.3711L20.0882 26.52L20.0115 26.6667L19.9381 26.811L19.8681 26.9529L19.8012 27.0923L19.7376 27.229L19.6772 27.3631L19.6198 27.4943L19.5655 27.6227L19.5143 27.7481L19.4659 27.8704L19.4205 27.9896L19.3778 28.1055L19.3379 28.2182L19.3007 28.3274L19.266 28.4332L19.2339 28.5355L19.2042 28.6342L19.1769 28.7292L19.1518 28.8205L19.129 28.908L19.1082 28.9916L19.0894 29.0714L19.0726 29.1471L19.0576 29.2188L19.0443 29.2865L19.0326 29.3501L19.0224 29.4094L19.0137 29.4646L19.0062 29.5155L19 29.5622L18.9949 29.6045L18.9908 29.6425L18.9876 29.6762L18.9852 29.7054L18.9835 29.7303L18.9823 29.7507L18.9816 29.7667L18.9812 29.7782L18.9811 29.7852L18.981 29.7878L18.981 29.7859L18.9809 29.7796L18.9806 29.7688L18.9799 29.7535L18.9788 29.7338L18.9772 29.7097L18.9749 29.6811L18.9718 29.6482L18.9679 29.6109L18.9629 29.5692L18.9569 29.5233L18.9497 29.473L18.9412 29.4185L18.9312 29.3598L18.9198 29.2969L18.9068 29.2299L18.892 29.1588L18.8755 29.0837L18.857 29.0046L18.8366 28.9216L18.814 28.8347L18.7894 28.744L18.7624 28.6496L18.7331 28.5515L18.7014 28.4498L18.6671 28.3445L18.6303 28.2358L18.5908 28.1237L18.5486 28.0082L18.5036 27.8896L18.4557 27.7678L18.4049 27.6429L18.3511 27.515L18.2943 27.3842L18.2343 27.2506L18.1712 27.1142L18.1049 26.9753L18.0353 26.8338L17.9625 26.6898L17.8863 26.5435L17.8068 26.395L17.7238 26.2443L17.6375 26.0916L17.5477 25.9369L17.4544 25.7803L17.3577 25.622L17.2574 25.4621L17.1537 25.3006L17.0464 25.1377L16.9356 24.9734L16.8213 24.8079L16.7035 24.6413L16.5822 24.4737L16.4574 24.3052L16.3292 24.1359L16.1975 23.9659L16.0623 23.7953L15.9238 23.6242L15.7819 23.4527L15.6366 23.281L15.4881 23.109L15.3362 22.9371L15.1812 22.7651L15.023 22.5933L14.8618 22.4218L14.6974 22.2506L14.5301 22.0798L14.3598 21.9096L14.1866 21.74L14.0107 21.5711L13.832 21.4031L13.6507 21.236L13.4668 21.0699L13.2805 20.9049L13.0917 20.7412L12.9006 20.5787L12.7072 20.4175L12.5118 20.2578L12.3143 20.0997L12.1148 19.9431L11.9136 19.7883L11.7105 19.6352L11.5059 19.4839L11.2997 19.3345L11.0922 19.1871L10.8833 19.0418L10.6732 18.8985L10.4621 18.7575L10.2501 18.6186L10.0372 18.482L9.82356 18.3478L9.60937 18.2159L9.39472 18.0864L9.17974 17.9595L8.96455 17.835L8.74928 17.7131L8.53407 17.5938L8.31903 17.4772L8.1043 17.3631L7.89002 17.2518L7.67631 17.1432L7.46331 17.0373L7.25114 16.9342L7.03995 16.8338L6.82986 16.7363L6.62101 16.6415L6.41354 16.5495L6.20756 16.4603L6.00322 16.374L5.80064 16.2904L5.59996 16.2096L5.40131 16.1317L5.20482 16.0565L5.01061 15.9841L4.81882 15.9145L4.62956 15.8476L4.44297 15.7834L4.25917 15.7219L4.07827 15.6631L3.90041 15.6069L3.7257 15.5533L3.55426 15.5022L3.38619 15.4537L3.22163 15.4077L3.06067 15.3642L2.90342 15.323L2.75 15.2842L2.60051 15.2477L2.45504 15.2135L2.3137 15.1814L2.17659 15.1515L2.04379 15.1236L1.9154 15.0978L1.79152 15.074L1.67221 15.052L1.55757 15.0318L1.44767 15.0134L1.3426 14.9967L1.24242 14.9816L1.1472 14.968L1.057 14.9559L0.971904 14.9451L0.891953 14.9357L0.817209 14.9275L0.747723 14.9204L0.683543 14.9144L0.624714 14.9094L0.571277 14.9053L0.52327 14.9019L0.480726 14.8993L0.443674 14.8973L0.412141 14.8959L0.386149 14.8949L0.365715 14.8943L0.350855 14.894L0.341578 14.8939L0.337891 14.8939L0.339796 14.8938L0.347293 14.8938L0.360376 14.8935L0.379036 14.893L0.403259 14.8922L0.43303 14.8909L0.468326 14.8891L0.509124 14.8867L0.555395 14.8836L0.607106 14.8797L0.664221 14.875L0.726702 14.8693L0.794503 14.8626L0.867578 14.8547L0.945875 14.8457L1.02934 14.8354L1.11792 14.8237L1.21154 14.8106L1.31015 14.796L1.41368 14.7798L1.52205 14.7619L1.63518 14.7423L1.75301 14.721L1.87545 14.6977L2.00241 14.6725L2.13381 14.6453L2.26956 14.6161L2.40957 14.5847L2.55373 14.5512L2.70195 14.5154L2.85413 14.4773L3.01017 14.4369L3.16996 14.3941L3.33339 14.3489L3.50035 14.3012L3.67073 14.251L3.84441 14.1982L4.02128 14.1428L4.20122 14.0849L4.38411 14.0242L4.56983 13.9609L4.75825 13.8948L4.94925 13.8261L5.1427 13.7546L5.33848 13.6803L5.53646 13.6032L5.73651 13.5233L5.93849 13.4407L6.14229 13.3552L6.34776 13.2669L6.55477 13.1758L6.7632 13.082L6.97291 12.9853L7.18376 12.8858L7.39563 12.7835L7.60838 12.6785L7.82188 12.5708L8.03599 12.4603L8.25059 12.3472L8.46554 12.2313L8.68072 12.1129L8.89598 11.9918L9.11121 11.8682L9.32627 11.742L9.54104 11.6133L9.75539 11.4822L9.96919 11.3487L10.1823 11.2129L10.3947 11.0747L10.6061 10.9343L10.8165 10.7918L11.0258 10.6471L11.2338 10.5003L11.4404 10.3516L11.6455 10.2009L11.8491 10.0484L12.0509 9.8941L12.251 9.73808L12.4491 9.58043L12.6452 9.42122L12.8392 9.26053L13.031 9.09845L13.2206 8.93507L13.4077 8.77046L13.5924 8.60472L13.7746 8.43793L13.9541 8.27019L14.1309 8.10159L14.3049 7.93223L14.4761 7.7622L14.6444 7.59159L14.8097 7.42051L14.972 7.24905L15.1312 7.07732L15.2872 6.90542L15.4401 6.73344L15.5896 6.5615L15.7359 6.38969L15.8789 6.21813L16.0186 6.04691L16.1548 5.87613L16.2876 5.70592L16.417 5.53636L16.5429 5.36758L16.6653 5.19967L16.7842 5.03273L16.8996 4.86689L17.0115 4.70224L17.1199 4.53888L17.2248 4.37693L17.3261 4.21648L17.424 4.05765L17.5183 3.90053L17.6092 3.74523L17.6967 3.59185L17.7807 3.44049L17.8613 3.29125L17.9386 3.14423L18.0125 2.99952L18.0831 2.85723L18.1504 2.71745L18.2146 2.58028L18.2755 2.44579L18.3333 2.3141L18.3881 2.18527L18.4399 2.05941L18.4887 1.9366L18.5346 1.81692L18.5777 1.70044L18.618 1.58726L18.6557 1.47745L18.6907 1.37108L18.7232 1.26823L18.7533 1.16897L18.781 1.07336L18.8064 0.98148L18.8296 0.89338L18.8507 0.809127L18.8698 0.728779L18.8869 0.65239L18.9023 0.580015L18.9158 0.511703L18.9278 0.447502L18.9382 0.387456L18.9471 0.331608L18.9547 0.279996L18.9611 0.232656L18.9664 0.189622L18.9707 0.150923L18.974 0.116586L18.9765 0.0866349L18.9784 0.0610916L18.9796 0.0399733L18.9804 0.0232949L18.9808 0.011068L18.981 0.00330123L18.981 0L18.9811 0.00116661L18.9811 0.00680025L18.9814 0.016897L18.982 0.0314497L18.9831 0.0504483L18.9846 0.0738794L18.9868 0.101727L18.9897 0.133971L18.9935 0.170589L18.9983 0.211556L19.0041 0.256842L19.0112 0.306417L19.0195 0.360246L19.0292 0.418291L19.0404 0.480512L19.0531 0.546866L19.0676 0.617306L19.0839 0.691783L19.102 0.770246L19.1221 0.852641L19.1443 0.93891L19.1687 1.02899L19.1953 1.12283L19.2242 1.22035L19.2555 1.3215L19.2893 1.4262L19.3258 1.53437L19.3648 1.64595L19.4066 1.76086L19.4511 1.87902L19.4986 2.00035L19.5489 2.12476L19.6022 2.25218L19.6586 2.38252L19.718 2.51568L19.7806 2.65158L19.8464 2.79013L19.9155 2.93123L19.9878 3.07479L20.0634 3.22072L20.1424 3.36891L20.2248 3.51927L20.3106 3.6717L20.3999 3.82609L20.4926 3.98236L20.5888 4.14038L20.6885 4.30007L20.7917 4.46132L20.8984 4.62402L21.0086 4.78806L21.1223 4.95335L21.2396 5.11978L21.3603 5.28723L21.4846 5.45562L21.6123 5.62482L21.7434 5.79473L21.878 5.96525L22.016 6.13627L22.1574 6.30768L22.3021 6.47939L22.4502 6.65128L22.6015 6.82325L22.756 6.9952L22.9136 7.16703L23.0744 7.33863L23.2383 7.5099L23.4052 7.68075L23.575 7.85107L23.7477 8.02076L23.9232 8.18974L24.1014 8.3579L24.2823 8.52515L24.4658 8.6914L24.6518 8.85656L24.8402 9.02055L25.0309 9.18326L25.2239 9.34462L25.419 9.50455L25.6162 9.66296L25.8154 9.81977L26.0164 9.9749L26.2191 10.1283L26.4235 10.2799L26.6294 10.4295L26.8368 10.5772L27.0454 10.7229L27.2553 10.8665L27.4663 11.0079L27.6782 11.1472L27.891 11.2841L28.1045 11.4187L28.3186 11.551L28.5332 11.6808L28.7481 11.8082L28.9633 11.933L29.1785 12.0553L29.3938 12.1751L29.6088 12.2922L29.8236 12.4066L30.038 12.5184L30.2518 12.6274L30.4649 12.7337L30.6772 12.8373L30.8886 12.9381L31.0988 13.0361L31.3079 13.1313L31.5156 13.2238L31.7218 13.3134L31.9264 13.4002L32.1293 13.4842L32.3303 13.5654L32.5293 13.6438L32.7261 13.7194L32.9207 13.7922L33.1129 13.8623L33.3026 13.9297L33.4896 13.9943L33.6738 14.0562L33.8552 14.1155L34.0336 14.1721L34.2088 14.2261L34.3808 14.2775L34.5494 14.3264L34.7145 14.3728L34.876 14.4168L35.0339 14.4583L35.1879 14.4975L35.338 14.5343L35.4842 14.5689L35.6262 14.6013L35.764 14.6316L35.8974 14.6598L36.0265 14.6859L36.1512 14.7101L36.2712 14.7324L36.3866 14.7528L36.4972 14.7715L36.6031 14.7885L36.7041 14.8038L36.8001 14.8176L36.8911 14.83L36.977 14.8409L37.0578 14.8506L37.1333 14.859L37.2037 14.8662L37.2687 14.8724L37.3284 14.8776L37.3827 14.8819L37.4315 14.8853L37.475 14.888L37.5129 14.8901L37.5453 14.8916L37.5722 14.8927L37.5935 14.8933L37.6092 14.8937L37.6194 14.8938L37.624 14.8939L37.6243 14.8939Z" fill="#D2AE6D"/>
</svg>
