<svg width="143" height="100" viewBox="0 0 143 100" fill="none" xmlns="http://www.w3.org/2000/svg">
<rect width="143" height="100" fill="white"/>
<path d="M39.6263 14V62.9643C38.5455 68.1543 36.7151 70.179 31.2968 69.9434V72.3071H47.1675V70.2807C46.7171 70.0563 46.2671 69.8307 45.8171 69.6063V30.0969L63.2638 45.0672V62.5139H66.4162V40.4528L39.6263 14.0001V14Z" fill="#3E4095"/>
<path d="M50.1687 36.0744C50.1547 38.6852 50.1431 41.2971 50.1307 43.9216C49.0611 43.384 47.9167 42.804 46.6915 42.1776C46.7127 39.2524 46.7339 36.33 46.7551 33.4204C47.9687 34.3744 49.1059 35.2576 50.1687 36.0744Z" fill="#D2AE6D"/>
<path d="M54.4447 39.3863C54.4419 41.6226 54.4364 43.8622 54.4335 46.1103C53.7576 45.7659 53.0464 45.4059 52.2939 45.0166C52.3027 42.5851 52.3112 40.1594 52.3179 37.7407C53.0659 38.3223 53.7732 38.8698 54.4447 39.3863Z" fill="#D2AE6D"/>
<path d="M57.8578 42.0352C57.8594 43.9712 57.861 45.9144 57.8622 47.8632C57.3586 47.6048 56.8294 47.334 56.2791 47.0505C56.2791 44.9677 56.2802 42.8877 56.2802 40.812C56.8294 41.2393 57.3558 41.6472 57.8578 42.0352Z" fill="#D2AE6D"/>
<path d="M60.4614 44.0594C60.467 45.7714 60.4709 47.4829 60.4753 49.2045C60.0845 49.0053 59.6782 48.7954 59.2562 48.5793C59.2517 46.7534 59.2489 44.9318 59.2461 43.1113C59.6682 43.443 60.0717 43.7573 60.4614 44.0594Z" fill="#D2AE6D"/>
<path d="M62.5162 45.6599C62.5218 47.1934 62.5291 48.7303 62.5347 50.2655C62.2215 50.1091 61.8998 49.9439 61.5666 49.7674C61.5594 48.1434 61.5554 46.5246 61.5498 44.9062C61.8827 45.1699 62.2046 45.4183 62.5162 45.6599Z" fill="#D2AE6D"/>
<path d="M50.1198 45.9692C50.1071 48.6124 50.0942 51.2696 50.083 53.9308C49.0022 53.7544 47.8451 53.5583 46.6102 53.3452C46.6314 50.3676 46.6543 47.41 46.6755 44.458C47.9015 45.0028 49.0486 45.5036 50.1198 45.9692Z" fill="#D2AE6D"/>
<path d="M54.4306 47.8592C54.4278 50.1267 54.4222 52.3947 54.4194 54.6736C53.7378 54.5563 53.021 54.4363 52.2646 54.3011C52.2734 51.8315 52.2818 49.3748 52.2886 46.918C53.041 47.254 53.7534 47.5631 54.4306 47.8592Z" fill="#D2AE6D"/>
<path d="M57.863 49.3768C57.8642 51.34 57.8658 53.3028 57.867 55.2756C57.359 55.1865 56.8302 55.0948 56.2754 54.9948C56.2754 52.8837 56.277 50.7785 56.2782 48.6772C56.8302 48.9212 57.3578 49.1541 57.863 49.3768Z" fill="#D2AE6D"/>
<path d="M60.479 50.5444C60.4829 52.2743 60.4874 54.0071 60.4914 55.7415C60.0994 55.6724 59.6914 55.6032 59.2682 55.5244C59.2638 53.68 59.261 51.8384 59.257 50C59.6814 50.1932 60.0865 50.3708 60.479 50.5444Z" fill="#D2AE6D"/>
<path d="M62.5399 51.4644C62.5455 53.0112 62.5522 54.5603 62.5578 56.1084C62.2446 56.056 61.9214 56.0012 61.5858 55.9391C61.5802 54.3008 61.5758 52.6651 61.5702 51.0356C61.9046 51.1836 62.2263 51.326 62.5399 51.4644Z" fill="#D2AE6D"/>
<path d="M50.0703 56.2884C50.0574 58.978 50.0447 61.6719 50.0323 64.374C48.9415 64.5799 47.7731 64.7932 46.5255 65.0147C46.5467 61.9907 46.5695 58.9808 46.5903 55.978C47.8295 56.0924 48.9879 56.1952 50.0703 56.2884Z" fill="#D2AE6D"/>
<path d="M54.4151 56.6903C54.4106 58.9847 54.4066 61.2919 54.4039 63.599C53.7178 63.7231 52.9954 63.8531 52.2334 63.9827C52.2406 61.4794 52.249 58.9791 52.2575 56.4883C53.0166 56.5591 53.7322 56.6255 54.4151 56.6903Z" fill="#D2AE6D"/>
<path d="M57.8691 57.0186C57.8703 59.0057 57.873 60.9909 57.8747 62.9876C57.3639 63.0764 56.8319 63.1725 56.2715 63.2657C56.2731 61.1277 56.2743 58.9941 56.2759 56.8633C56.8303 56.9213 57.361 56.9737 57.8691 57.0186Z" fill="#D2AE6D"/>
<path d="M60.4954 57.2789C60.501 59.0257 60.5054 60.7769 60.5093 62.5293C60.1146 62.6012 59.7054 62.6748 59.279 62.748C59.2762 60.8785 59.2734 59.0173 59.2706 57.1602C59.6954 57.2013 60.103 57.2405 60.4954 57.2789Z" fill="#D2AE6D"/>
<path d="M62.5642 57.4771C62.5698 59.0392 62.577 60.5971 62.5826 62.1603C62.2678 62.2195 61.9434 62.2775 61.609 62.3367C61.6034 60.6844 61.5962 59.0363 61.5918 57.3867C61.9262 57.4191 62.2494 57.4475 62.5642 57.4771Z" fill="#D2AE6D"/>
<path d="M102.223 14V62.9643C103.303 68.1543 105.134 70.179 110.552 69.9434V72.3071H94.6818V70.2807C95.1318 70.0563 95.5818 69.8307 96.0321 69.6063V30.0969L78.5851 45.0672V62.5139H75.4326V40.4528L102.223 14.0001V14Z" fill="#3E4095"/>
<path d="M91.6797 36.0744C91.6937 38.6852 91.7049 41.2971 91.7176 43.9216C92.7873 43.384 93.9316 42.804 95.1565 42.1776C95.1352 39.2524 95.1128 36.33 95.0916 33.4204C93.8792 34.3744 92.742 35.2576 91.6797 36.0744Z" fill="#D2AE6D"/>
<path d="M87.4033 39.3863C87.4061 41.6226 87.4121 43.8622 87.4149 46.1103C88.0905 45.7659 88.8017 45.4059 89.5541 45.0166C89.5456 42.5851 89.5369 40.1594 89.53 37.7407C88.7821 38.3223 88.0753 38.8698 87.4033 39.3863Z" fill="#D2AE6D"/>
<path d="M83.9906 42.0352C83.9895 43.9712 83.9878 45.9144 83.9862 47.8632C84.4903 47.6048 85.0194 47.334 85.5698 47.0505C85.5698 44.9677 85.5671 42.8877 85.5682 40.812C85.0194 41.2393 84.493 41.6472 83.9906 42.0352Z" fill="#D2AE6D"/>
<path d="M81.3874 44.0594C81.3818 45.7714 81.3774 47.4829 81.373 49.2045C81.7642 49.0053 82.1706 48.7954 82.5922 48.5793C82.5966 46.7534 82.5994 44.9318 82.6022 43.1113C82.1802 43.443 81.7766 43.7573 81.3874 44.0594Z" fill="#D2AE6D"/>
<path d="M79.3326 45.6599C79.3271 47.1934 79.3198 48.7303 79.3142 50.2655C79.6274 50.1091 79.9494 49.9439 80.2822 49.7674C80.2894 48.1434 80.2934 46.5246 80.299 44.9062C79.9662 45.1699 79.6446 45.4183 79.3326 45.6599Z" fill="#D2AE6D"/>
<path d="M91.7285 45.9692C91.741 48.6124 91.7538 51.2696 91.7649 53.9308C92.8461 53.7544 94.003 53.5583 95.2377 53.3452C95.2165 50.3676 95.1942 47.41 95.173 44.458C93.9481 45.0028 92.7993 45.5036 91.7285 45.9692Z" fill="#D2AE6D"/>
<path d="M87.4182 47.8592C87.421 50.1267 87.4266 52.3947 87.4294 54.6736C88.111 54.5563 88.8278 54.4363 89.5842 54.3011C89.5758 51.8315 89.5674 49.3748 89.5602 46.918C88.8082 47.254 88.0954 47.5631 87.4182 47.8592Z" fill="#D2AE6D"/>
<path d="M83.9858 49.3768C83.9843 51.34 83.9831 53.3028 83.9814 55.2756C84.4895 55.1865 85.0187 55.0948 85.573 54.9948C85.573 52.8837 85.5719 50.7785 85.5703 48.6772C85.0187 48.9212 84.4911 49.1541 83.9858 49.3768Z" fill="#D2AE6D"/>
<path d="M81.3702 50.5444C81.3658 52.2743 81.3614 54.0071 81.3574 55.7415C81.7498 55.6724 82.1574 55.6032 82.5806 55.5244C82.585 53.68 82.5878 51.8384 82.5922 50C82.1674 50.1932 81.7622 50.3708 81.3702 50.5444Z" fill="#D2AE6D"/>
<path d="M79.3094 51.4644C79.3034 53.0112 79.2965 54.5603 79.291 56.1084C79.6042 56.056 79.9274 56.0012 80.2629 55.9391C80.2685 54.3008 80.2729 52.6651 80.2785 51.0356C79.9441 51.1836 79.6226 51.326 79.3094 51.4644Z" fill="#D2AE6D"/>
<path d="M91.7783 56.2884C91.7908 58.978 91.8035 61.6719 91.8163 64.374C92.9071 64.5799 94.0755 64.7932 95.3227 65.0147C95.3015 61.9907 95.279 58.9808 95.2578 55.978C94.0191 56.0924 92.8603 56.1952 91.7783 56.2884Z" fill="#D2AE6D"/>
<path d="M87.4333 56.6903C87.439 58.9847 87.4417 61.2919 87.4446 63.599C88.1306 63.7231 88.8529 63.8531 89.6149 63.9827C89.6078 61.4794 89.5993 58.9791 89.591 56.4883C88.8334 56.5591 88.1165 56.6255 87.4333 56.6903Z" fill="#D2AE6D"/>
<path d="M83.9802 57.0186C83.9791 59.0057 83.9762 60.9909 83.9746 62.9876C84.4855 63.0764 85.0175 63.1725 85.5778 63.2657C85.5751 61.1277 85.5751 58.9941 85.5734 56.8633C85.019 56.9213 84.4882 56.9737 83.9802 57.0186Z" fill="#D2AE6D"/>
<path d="M81.3531 57.2789C81.3475 59.0257 81.3434 60.7769 81.339 62.5293C81.7343 62.6012 82.1418 62.6748 82.5694 62.748C82.5722 60.8785 82.5751 59.0173 82.5778 57.1602C82.1534 57.2013 81.7454 57.2405 81.3531 57.2789Z" fill="#D2AE6D"/>
<path d="M79.2851 57.4771C79.2778 59.0392 79.2722 60.5971 79.2666 62.1603C79.581 62.2195 79.9058 62.2775 80.2402 62.3367C80.2459 60.6844 80.253 59.0363 80.2571 57.3867C79.9227 57.4191 79.5994 57.4475 79.2851 57.4771Z" fill="#D2AE6D"/>
<path d="M34.852 82.9961L32.7608 79.076V82.5584C32.7608 82.6461 32.7808 82.7108 32.8189 82.7544C32.8596 82.7984 32.9289 82.8336 33.0277 82.8632V82.9961H31.3596V82.8632C31.46 82.8336 31.5289 82.7984 31.5684 82.7544C31.6064 82.7108 31.6264 82.6461 31.6264 82.5584V77.7552C31.6264 77.6716 31.6064 77.6084 31.5684 77.5645C31.5289 77.5192 31.46 77.484 31.3596 77.4561V77.3232H33.5468V77.4561C33.4172 77.4884 33.3508 77.566 33.3508 77.6845C33.3508 77.7396 33.372 77.8028 33.41 77.8764L34.9552 80.8072L36.5217 77.9257C36.592 77.7972 36.6261 77.7057 36.6261 77.6477C36.6261 77.5337 36.5568 77.4701 36.4184 77.4561V77.3232H38.5632V77.4561C38.4643 77.484 38.394 77.5192 38.3543 77.5645C38.3164 77.6084 38.2968 77.6716 38.2968 77.7552V82.5584C38.2968 82.6461 38.3164 82.7108 38.3543 82.7544C38.394 82.7984 38.4643 82.8336 38.5632 82.8632V82.9961H36.7908V82.8632C36.8896 82.8364 36.9576 82.8024 36.9972 82.756C37.038 82.7108 37.0576 82.6461 37.0576 82.5584V79.076L34.852 82.9961ZM44.3659 78.7653V81.2292C44.3659 81.792 44.2544 82.2044 44.0344 82.468C43.6759 82.8872 43.0027 83.0948 42.012 83.0948C41.3504 83.0948 40.8156 82.9944 40.4076 82.7912C40.114 82.6461 39.9136 82.4356 39.8052 82.1648C39.7048 81.9149 39.6556 81.6032 39.6556 81.2292V78.7653C39.6556 78.6792 39.6356 78.6145 39.5975 78.5692C39.558 78.5257 39.4892 78.4872 39.3887 78.4577V78.342H41.0383V78.4577C40.9368 78.486 40.8663 78.5213 40.8268 78.5681C40.7887 78.6145 40.7688 78.6792 40.7688 78.7653V81.0065C40.7688 81.266 40.7916 81.4648 40.838 81.6032C40.8848 81.7412 40.9636 81.8556 41.0764 81.9444C41.3036 82.1252 41.6324 82.214 42.0616 82.214C42.492 82.214 42.8208 82.1252 43.048 81.9444C43.158 81.8556 43.2356 81.7412 43.2808 81.6032C43.3244 81.4648 43.3471 81.266 43.3471 81.0065V78.7653C43.3471 78.6792 43.3288 78.6145 43.2903 78.5692C43.2539 78.5257 43.182 78.4872 43.0803 78.4577V78.342H44.6323V78.4577C44.5323 78.486 44.4632 78.5213 44.4235 78.5681C44.3855 78.6145 44.3659 78.6792 44.3659 78.7653ZM46.7392 81.0852V82.5684C46.7392 82.6544 46.7592 82.7208 46.7972 82.766C46.8367 82.8112 46.906 82.8492 47.006 82.88V82.9961H45.3579V82.88C45.4567 82.8549 45.5243 82.818 45.564 82.7717C45.6048 82.7248 45.626 82.6588 45.626 82.5712V78.7653C45.626 78.6792 45.6048 78.6145 45.5667 78.5692C45.5272 78.5257 45.4596 78.4872 45.3579 78.4577V78.342H48.4087C48.8051 78.342 49.1071 78.3616 49.3147 78.4013C49.522 78.4425 49.7083 78.514 49.872 78.6201C50.2079 78.8389 50.3743 79.1972 50.3743 79.6924C50.3743 80.0692 50.2711 80.3641 50.0652 80.576C49.8579 80.7888 49.5247 80.9412 49.0647 81.036L49.9467 82.262C50.1063 82.488 50.2359 82.6432 50.3307 82.7236C50.4264 82.8052 50.5352 82.8576 50.6563 82.88V82.9961H48.7007V82.88C48.8459 82.8408 48.9179 82.7784 48.9179 82.694C48.9179 82.6332 48.8727 82.5388 48.7839 82.416L47.8539 81.0852H46.7392ZM46.7392 80.2412H48.4171C48.6723 80.2412 48.8615 80.2132 48.9815 80.1568C49.1535 80.0832 49.24 79.9353 49.24 79.7136C49.24 79.516 49.1803 79.3792 49.0591 79.3016C48.9391 79.224 48.7247 79.186 48.4171 79.186H46.7392V80.2412ZM54.9435 81.8332H52.8015L52.5616 82.3396C52.5023 82.4612 52.4739 82.5573 52.4739 82.626C52.4739 82.7588 52.5627 82.8436 52.7407 82.88V82.9961H51.0275V82.88C51.1319 82.8632 51.2096 82.8308 51.2631 82.7844C51.314 82.7364 51.3735 82.6444 51.4423 82.5048L53.1427 79.0644C53.2063 78.9348 53.2387 78.8204 53.2387 78.7232C53.2387 78.6101 53.1611 78.5213 53.0059 78.4577V78.342H54.8135V78.4577C54.6611 78.5184 54.5851 78.6128 54.5851 78.7401C54.5851 78.8316 54.6187 78.9444 54.6895 79.076L56.4503 82.4144C56.5491 82.5964 56.6239 82.7124 56.6791 82.766C56.7342 82.8196 56.8203 82.8588 56.9331 82.88V82.9961H55.0339V82.88C55.2143 82.8492 55.3031 82.7644 55.3031 82.6276C55.3031 82.5417 55.2695 82.4356 55.1987 82.3072L54.9435 81.8332ZM54.6075 81.1796L53.8455 79.684L53.1204 81.1796H54.6075ZM57.585 82.5712V78.7653C57.585 78.6792 57.5651 78.6145 57.5271 78.5692C57.4875 78.5257 57.4199 78.4872 57.3183 78.4577V78.342H60.0502C60.6175 78.342 61.0663 78.4124 61.3922 78.5525C61.8535 78.7528 62.1839 79.0816 62.3871 79.5428C62.5266 79.8633 62.5971 80.24 62.5971 80.6676C62.5971 81.4636 62.3603 82.0672 61.8875 82.4764C61.6742 82.66 61.4219 82.7912 61.1327 82.8744C60.8431 82.9548 60.4819 82.9961 60.0502 82.9961H57.3183V82.88C57.4171 82.8549 57.4847 82.818 57.5243 82.7717C57.5651 82.7248 57.585 82.6588 57.585 82.5712ZM58.6999 82.152H59.8878C60.4339 82.152 60.8307 82.0264 61.0775 81.7768C61.3342 81.5172 61.4627 81.1473 61.4627 80.6676C61.4627 80.1892 61.3342 79.8196 61.0775 79.5601C60.949 79.43 60.791 79.334 60.6034 79.2748C60.4143 79.2157 60.1758 79.186 59.8878 79.186H58.6999V82.152Z" fill="#3E4095"/>
<path d="M70.5948 80.0241C71.2312 80.2657 71.5516 80.7128 71.5516 81.3632C71.5516 81.8812 71.3652 82.2876 70.9928 82.5812C70.8064 82.728 70.5876 82.8336 70.3392 82.8988C70.0908 82.9636 69.7848 82.9961 69.4192 82.9961H65.54V82.8632C65.6405 82.8352 65.7097 82.7984 65.7488 82.7548C65.7873 82.7108 65.8068 82.6461 65.8068 82.56V77.7608C65.8068 77.6732 65.7873 77.6084 65.7488 77.5649C65.7097 77.5208 65.6405 77.484 65.54 77.4561V77.3232H69.3797C69.7496 77.3232 70.046 77.3517 70.27 77.4064C70.496 77.4617 70.6909 77.556 70.86 77.6888C71.196 77.9513 71.3636 78.3325 71.3636 78.8289C71.3636 79.3821 71.1068 79.7816 70.5948 80.0241ZM67.0457 79.5796H69.2188C69.5492 79.5796 69.7792 79.5316 69.9088 79.4345C70.0556 79.3228 70.1292 79.1521 70.1292 78.9192C70.1292 78.6808 70.06 78.5101 69.9216 78.4101C69.7832 78.3096 69.5492 78.2576 69.2188 78.2576H67.0457V79.5796ZM67.0457 82.062H69.1468C69.5392 82.062 69.82 82.0068 69.992 81.8997C70.1884 81.7752 70.2872 81.5709 70.2872 81.2885C70.2872 81.0092 70.1884 80.8044 69.992 80.676C69.8228 80.5688 69.5421 80.5153 69.1468 80.5153H67.0457V82.062ZM77.1832 78.7657V81.2309C77.1832 81.7924 77.0716 82.2044 76.85 82.4685C76.4931 82.8872 75.82 83.096 74.8296 83.096C74.1676 83.096 73.6328 82.9944 73.2252 82.7912C72.9316 82.6461 72.7312 82.4356 72.6224 82.1648C72.5224 81.9153 72.4728 81.6032 72.4728 81.2309V78.7657C72.4728 78.6792 72.4532 78.6145 72.4152 78.5708C72.3756 78.5257 72.3064 78.4876 72.2064 78.4581V78.3421H73.856V78.4581C73.7544 78.486 73.6836 78.5213 73.644 78.5692C73.606 78.6145 73.5864 78.6792 73.5864 78.7657V81.0065C73.5864 81.266 73.6088 81.4648 73.654 81.6032C73.702 81.7416 73.7812 81.856 73.894 81.9448C74.1212 82.1252 74.45 82.2144 74.8788 82.2144C75.3092 82.2144 75.638 82.1252 75.8652 81.9448C75.9752 81.856 76.0528 81.7416 76.098 81.6032C76.142 81.4648 76.1644 81.266 76.1644 81.0065V78.7657C76.1644 78.6792 76.146 78.6145 76.108 78.5708C76.0712 78.5257 75.9992 78.4876 75.8975 78.4581V78.3421H77.45V78.4581C77.3495 78.486 77.2804 78.5213 77.2412 78.5692C77.2027 78.6145 77.1832 78.6792 77.1832 78.7657ZM79.5568 78.7657V82.5685C79.5568 82.6544 79.5764 82.7197 79.6144 82.7661C79.654 82.8112 79.7232 82.8508 79.8232 82.8804V82.9961H78.1752V82.8804C78.2739 82.8549 78.3415 82.8196 78.3812 82.7717C78.422 82.7252 78.442 82.6588 78.442 82.5729V78.7657C78.442 78.6792 78.422 78.6145 78.3839 78.5708C78.3444 78.5257 78.2768 78.4876 78.1752 78.4581V78.3421H79.8232V78.4581C79.7232 78.486 79.654 78.5213 79.6144 78.5692C79.5764 78.6145 79.5568 78.6792 79.5568 78.7657ZM82.0204 82.152H84.6256C84.7144 82.152 84.7807 82.1324 84.8244 82.0944C84.8695 82.0561 84.9076 81.9844 84.9371 81.8828H85.0488V83.2629H84.9371C84.9092 83.1624 84.8735 83.0948 84.8256 83.0541C84.7807 83.0156 84.7144 82.9961 84.6256 82.9961H80.6404V82.8804C80.7375 82.8549 80.8055 82.8196 80.8464 82.7717C80.8872 82.7252 80.9072 82.6588 80.9072 82.5729V78.7657C80.9072 78.6792 80.8872 78.6145 80.8479 78.5708C80.8084 78.5257 80.7408 78.4876 80.6404 78.4581V78.3421H82.2872V78.4581C82.1884 78.486 82.1179 78.5213 82.0784 78.5692C82.0404 78.6145 82.0204 78.6792 82.0204 78.7657V82.152ZM85.7939 82.5729V78.7657C85.7939 78.6792 85.7739 78.6145 85.7359 78.5708C85.6964 78.5257 85.6271 78.4876 85.5271 78.4581V78.3421H88.2575C88.8263 78.3421 89.2735 78.4128 89.5995 78.5525C90.0611 78.7528 90.3911 79.0816 90.5943 79.5428C90.7355 79.8633 90.8059 80.24 90.8059 80.6677C90.8059 81.4636 90.5691 82.0676 90.0947 82.4768C89.8815 82.66 89.6307 82.7912 89.3399 82.8748C89.0507 82.9552 88.6907 82.9961 88.2575 82.9961H85.5271V82.8804C85.6244 82.8549 85.6935 82.8196 85.7332 82.7717C85.7739 82.7252 85.7939 82.6588 85.7939 82.5729ZM86.9071 82.152H88.0967C88.6427 82.152 89.0379 82.028 89.2848 81.778C89.5415 81.5185 89.6715 81.1477 89.6715 80.6677C89.6715 80.1908 89.5415 79.8196 89.2848 79.5601C89.1579 79.4301 88.9983 79.334 88.8107 79.2748C88.6231 79.2157 88.3847 79.186 88.0967 79.186H86.9071V82.152ZM92.8971 78.7657V82.5685C92.8971 82.6544 92.9171 82.7197 92.9551 82.7661C92.9947 82.8112 93.0639 82.8508 93.1639 82.8804V82.9961H91.5171V82.8804C91.6147 82.8549 91.6823 82.8196 91.7219 82.7717C91.7627 82.7252 91.7839 82.6588 91.7839 82.5729V78.7657C91.7839 78.6792 91.7627 78.6145 91.7247 78.5708C91.6851 78.5257 91.6175 78.4876 91.5171 78.4581V78.3421H93.1639V78.4581C93.0639 78.486 92.9947 78.5213 92.9551 78.5692C92.9171 78.6145 92.8971 78.6792 92.8971 78.7657ZM95.2623 79.9296V82.57C95.2623 82.6544 95.2819 82.7208 95.3231 82.7672C95.3623 82.8152 95.4303 82.852 95.5291 82.8804V82.9961H93.9811V82.8804C94.0782 82.8549 94.1459 82.8196 94.1871 82.7717C94.2279 82.7252 94.2475 82.6588 94.2475 82.5729V78.7657C94.2475 78.6792 94.2279 78.6145 94.1899 78.5708C94.1487 78.5257 94.0811 78.4876 93.9811 78.4581V78.3421H95.7687V78.4581C95.6458 78.4876 95.5855 78.5425 95.5855 78.6201C95.5855 78.6864 95.6307 78.764 95.7178 78.8528L98.2115 81.3296V78.7657C98.2115 78.6792 98.1919 78.6145 98.1535 78.5692C98.1127 78.5213 98.0451 78.486 97.9447 78.4581V78.3421H99.4927V78.4581C99.3927 78.486 99.3235 78.5213 99.2839 78.5692C99.2459 78.6145 99.2259 78.6792 99.2259 78.7657V82.5685C99.2259 82.6544 99.2459 82.7197 99.2839 82.7661C99.3235 82.8112 99.3927 82.8508 99.4927 82.8804V82.9961H97.8247V82.8804C97.9474 82.8564 98.0083 82.804 98.0083 82.7264C98.0083 82.6885 97.9915 82.6488 97.9586 82.608C97.9251 82.5672 97.8475 82.4852 97.7286 82.3652L95.2623 79.9296ZM104.508 81.1997H103.448C103.359 81.1997 103.293 81.2209 103.248 81.2588C103.201 81.2985 103.164 81.366 103.136 81.4665H103.025V80.236H103.136C103.164 80.3333 103.201 80.3996 103.248 80.4404C103.293 80.4785 103.359 80.4984 103.448 80.4984H105.665V80.6184C105.566 80.6465 105.498 80.6877 105.459 80.7397C105.418 80.7921 105.398 80.8668 105.398 80.964V81.9448C105.398 82.032 105.418 82.0985 105.459 82.1453C105.498 82.1917 105.566 82.2285 105.665 82.2564V82.3524C104.766 82.848 103.871 83.096 102.979 83.096C102.209 83.096 101.585 82.914 101.11 82.55C100.851 82.3524 100.644 82.1056 100.485 81.812C100.3 81.462 100.207 81.0897 100.207 80.6944C100.207 80.1441 100.376 79.6589 100.713 79.2313C101.24 78.5721 102.019 78.242 103.05 78.242C103.502 78.242 104.017 78.342 104.597 78.5413C104.827 78.6188 104.959 78.6584 104.999 78.6584C105.045 78.6584 105.102 78.6357 105.165 78.592L105.264 78.6457L104.712 79.8168L104.612 79.7672V79.7421C104.612 79.6404 104.509 79.5345 104.305 79.4272C103.925 79.224 103.519 79.124 103.083 79.124C102.581 79.124 102.171 79.2608 101.848 79.5345C101.511 79.8224 101.341 80.2104 101.341 80.6989C101.341 81.1544 101.495 81.5212 101.803 81.7953C102.119 82.0744 102.562 82.2144 103.132 82.2144C103.675 82.2144 104.134 82.1141 104.508 81.9108V81.1997ZM110.914 78.7613L110.351 79.8464L110.252 79.7928C110.252 79.7024 110.223 79.6304 110.165 79.5768C110.007 79.4356 109.774 79.3189 109.467 79.2284C109.159 79.1365 108.847 79.0916 108.532 79.0916C108.261 79.0916 108.024 79.128 107.817 79.2028C107.518 79.3101 107.367 79.4669 107.367 79.6728C107.367 79.8084 107.439 79.9045 107.583 79.9608C107.727 80.0172 108.006 80.0624 108.418 80.096L109.075 80.1457C109.65 80.1908 110.085 80.3009 110.385 80.4785C110.551 80.5772 110.689 80.7112 110.796 80.8765C110.933 81.0853 111 81.318 111 81.5792C111 82.0532 110.787 82.426 110.36 82.7012C109.953 82.9636 109.401 83.096 108.706 83.096C108.003 83.096 107.327 82.9464 106.674 82.6504C106.629 82.632 106.591 82.622 106.561 82.622C106.506 82.622 106.454 82.6544 106.407 82.7208L106.303 82.68L106.781 81.5412L106.884 81.582V81.616C106.884 81.688 106.912 81.75 106.969 81.7992C107.106 81.9209 107.345 82.0264 107.687 82.1168C108.029 82.2056 108.364 82.2508 108.697 82.2508C108.991 82.2508 109.253 82.2129 109.486 82.1352C109.774 82.042 109.919 81.8885 109.919 81.678C109.919 81.51 109.819 81.3916 109.62 81.3268C109.486 81.2816 109.246 81.2448 108.901 81.2136L108.247 81.1588C107.896 81.1321 107.628 81.0968 107.441 81.0516C107.257 81.0076 107.094 80.9416 106.956 80.8568C106.778 80.7468 106.64 80.5945 106.54 80.4024C106.441 80.2133 106.39 80.0033 106.39 79.776C106.39 79.2664 106.609 78.8769 107.048 78.6089C107.446 78.3649 107.939 78.242 108.528 78.242C108.847 78.242 109.143 78.2772 109.42 78.3493C109.695 78.4196 110.024 78.5425 110.408 78.7204C110.521 78.7724 110.598 78.7992 110.643 78.7992C110.689 78.7992 110.745 78.7684 110.814 78.7076L110.914 78.7613Z" fill="#3E4095"/>
<path d="M31 75.5309H110.849V74.5205H31V75.5309Z" fill="#3E4095"/>
<path d="M31 86.0656H110.849V85.0552H31V86.0656Z" fill="#3E4095"/>
</svg>
