<svg width="76" height="76" viewBox="0 0 76 76" fill="none" xmlns="http://www.w3.org/2000/svg">
<path d="M38 17.8125C33.0881 17.8125 29.0938 21.8068 29.0938 26.7188C29.0938 31.6541 33.0809 35.625 38 35.625C43.0072 35.625 46.9062 31.5793 46.9062 26.7188C46.9062 21.8068 42.9119 17.8125 38 17.8125Z" fill="#61C967"/>
<path d="M38 0C23.2664 0 11.2812 11.9851 11.2812 26.7188C11.2812 31.6959 12.6598 36.5535 15.2669 40.7675L36.4781 74.9465C37.3576 76.3669 39.4312 76.3453 40.2833 74.9161L60.9529 40.4065C63.4141 36.2817 64.7188 31.548 64.7188 26.7188C64.7188 11.9851 52.7336 0 38 0ZM38 40.1078C30.5269 40.1078 24.6109 34.025 24.6109 26.7188C24.6109 19.3519 30.6332 13.3297 38 13.3297C45.3668 13.3297 51.3891 19.3519 51.3891 26.7188C51.3891 33.9606 45.5526 40.1078 38 40.1078Z" fill="#61C967"/>
</svg>
