<svg width="83" height="108" viewBox="0 0 83 108" fill="none" xmlns="http://www.w3.org/2000/svg">
<g filter="url(#filter0_d_426_1261)">
<path d="M35.5 6C17.5794 6 3 20.5794 3 38.4998C3 60.7396 32.0843 93.389 33.3226 94.768C34.4857 96.0634 36.5164 96.0612 37.6774 94.768C38.9157 93.389 68 60.7396 68 38.4998C67.9996 20.5794 53.4204 6 35.5 6ZM35.5 54.8514C26.4837 54.8514 19.1486 47.5161 19.1486 38.4998C19.1486 29.4835 26.4839 22.1484 35.5 22.1484C44.5161 22.1484 51.8512 29.4837 51.8512 38.5C51.8512 47.5163 44.5161 54.8514 35.5 54.8514Z" fill="white"/>
</g>
<circle cx="34.3041" cy="39.391" r="20.8695" fill="white"/>
<path d="M19.2799 17.8182V43.1432C18.7209 45.8275 17.7742 46.8747 14.9717 46.7529V47.9754H23.1803V46.9273C22.9474 46.8113 22.7146 46.6946 22.4818 46.5785V26.1437L31.5055 33.8866V42.9102H33.136V31.4999L19.2799 17.8182V17.8182Z" fill="#3E4095"/>
<path d="M24.7328 29.2358C24.7256 30.5861 24.7196 31.937 24.7132 33.2944C24.16 33.0164 23.5681 32.7164 22.9344 32.3924C22.9454 30.8794 22.9563 29.368 22.9673 27.8631C23.5949 28.3565 24.1831 28.8133 24.7328 29.2358Z" fill="#D2AE6D"/>
<path d="M26.9441 30.9485C26.9427 32.1052 26.9398 33.2635 26.9383 34.4262C26.5887 34.2481 26.2209 34.0619 25.8317 33.8606C25.8363 32.603 25.8406 31.3484 25.8441 30.0974C26.231 30.3982 26.5968 30.6814 26.9441 30.9485Z" fill="#D2AE6D"/>
<path d="M28.7099 32.319C28.7108 33.3203 28.7116 34.3254 28.7122 35.3334C28.4517 35.1997 28.178 35.0596 27.8934 34.913C27.8934 33.8357 27.894 32.7599 27.894 31.6864C28.178 31.9074 28.4503 32.1183 28.7099 32.319Z" fill="#D2AE6D"/>
<path d="M30.0561 33.3651C30.059 34.2506 30.0611 35.1358 30.0633 36.0263C29.8612 35.9232 29.651 35.8146 29.4328 35.7029C29.4305 34.7585 29.429 33.8164 29.4276 32.8748C29.6459 33.0463 29.8546 33.2089 30.0561 33.3651Z" fill="#D2AE6D"/>
<path d="M31.1187 34.1933C31.1216 34.9865 31.1253 35.7813 31.1282 36.5754C30.9662 36.4945 30.7999 36.409 30.6275 36.3178C30.6238 35.4778 30.6217 34.6406 30.6188 33.8035C30.791 33.9399 30.9575 34.0683 31.1187 34.1933Z" fill="#D2AE6D"/>
<path d="M24.7076 34.3536C24.701 35.7207 24.6944 37.095 24.6886 38.4714C24.1296 38.3802 23.5311 38.2788 22.8924 38.1685C22.9034 36.6284 22.9152 35.0988 22.9261 33.5719C23.5602 33.8537 24.1536 34.1127 24.7076 34.3536Z" fill="#D2AE6D"/>
<path d="M26.9365 35.3304C26.935 36.5032 26.9321 37.6763 26.9307 38.8549C26.5781 38.7943 26.2074 38.7322 25.8162 38.6623C25.8208 37.385 25.8251 36.1143 25.8286 34.8436C26.2178 35.0174 26.5862 35.1773 26.9365 35.3304Z" fill="#D2AE6D"/>
<path d="M28.7124 36.1154C28.7131 37.1308 28.7139 38.1459 28.7145 39.1663C28.4518 39.1202 28.1783 39.0728 27.8913 39.0211C27.8913 37.9292 27.8921 36.8403 27.8928 35.7535C28.1783 35.8797 28.4511 36.0001 28.7124 36.1154Z" fill="#D2AE6D"/>
<path d="M30.0654 36.7199C30.0675 37.6146 30.0698 38.5109 30.0719 39.4079C29.8691 39.3722 29.6581 39.3364 29.4392 39.2956C29.4369 38.3416 29.4355 37.3892 29.4334 36.4383C29.6529 36.5382 29.8625 36.6301 30.0654 36.7199Z" fill="#D2AE6D"/>
<path d="M31.131 37.195C31.1339 37.9951 31.1374 38.7963 31.1403 39.597C30.9783 39.5699 30.8112 39.5416 30.6376 39.5094C30.6347 38.6621 30.6324 37.8161 30.6295 36.9733C30.8025 37.0498 30.9688 37.1235 31.131 37.195Z" fill="#D2AE6D"/>
<path d="M24.6817 39.6906C24.675 41.0817 24.6684 42.4751 24.662 43.8726C24.0978 43.9791 23.4935 44.0894 22.8483 44.204C22.8592 42.64 22.871 41.0832 22.8818 39.5301C23.5227 39.5893 24.1218 39.6424 24.6817 39.6906Z" fill="#D2AE6D"/>
<path d="M26.929 39.8982C26.9267 41.0849 26.9246 42.2782 26.9232 43.4715C26.5684 43.5357 26.1947 43.6029 25.8006 43.6699C25.8043 42.3752 25.8087 41.082 25.813 39.7937C26.2057 39.8304 26.5758 39.8647 26.929 39.8982Z" fill="#D2AE6D"/>
<path d="M28.7148 40.0675C28.7154 41.0952 28.7168 42.122 28.7177 43.1548C28.4535 43.2007 28.1784 43.2504 27.8885 43.2986C27.8893 42.1928 27.89 41.0892 27.8908 39.9872C28.1775 40.0172 28.452 40.0443 28.7148 40.0675Z" fill="#D2AE6D"/>
<path d="M30.0736 40.2029C30.0765 41.1064 30.0787 42.0121 30.0808 42.9185C29.8766 42.9557 29.665 42.9938 29.4444 43.0316C29.443 42.0646 29.4415 41.102 29.4401 40.1415C29.6598 40.1628 29.8706 40.183 30.0736 40.2029Z" fill="#D2AE6D"/>
<path d="M31.1436 40.3053C31.1465 41.1131 31.1502 41.9189 31.1531 42.7274C30.9903 42.7581 30.8226 42.788 30.6496 42.8187C30.6467 41.9641 30.643 41.1117 30.6407 40.2585C30.8136 40.2752 30.9808 40.2899 31.1436 40.3053Z" fill="#D2AE6D"/>
<path d="M51.6558 17.8181V43.1432C52.2148 45.8275 53.1614 46.8747 55.9639 46.7529V47.9754H47.7556V46.9273C47.9883 46.8112 48.2211 46.6945 48.454 46.5785V26.1437L39.4301 33.8865V42.9102H37.7996V31.4999L51.6558 17.8182V17.8181Z" fill="#3E4095"/>
<path d="M46.2029 29.2358C46.2101 30.5861 46.2159 31.937 46.2225 33.2944C46.7758 33.0164 47.3676 32.7164 48.0011 32.3924C47.9901 30.8794 47.9785 29.368 47.9676 27.8631C47.3405 28.3565 46.7523 28.8133 46.2029 29.2358Z" fill="#D2AE6D"/>
<path d="M43.991 30.9485C43.9925 32.1052 43.9956 33.2635 43.997 34.4262C44.3464 34.2481 44.7143 34.0619 45.1034 33.8606C45.0991 32.603 45.0945 31.3484 45.091 30.0974C44.7042 30.3982 44.3386 30.6814 43.991 30.9485Z" fill="#D2AE6D"/>
<path d="M42.2257 32.319C42.2251 33.3203 42.2243 34.3254 42.2234 35.3334C42.4842 35.1997 42.7578 35.0596 43.0425 34.913C43.0425 33.8357 43.0411 32.7599 43.0417 31.6864C42.7578 31.9074 42.4856 32.1183 42.2257 32.319Z" fill="#D2AE6D"/>
<path d="M40.8793 33.3651C40.8764 34.2506 40.8742 35.1358 40.8719 36.0263C41.0742 35.9232 41.2844 35.8146 41.5024 35.7029C41.5047 34.7585 41.5062 33.8164 41.5076 32.8748C41.2894 33.0463 41.0806 33.2089 40.8793 33.3651Z" fill="#D2AE6D"/>
<path d="M39.8169 34.1933C39.8141 34.9865 39.8103 35.7813 39.8074 36.5754C39.9694 36.4945 40.1359 36.409 40.3081 36.3178C40.3118 35.4778 40.3139 34.6405 40.3168 33.8035C40.1446 33.9399 39.9783 34.0683 39.8169 34.1933Z" fill="#D2AE6D"/>
<path d="M46.2283 34.3536C46.2348 35.7207 46.2414 37.095 46.2472 38.4714C46.8064 38.3802 47.4047 38.2788 48.0433 38.1685C48.0324 36.6284 48.0208 35.0988 48.0099 33.5719C47.3763 33.8537 46.7822 34.1127 46.2283 34.3536Z" fill="#D2AE6D"/>
<path d="M43.9988 35.3304C44.0003 36.5032 44.0032 37.6763 44.0046 38.8549C44.3571 38.7943 44.7279 38.7322 45.1191 38.6623C45.1148 37.385 45.1104 36.1143 45.1067 34.8436C44.7178 35.0174 44.3491 35.1773 43.9988 35.3304Z" fill="#D2AE6D"/>
<path d="M42.2228 36.1156C42.222 37.131 42.2214 38.1462 42.2205 39.1665C42.4833 39.1204 42.757 39.073 43.0437 39.0213C43.0437 37.9294 43.0431 36.8405 43.0423 35.7538C42.757 35.8799 42.4841 36.0004 42.2228 36.1156Z" fill="#D2AE6D"/>
<path d="M40.8707 36.7199C40.8684 37.6146 40.8661 38.5109 40.8641 39.4079C41.067 39.3722 41.2779 39.3364 41.4967 39.2956C41.499 38.3416 41.5004 37.3892 41.5027 36.4383C41.283 36.5382 41.0734 36.6301 40.8707 36.7199Z" fill="#D2AE6D"/>
<path d="M39.8044 37.195C39.8012 37.9951 39.7977 38.7963 39.7949 39.597C39.9569 39.5699 40.124 39.5416 40.2975 39.5094C40.3004 38.6621 40.3027 37.8161 40.3056 36.9733C40.1327 37.0498 39.9663 37.1235 39.8044 37.195Z" fill="#D2AE6D"/>
<path d="M46.2538 39.6906C46.2602 41.0817 46.2668 42.4751 46.2735 43.8726C46.8376 43.9791 47.4419 44.0894 48.087 44.204C48.076 42.64 48.0644 41.0832 48.0534 39.5301C47.4128 39.5893 46.8134 39.6424 46.2538 39.6906Z" fill="#D2AE6D"/>
<path d="M44.0067 39.8982C44.0096 41.0849 44.011 42.2782 44.0125 43.4715C44.3673 43.5357 44.7409 43.6029 45.135 43.6699C45.1313 42.3752 45.1269 41.082 45.1226 39.7937C44.7308 39.8304 44.36 39.8647 44.0067 39.8982Z" fill="#D2AE6D"/>
<path d="M42.2205 40.0675C42.2199 41.0952 42.2184 42.122 42.2176 43.1548C42.4818 43.2007 42.757 43.2504 43.0468 43.2986C43.0454 42.1928 43.0454 41.0892 43.0445 39.9872C42.7578 40.0172 42.4833 40.0443 42.2205 40.0675Z" fill="#D2AE6D"/>
<path d="M40.8615 40.2029C40.8586 41.1064 40.8565 42.0121 40.8542 42.9185C41.0587 42.9557 41.2695 42.9938 41.4907 43.0316C41.4921 42.0646 41.4936 41.102 41.495 40.1415C41.2755 40.1628 41.0644 40.183 40.8615 40.2029Z" fill="#D2AE6D"/>
<path d="M39.7918 40.3053C39.788 41.1131 39.7851 41.9189 39.7822 42.7274C39.9448 42.7581 40.1128 42.788 40.2858 42.8187C40.2887 41.9641 40.2924 41.1117 40.2945 40.2585C40.1216 40.2752 39.9543 40.2899 39.7918 40.3053Z" fill="#D2AE6D"/>
<path d="M16.81 53.5042L15.7285 51.4767V53.2778C15.7285 53.3232 15.7388 53.3567 15.7585 53.3792C15.7796 53.402 15.8154 53.4202 15.8665 53.4355V53.5042H15.0037V53.4355C15.0557 53.4202 15.0913 53.402 15.1117 53.3792C15.1314 53.3567 15.1417 53.3232 15.1417 53.2778V50.7936C15.1417 50.7503 15.1314 50.7176 15.1117 50.6949C15.0913 50.6715 15.0557 50.6533 15.0037 50.6389V50.5702H16.135V50.6389C16.0679 50.6556 16.0336 50.6957 16.0336 50.757C16.0336 50.7855 16.0446 50.8182 16.0642 50.8563L16.8634 52.3721L17.6736 50.8817C17.71 50.8153 17.7276 50.768 17.7276 50.7379C17.7276 50.679 17.6918 50.6461 17.6202 50.6389V50.5702H18.7295V50.6389C18.6784 50.6533 18.642 50.6715 18.6215 50.6949C18.6019 50.7176 18.5918 50.7503 18.5918 50.7936V53.2778C18.5918 53.3232 18.6019 53.3567 18.6215 53.3792C18.642 53.402 18.6784 53.4202 18.7295 53.4355V53.5042H17.8128V53.4355C17.8639 53.4216 17.8991 53.4041 17.9195 53.38C17.9407 53.3567 17.9508 53.3232 17.9508 53.2778V51.4767L16.81 53.5042ZM21.7308 51.316V52.5904C21.7308 52.8815 21.6731 53.0948 21.5593 53.2311C21.3739 53.4479 21.0257 53.5553 20.5133 53.5553C20.1711 53.5553 19.8945 53.5034 19.6834 53.3983C19.5316 53.3232 19.428 53.2144 19.3719 53.0743C19.32 52.945 19.2945 52.7838 19.2945 52.5904V51.316C19.2945 51.2715 19.2842 51.238 19.2645 51.2146C19.244 51.1921 19.2084 51.1722 19.1565 51.1569V51.0971H20.0097V51.1569C19.9572 51.1716 19.9207 51.1898 19.9003 51.214C19.8806 51.238 19.8703 51.2715 19.8703 51.316V52.4752C19.8703 52.6094 19.8821 52.7123 19.9061 52.7838C19.9303 52.8552 19.971 52.9144 20.0294 52.9603C20.1469 53.0538 20.317 53.0997 20.5389 53.0997C20.7615 53.0997 20.9316 53.0538 21.0491 52.9603C21.106 52.9144 21.1461 52.8552 21.1695 52.7838C21.1921 52.7123 21.2038 52.6094 21.2038 52.4752V51.316C21.2038 51.2715 21.1943 51.238 21.1745 51.2146C21.1556 51.1921 21.1184 51.1722 21.0658 51.1569V51.0971H21.8686V51.1569C21.8168 51.1716 21.7811 51.1898 21.7606 51.214C21.7409 51.238 21.7308 51.2715 21.7308 51.316ZM22.9582 52.5159V53.283C22.9582 53.3275 22.9686 53.3618 22.9883 53.3853C23.0087 53.4086 23.0445 53.4283 23.0962 53.4442V53.5042H22.2438V53.4442C22.2949 53.4312 22.3299 53.4121 22.3504 53.3882C22.3715 53.3639 22.3825 53.3298 22.3825 53.2845V51.316C22.3825 51.2715 22.3715 51.238 22.3518 51.2146C22.3314 51.1921 22.2964 51.1722 22.2438 51.1569V51.0971H23.8218C24.0268 51.0971 24.183 51.1072 24.2903 51.1277C24.3975 51.149 24.4939 51.1861 24.5786 51.2409C24.7523 51.3541 24.8384 51.5394 24.8384 51.7955C24.8384 51.9904 24.785 52.1429 24.6785 52.2525C24.5713 52.3626 24.399 52.4414 24.161 52.4905L24.6172 53.1246C24.6998 53.2415 24.7668 53.3217 24.8159 53.3633C24.8653 53.4055 24.9216 53.4326 24.9842 53.4442V53.5042H23.9728V53.4442C24.0479 53.4239 24.0851 53.3916 24.0851 53.348C24.0851 53.3165 24.0617 53.2677 24.0158 53.2042L23.5348 52.5159H22.9582ZM22.9582 52.0794H23.8261C23.9581 52.0794 24.0559 52.0649 24.118 52.0357C24.207 51.9976 24.2517 51.9211 24.2517 51.8065C24.2517 51.7043 24.2208 51.6335 24.1581 51.5934C24.0961 51.5533 23.9852 51.5336 23.8261 51.5336H22.9582V52.0794ZM27.2016 52.9028H26.0938L25.9697 53.1647C25.939 53.2276 25.9243 53.2773 25.9243 53.3128C25.9243 53.3815 25.9702 53.4254 26.0623 53.4442V53.5042H25.1762V53.4442C25.2302 53.4355 25.2704 53.4187 25.2981 53.3947C25.3244 53.3699 25.3552 53.3223 25.3908 53.2502L26.2702 51.4707C26.3031 51.4037 26.3199 51.3445 26.3199 51.2943C26.3199 51.2357 26.2798 51.1898 26.1995 51.1569V51.0971H27.1344V51.1569C27.0556 51.1883 27.0163 51.2372 27.0163 51.303C27.0163 51.3503 27.0337 51.4086 27.0703 51.4767L27.981 53.2034C28.0321 53.2975 28.0708 53.3575 28.0993 53.3853C28.1278 53.4129 28.1723 53.4332 28.2307 53.4442V53.5042H27.2484V53.4442C27.3417 53.4283 27.3877 53.3844 27.3877 53.3136C27.3877 53.2692 27.3702 53.2144 27.3337 53.1479L27.2016 52.9028ZM27.0279 52.5647L26.6338 51.7912L26.2587 52.5647H27.0279ZM28.5679 53.2845V51.316C28.5679 51.2715 28.5575 51.238 28.5379 51.2146C28.5174 51.1921 28.4825 51.1722 28.4299 51.1569V51.0971H29.8429C30.1363 51.0971 30.3684 51.1335 30.537 51.2059C30.7756 51.3096 30.9465 51.4796 31.0516 51.7182C31.1237 51.8839 31.1602 52.0787 31.1602 52.2999C31.1602 52.7116 31.0377 53.0238 30.7932 53.2354C30.6829 53.3304 30.5524 53.3983 30.4028 53.4413C30.253 53.4829 30.0662 53.5042 29.8429 53.5042H28.4299V53.4442C28.481 53.4312 28.516 53.4121 28.5364 53.3882C28.5575 53.3639 28.5679 53.3298 28.5679 53.2845ZM29.1445 53.0677H29.7589C30.0413 53.0677 30.2466 53.0027 30.3742 52.8736C30.507 52.7394 30.5734 52.548 30.5734 52.2999C30.5734 52.0525 30.507 51.8613 30.3742 51.7271C30.3078 51.6598 30.2261 51.6102 30.129 51.5795C30.0312 51.549 29.9079 51.5336 29.7589 51.5336H29.1445V53.0677Z" fill="#3E4095"/>
<path d="M35.2968 51.9671C35.626 52.092 35.7917 52.3233 35.7917 52.6597C35.7917 52.9276 35.6953 53.1378 35.5027 53.2897C35.4063 53.3656 35.2931 53.4202 35.1646 53.4539C35.0361 53.4874 34.8779 53.5042 34.6888 53.5042H32.6824V53.4355C32.7344 53.421 32.7702 53.402 32.7904 53.3795C32.8103 53.3567 32.8204 53.3232 32.8204 53.2787V50.7965C32.8204 50.7512 32.8103 50.7176 32.7904 50.6951C32.7702 50.6724 32.7344 50.6533 32.6824 50.6389V50.5702H34.6683C34.8597 50.5702 35.013 50.5849 35.1288 50.6132C35.2457 50.6418 35.3465 50.6905 35.434 50.7593C35.6078 50.895 35.6945 51.0921 35.6945 51.3489C35.6945 51.635 35.5617 51.8417 35.2968 51.9671ZM33.4612 51.7372H34.5851C34.756 51.7372 34.875 51.7124 34.942 51.6621C35.0179 51.6044 35.056 51.516 35.056 51.3956C35.056 51.2723 35.0202 51.184 34.9487 51.1323C34.877 51.0803 34.756 51.0534 34.5851 51.0534H33.4612V51.7372ZM33.4612 53.0211H34.5479C34.7509 53.0211 34.8961 52.9926 34.985 52.9371C35.0867 52.8728 35.1377 52.7671 35.1377 52.621C35.1377 52.4766 35.0867 52.3707 34.985 52.3043C34.8976 52.2488 34.7523 52.2211 34.5479 52.2211H33.4612V53.0211ZM38.7044 51.3162V52.5912C38.7044 52.8817 38.6467 53.0948 38.5321 53.2313C38.3475 53.4479 37.9994 53.5559 37.4871 53.5559C37.1447 53.5559 36.8681 53.5034 36.6573 53.3983C36.5054 53.3232 36.4018 53.2144 36.3456 53.0743C36.2938 52.9452 36.2681 52.7838 36.2681 52.5912V51.3162C36.2681 51.2715 36.258 51.238 36.2383 51.2154C36.2179 51.1921 36.1821 51.1724 36.1304 51.1571V51.0971H36.9835V51.1571C36.931 51.1716 36.8944 51.1898 36.8739 51.2146C36.8542 51.238 36.8441 51.2715 36.8441 51.3162V52.4752C36.8441 52.6094 36.8557 52.7123 36.8791 52.7838C36.9039 52.8554 36.9449 52.9146 37.0032 52.9605C37.1207 53.0538 37.2908 53.0999 37.5126 53.0999C37.7352 53.0999 37.9052 53.0538 38.0228 52.9605C38.0797 52.9146 38.1198 52.8554 38.1432 52.7838C38.1659 52.7123 38.1775 52.6094 38.1775 52.4752V51.3162C38.1775 51.2715 38.168 51.238 38.1483 51.2154C38.1293 51.1921 38.0921 51.1724 38.0395 51.1571V51.0971H38.8424V51.1571C38.7905 51.1716 38.7547 51.1898 38.7344 51.2146C38.7145 51.238 38.7044 51.2715 38.7044 51.3162ZM39.9321 51.3162V53.2831C39.9321 53.3275 39.9422 53.3613 39.9619 53.3853C39.9824 53.4086 40.0182 53.4291 40.0699 53.4444V53.5042H39.2175V53.4444C39.2686 53.4312 39.3035 53.4129 39.3241 53.3882C39.3452 53.3641 39.3555 53.3298 39.3555 53.2853V51.3162C39.3555 51.2715 39.3452 51.238 39.3255 51.2154C39.305 51.1921 39.2701 51.1724 39.2175 51.1571V51.0971H40.0699V51.1571C40.0182 51.1716 39.9824 51.1898 39.9619 51.2146C39.9422 51.238 39.9321 51.2715 39.9321 51.3162ZM41.2063 53.0677H42.5537C42.5997 53.0677 42.634 53.0575 42.6566 53.0379C42.6799 53.018 42.6996 52.981 42.7149 52.9284H42.7726V53.6422H42.7149C42.7004 53.5903 42.682 53.5553 42.6572 53.5342C42.634 53.5143 42.5997 53.5042 42.5537 53.5042H40.4925V53.4444C40.5428 53.4312 40.578 53.4129 40.5991 53.3882C40.6202 53.3641 40.6305 53.3298 40.6305 53.2853V51.3162C40.6305 51.2715 40.6202 51.238 40.5999 51.2154C40.5794 51.1921 40.5445 51.1724 40.4925 51.1571V51.0971H41.3443V51.1571C41.2932 51.1716 41.2568 51.1898 41.2363 51.2146C41.2166 51.238 41.2063 51.2715 41.2063 51.3162V53.0677ZM43.158 53.2853V51.3162C43.158 51.2715 43.1477 51.238 43.128 51.2154C43.1076 51.1921 43.0718 51.1724 43.02 51.1571V51.0971H44.4322C44.7264 51.0971 44.9577 51.1337 45.1263 51.2059C45.3651 51.3096 45.5358 51.4796 45.6409 51.7182C45.7139 51.8839 45.7503 52.0787 45.7503 52.2999C45.7503 52.7116 45.6278 53.024 45.3824 53.2357C45.2722 53.3304 45.1425 53.3983 44.9921 53.4415C44.8425 53.4831 44.6563 53.5042 44.4322 53.5042H43.02V53.4444C43.0703 53.4312 43.1061 53.4129 43.1266 53.3882C43.1477 53.3641 43.158 53.3298 43.158 53.2853ZM43.7338 53.0677H44.3491C44.6314 53.0677 44.8359 53.0035 44.9635 52.8742C45.0963 52.74 45.1635 52.5482 45.1635 52.2999C45.1635 52.0533 45.0963 51.8613 44.9635 51.7271C44.8979 51.6598 44.8154 51.6102 44.7183 51.5795C44.6213 51.549 44.498 51.5336 44.3491 51.5336H43.7338V53.0677ZM46.8319 51.3162V53.2831C46.8319 53.3275 46.8422 53.3613 46.8619 53.3853C46.8824 53.4086 46.9182 53.4291 46.9699 53.4444V53.5042H46.1181V53.4444C46.1686 53.4312 46.2036 53.4129 46.2241 53.3882C46.2452 53.3641 46.2561 53.3298 46.2561 53.2853V51.3162C46.2561 51.2715 46.2452 51.238 46.2255 51.2154C46.205 51.1921 46.1701 51.1724 46.1181 51.1571V51.0971H46.9699V51.1571C46.9182 51.1716 46.8824 51.1898 46.8619 51.2146C46.8422 51.238 46.8319 51.2715 46.8319 51.3162ZM48.0552 51.9182V53.2839C48.0552 53.3275 48.0653 53.3618 48.0866 53.3858C48.1069 53.4107 48.1421 53.4297 48.1932 53.4444V53.5042H47.3925V53.4444C47.4428 53.4312 47.4778 53.4129 47.4991 53.3882C47.5202 53.3641 47.5303 53.3298 47.5303 53.2853V51.3162C47.5303 51.2715 47.5202 51.238 47.5005 51.2154C47.4792 51.1921 47.4443 51.1724 47.3925 51.1571V51.0971H48.3171V51.1571C48.2536 51.1724 48.2224 51.2008 48.2224 51.2409C48.2224 51.2752 48.2457 51.3154 48.2908 51.3613L49.5806 52.6423V51.3162C49.5806 51.2715 49.5704 51.238 49.5506 51.2146C49.5295 51.1898 49.4945 51.1716 49.4426 51.1571V51.0971H50.2432V51.1571C50.1915 51.1716 50.1557 51.1898 50.1352 51.2146C50.1156 51.238 50.1052 51.2715 50.1052 51.3162V53.2831C50.1052 53.3275 50.1156 53.3613 50.1352 53.3853C50.1557 53.4086 50.1915 53.4291 50.2432 53.4444V53.5042H49.3805V53.4444C49.444 53.432 49.4755 53.4049 49.4755 53.3647C49.4755 53.3451 49.4668 53.3246 49.4498 53.3035C49.4324 53.2824 49.3923 53.24 49.3308 53.1779L48.0552 51.9182ZM52.8371 52.5751H52.2891C52.2429 52.5751 52.2086 52.5861 52.1854 52.6057C52.1612 52.6262 52.1422 52.6612 52.1277 52.7131H52.07V52.0767H52.1277C52.1422 52.127 52.1612 52.1613 52.1854 52.1824C52.2086 52.2021 52.2429 52.2124 52.2891 52.2124H53.4356V52.2745C53.3845 52.289 53.3493 52.3103 53.3291 52.3372C53.3078 52.3643 53.2977 52.4029 53.2977 52.4532V52.9605C53.2977 53.0056 53.3078 53.04 53.3291 53.0642C53.3493 53.0882 53.3845 53.1072 53.4356 53.1217V53.1713C52.9706 53.4277 52.508 53.5559 52.0466 53.5559C51.6481 53.5559 51.3256 53.4618 51.0796 53.2735C50.946 53.1713 50.8388 53.0437 50.7563 52.8918C50.6607 52.7108 50.6125 52.5182 50.6125 52.3138C50.6125 52.0291 50.7002 51.7782 50.8746 51.557C51.1469 51.2161 51.5497 51.0454 52.0832 51.0454C52.3168 51.0454 52.5831 51.0971 52.883 51.2001C53.002 51.2403 53.0707 51.2607 53.0912 51.2607C53.1152 51.2607 53.1443 51.249 53.1772 51.2264L53.2283 51.2541L52.9428 51.8599L52.8911 51.8342V51.8212C52.8911 51.7686 52.8377 51.7138 52.732 51.6584C52.5357 51.5533 52.3255 51.5015 52.1 51.5015C51.8408 51.5015 51.6285 51.5723 51.4613 51.7138C51.2869 51.8628 51.1994 52.0634 51.1994 52.3161C51.1994 52.5517 51.2789 52.7414 51.438 52.8832C51.6014 53.0275 51.8306 53.0999 52.1255 53.0999C52.4066 53.0999 52.6437 53.048 52.8371 52.9429V52.5751ZM56.1506 51.3139L55.8593 51.8752L55.8082 51.8475C55.8082 51.8007 55.7929 51.7635 55.7631 51.7357C55.6814 51.6627 55.5609 51.6023 55.4018 51.5555C55.2425 51.508 55.0814 51.4848 54.9186 51.4848C54.7785 51.4848 54.6559 51.5036 54.5487 51.5423C54.3939 51.5978 54.3157 51.6789 54.3157 51.7854C54.3157 51.8555 54.353 51.9052 54.4274 51.9344C54.5019 51.9635 54.6463 51.9869 54.8594 52.0043L55.1995 52.03C55.4966 52.0533 55.7215 52.1102 55.8769 52.2021C55.963 52.2532 56.0339 52.3225 56.0894 52.4079C56.1601 52.5159 56.1951 52.6363 56.1951 52.7714C56.1951 53.0166 56.085 53.2094 55.8638 53.3517C55.6536 53.4874 55.3682 53.5559 55.0084 53.5559C54.6449 53.5559 54.2952 53.4785 53.9574 53.3255C53.934 53.3159 53.9144 53.3107 53.8991 53.3107C53.8705 53.3107 53.8436 53.3275 53.8194 53.3618L53.7654 53.3408L54.0129 52.7517L54.0662 52.7728V52.7905C54.0662 52.8277 54.0807 52.8597 54.1099 52.8852C54.1808 52.9481 54.3048 53.0027 54.4814 53.0495C54.6581 53.0954 54.8317 53.1188 55.004 53.1188C55.1559 53.1188 55.2916 53.0991 55.412 53.059C55.5609 53.0108 55.6361 52.9313 55.6361 52.8225C55.6361 52.7356 55.5841 52.6744 55.4813 52.6409C55.412 52.6175 55.2879 52.5985 55.1091 52.5823L54.7713 52.554C54.5894 52.5401 54.4508 52.5219 54.3544 52.4985C54.2589 52.4758 54.1749 52.4416 54.1035 52.3978C54.0114 52.3409 53.9398 52.2621 53.8881 52.1627C53.837 52.0649 53.8107 51.9563 53.8107 51.8388C53.8107 51.5752 53.9239 51.3737 54.1509 51.2351C54.3567 51.1089 54.612 51.0454 54.9165 51.0454C55.0814 51.0454 55.2347 51.0636 55.3776 51.1008C55.52 51.1372 55.6901 51.2008 55.8887 51.2928C55.947 51.3197 55.9872 51.3335 56.0105 51.3335C56.0339 51.3335 56.0631 51.3176 56.0988 51.2862L56.1506 51.3139Z" fill="#3E4095"/>
<path d="M14.8182 49.6428H56.1171V49.1202H14.8182V49.6428Z" fill="#3E4095"/>
<path d="M14.8182 55.0916H56.1171V54.569H14.8182V55.0916Z" fill="#3E4095"/>
<defs>
<filter id="filter0_d_426_1261" x="0" y="0" width="83" height="107.739" filterUnits="userSpaceOnUse" color-interpolation-filters="sRGB">
<feFlood flood-opacity="0" result="BackgroundImageFix"/>
<feColorMatrix in="SourceAlpha" type="matrix" values="0 0 0 0 0 0 0 0 0 0 0 0 0 0 0 0 0 0 127 0" result="hardAlpha"/>
<feOffset dx="6" dy="3"/>
<feGaussianBlur stdDeviation="4.5"/>
<feComposite in2="hardAlpha" operator="out"/>
<feColorMatrix type="matrix" values="0 0 0 0 0 0 0 0 0 0 0 0 0 0 0 0 0 0 0.25 0"/>
<feBlend mode="normal" in2="BackgroundImageFix" result="effect1_dropShadow_426_1261"/>
<feBlend mode="normal" in="SourceGraphic" in2="effect1_dropShadow_426_1261" result="shape"/>
</filter>
</defs>
</svg>
