<svg width="300" height="19" viewBox="0 0 300 19" fill="none" xmlns="http://www.w3.org/2000/svg">
<path fill-rule="evenodd" clip-rule="evenodd" d="M160 9.49996L159.999 9.49997L159.994 9.50004L159.987 9.50022L159.977 9.50057L159.964 9.50115L159.949 9.50201L159.93 9.50321L159.909 9.50481L159.885 9.50686L159.858 9.50942L159.829 9.51253L159.797 9.51626L159.762 9.52066L159.724 9.52578L159.684 9.53167L159.641 9.53838L159.595 9.54597L159.547 9.55448L159.496 9.56396L159.443 9.57446L159.388 9.58602L159.329 9.5987L159.269 9.61253L159.206 9.62756L159.141 9.64383L159.074 9.66137L159.004 9.68024L158.933 9.70047L158.859 9.72209L158.783 9.74514L158.705 9.76966L158.625 9.79567L158.544 9.82321L158.46 9.8523L158.375 9.88298L158.288 9.91527L158.199 9.94919L158.109 9.98477L158.017 10.022L157.923 10.061L157.828 10.1016L157.732 10.144L157.635 10.1882L157.536 10.2341L157.436 10.2818L157.335 10.3312L157.233 10.3824L157.13 10.4354L157.026 10.4902L156.921 10.5468L156.815 10.6052L156.709 10.6654L156.602 10.7273L156.494 10.7911L156.386 10.8566L156.278 10.9238L156.169 10.9928L156.06 11.0636L155.95 11.136L155.841 11.2102L155.731 11.286L155.622 11.3635L155.512 11.4426L155.402 11.5233L155.293 11.6056L155.184 11.6895L155.075 11.7749L154.966 11.8618L154.858 11.9501L154.75 12.0399L154.643 12.1311L154.537 12.2236L154.431 12.3174L154.326 12.4124L154.221 12.5087L154.118 12.6062L154.015 12.7048L153.913 12.8045L153.812 12.9052L153.713 13.0069L153.614 13.1096L153.516 13.2131L153.42 13.3174L153.325 13.4225L153.231 13.5284L153.138 13.6348L153.047 13.7419L152.957 13.8495L152.869 13.9576L152.782 14.0662L152.696 14.175L152.612 14.2842L152.53 14.3936L152.449 14.5032L152.37 14.6128L152.292 14.7225L152.216 14.8322L152.142 14.9417L152.069 15.0511L151.998 15.1603L151.929 15.2692L151.862 15.3777L151.796 15.4858L151.732 15.5933L151.67 15.7003L151.61 15.8067L151.551 15.9124L151.495 16.0173L151.44 16.1213L151.387 16.2245L151.335 16.3267L151.286 16.4278L151.238 16.5279L151.192 16.6267L151.148 16.7244L151.105 16.8207L151.064 16.9157L151.025 17.0092L150.988 17.1013L150.952 17.1918L150.918 17.2807L150.886 17.3679L150.855 17.4534L150.825 17.5371L150.798 17.619L150.772 17.6989L150.747 17.777L150.724 17.853L150.702 17.9269L150.682 17.9988L150.663 18.0685L150.645 18.136L150.629 18.2012L150.614 18.2642L150.6 18.3248L150.587 18.383L150.575 18.4388L150.565 18.4922L150.555 18.543L150.547 18.5913L150.539 18.6371L150.532 18.6802L150.526 18.7208L150.521 18.7586L150.517 18.7938L150.513 18.8263L150.51 18.8561L150.507 18.8831L150.505 18.9073L150.503 18.9288L150.502 18.9475L150.501 18.9633L150.501 18.9763L150.5 18.9865L150.5 18.9938L150.5 18.9983L150.5 19L150.5 18.9988L150.5 18.9948L150.5 18.9879L150.499 18.9781L150.499 18.9656L150.498 18.9502L150.497 18.932L150.495 18.9109L150.493 18.8871L150.491 18.8606L150.488 18.8312L150.484 18.7992L150.48 18.7644L150.475 18.727L150.469 18.6869L150.462 18.6441L150.455 18.5988L150.446 18.5509L150.437 18.5004L150.426 18.4475L150.415 18.3921L150.402 18.3342L150.389 18.274L150.374 18.2114L150.357 18.1465L150.34 18.0794L150.321 18.01L150.301 17.9385L150.28 17.8649L150.257 17.7892L150.232 17.7115L150.206 17.6318L150.179 17.5503L150.15 17.4668L150.119 17.3816L150.087 17.2947L150.054 17.206L150.018 17.1158L149.981 17.024L149.942 16.9307L149.902 16.8359L149.859 16.7398L149.815 16.6424L149.77 16.5437L149.722 16.4438L149.673 16.3429L149.622 16.2408L149.569 16.1378L149.514 16.0339L149.458 15.9291L149.399 15.8236L149.339 15.7173L149.278 15.6104L149.214 15.5029L149.149 15.3949L149.082 15.2865L149.013 15.1777L148.942 15.0685L148.87 14.9592L148.796 14.8496L148.72 14.74L148.643 14.6303L148.564 14.5206L148.483 14.411L148.401 14.3016L148.317 14.1924L148.232 14.0835L148.145 13.9749L148.057 13.8667L147.967 13.759L147.876 13.6519L147.784 13.5453L147.69 13.4393L147.595 13.3341L147.499 13.2296L147.402 13.126L147.303 13.0232L147.203 12.9213L147.103 12.8205L147.001 12.7206L146.899 12.6218L146.795 12.5242L146.691 12.4277L146.586 12.3324L146.48 12.2384L146.374 12.1457L146.267 12.0543L146.159 11.9643L146.051 11.8758L145.942 11.7886L145.834 11.703L145.724 11.6189L145.615 11.5363L145.506 11.4554L145.396 11.376L145.286 11.2982L145.177 11.2221L145.067 11.1477L144.958 11.075L144.848 11.004L144.739 10.9347L144.631 10.8672L144.523 10.8014L144.415 10.7374L144.308 10.6751L144.202 10.6147L144.096 10.556L143.991 10.4991L143.887 10.444L143.784 10.3907L143.681 10.3392L143.58 10.2895L143.48 10.2416L143.381 10.1954L143.283 10.151L143.187 10.1083L143.092 10.0673L142.998 10.0281L142.906 9.99059L142.815 9.95475L142.726 9.92056L142.639 9.88802L142.553 9.85708L142.469 9.82774L142.387 9.79995L142.307 9.7737L142.229 9.74895L142.153 9.72567L142.079 9.70382L142.007 9.68337L141.937 9.66429L141.869 9.64653L141.804 9.63006L141.741 9.61484L141.68 9.60082L141.622 9.58797L141.566 9.57623L141.512 9.56556L141.461 9.55592L141.412 9.54726L141.366 9.53953L141.323 9.53268L141.282 9.52666L141.244 9.52142L141.209 9.51692L141.176 9.51308L141.146 9.50987L141.119 9.50723L141.094 9.50511L141.073 9.50344L141.054 9.50218L141.038 9.50127L141.025 9.50065L141.014 9.50026L141.007 9.50006L141.002 9.49998L141 9.49996L141.001 9.49996L141.005 9.4999L141.011 9.49975L141.021 9.49943L141.033 9.49889L141.048 9.49807L141.066 9.49693L141.087 9.4954L141.111 9.49342L141.137 9.49095L141.166 9.48793L141.198 9.4843L141.233 9.48001L141.27 9.47502L141.31 9.46925L141.352 9.46267L141.397 9.45523L141.445 9.44687L141.495 9.43755L141.548 9.42721L141.603 9.41582L141.661 9.40332L141.721 9.38968L141.783 9.37485L141.848 9.35878L141.915 9.34143L141.984 9.32278L142.056 9.30277L142.129 9.28137L142.205 9.25855L142.282 9.23427L142.362 9.2085L142.443 9.18121L142.526 9.15236L142.611 9.12194L142.698 9.08991L142.787 9.05625L142.877 9.02094L142.969 8.98395L143.062 8.94527L143.156 8.90487L143.252 8.86275L143.35 8.81889L143.448 8.77327L143.548 8.72588L143.649 8.67673L143.751 8.62578L143.854 8.57306L143.958 8.51854L144.062 8.46224L144.168 8.40414L144.274 8.34425L144.381 8.28258L144.488 8.21913L144.596 8.15391L144.705 8.08694L144.814 8.01821L144.923 7.94775L145.032 7.87557L145.142 7.80169L145.251 7.72612L145.361 7.6489L145.471 7.57004L145.58 7.48956L145.69 7.40749L145.799 7.32387L145.908 7.23872L146.016 7.15207L146.125 7.06395L146.232 6.97441L146.34 6.88348L146.446 6.79119L146.552 6.69759L146.657 6.60272L146.762 6.50661L146.866 6.40933L146.969 6.3109L147.071 6.21138L147.171 6.11082L147.271 6.00927L147.37 5.90678L147.468 5.8034L147.565 5.69918L147.66 5.59419L147.754 5.48847L147.847 5.38209L147.938 5.2751L148.028 5.16756L148.117 5.05953L148.204 4.95107L148.29 4.84225L148.374 4.73313L148.457 4.62377L148.538 4.51423L148.618 4.40458L148.696 4.29489L148.772 4.18522L148.846 4.07563L148.919 3.9662L148.99 3.85699L149.06 3.74806L149.127 3.63949L149.193 3.53134L149.258 3.42368L149.32 3.31658L149.381 3.2101L149.439 3.10432L149.496 2.99929L149.552 2.8951L149.605 2.7918L149.657 2.68946L149.707 2.58815L149.755 2.48793L149.801 2.38887L149.846 2.29104L149.888 2.19449L149.929 2.0993L149.969 2.00553L150.006 1.91323L150.042 1.82247L150.077 1.73331L150.109 1.64582L150.14 1.56004L150.17 1.47603L150.198 1.39387L150.224 1.31359L150.249 1.23525L150.272 1.15891L150.294 1.08462L150.315 1.01243L150.334 0.942384L150.352 0.874539L150.369 0.808936L150.384 0.745622L150.398 0.68464L150.411 0.626032L150.423 0.569838L150.434 0.516097L150.443 0.464847L150.452 0.416123L150.46 0.369959L150.467 0.326387L150.473 0.285436L150.478 0.247137L150.483 0.211514L150.487 0.178594L150.49 0.148398L150.493 0.120949L150.495 0.0962651L150.496 0.0743635L150.498 0.0552596L150.499 0.0389669L150.499 0.0254967L150.5 0.0148585L150.5 0.00705966L150.5 0.00210567L150.5 0L150.5 0.000744116L150.5 0.0043375L150.5 0.0107776L150.5 0.02006L150.501 0.0321782L150.502 0.0471236L150.503 0.0648858L150.504 0.0854525L150.506 0.108809L150.509 0.13494L150.512 0.163825L150.515 0.195447L150.52 0.229781L150.525 0.266805L150.53 0.306492L150.537 0.348815L150.544 0.393745L150.552 0.44125L150.562 0.491297L150.572 0.543852L150.583 0.598879L150.596 0.656338L150.609 0.716191L150.624 0.778397L150.64 0.842911L150.657 0.909691L150.676 0.97869L150.696 1.04986L150.717 1.12315L150.74 1.19852L150.764 1.27591L150.789 1.35527L150.817 1.43654L150.845 1.51968L150.876 1.60461L150.907 1.6913L150.941 1.77967L150.976 1.86967L151.013 1.96124L151.052 2.05432L151.092 2.14884L151.134 2.24475L151.177 2.34197L151.223 2.44045L151.27 2.54012L151.319 2.64092L151.37 2.74278L151.423 2.84563L151.477 2.9494L151.533 3.05404L151.591 3.15947L151.651 3.26562L151.712 3.37243L151.776 3.47983L151.841 3.58776L151.908 3.69614L151.976 3.8049L152.047 3.91398L152.119 4.02332L152.192 4.13284L152.268 4.24248L152.345 4.35217L152.424 4.46185L152.504 4.57145L152.586 4.6809L152.669 4.79015L152.754 4.89912L152.841 5.00776L152.929 5.116L153.018 5.22378L153.109 5.33104L153.201 5.43772L153.295 5.54376L153.39 5.64911L153.486 5.75371L153.583 5.85749L153.681 5.96041L153.781 6.06242L153.881 6.16346L153.983 6.26348L154.085 6.36244L154.188 6.46027L154.292 6.55695L154.397 6.65242L154.503 6.74663L154.609 6.83955L154.716 6.93114L154.824 7.02135L154.932 7.11015L155.04 7.1975L155.149 7.28337L155.258 7.36773L155.367 7.45054L155.477 7.53178L155.587 7.61142L155.696 7.68943L155.806 7.76579L155.916 7.84048L156.025 7.91348L156.134 7.98476L156.243 8.05432L156.352 8.12213L156.46 8.18819L156.568 8.25249L156.675 8.31501L156.781 8.37575L156.887 8.4347L156.992 8.49186L157.097 8.54723L157.2 8.60082L157.302 8.65261L157.404 8.70262L157.504 8.75085L157.603 8.79731L157.701 8.84201L157.798 8.88496L157.893 8.92618L157.987 8.96568L158.079 9.00347L158.17 9.03958L158.26 9.07403L158.347 9.10684L158.433 9.13802L158.517 9.16762L158.6 9.19565L158.68 9.22215L158.759 9.24713L158.835 9.27065L158.909 9.29272L158.982 9.31339L159.052 9.33269L159.12 9.35065L159.186 9.36732L159.249 9.38274L159.311 9.39695L159.369 9.40999L159.426 9.4219L159.48 9.43274L159.531 9.44254L159.58 9.45135L159.626 9.45923L159.67 9.46621L159.711 9.47236L159.75 9.47772L159.786 9.48234L159.819 9.48628L159.849 9.48958L159.877 9.49231L159.902 9.49451L159.924 9.49625L159.943 9.49757L159.96 9.49854L159.973 9.4992L159.984 9.49962L159.992 9.49984L159.998 9.49994L160 9.49996L160 9.49996Z" fill="#D2AE6D"/>
<rect x="150" y="9" width="150" height="1" fill="#D2AE6D"/>
<rect y="9" width="150" height="1" fill="#D2AE6D"/>
</svg>
