<svg width="24" height="25" viewBox="0 0 24 25" fill="none" xmlns="http://www.w3.org/2000/svg">
<path d="M23.9489 19.3704C23.8811 19.1573 23.4492 18.8435 22.6535 18.4295C22.438 18.2991 22.1309 18.1217 21.7335 17.8968C21.3357 17.6719 20.9747 17.4646 20.651 17.2752C20.3267 17.0858 20.0228 16.9023 19.7389 16.725C19.6936 16.6895 19.5515 16.5861 19.3129 16.4141C19.074 16.2426 18.8726 16.1153 18.7075 16.0323C18.5427 15.9497 18.3807 15.9082 18.2216 15.9082C17.9944 15.9082 17.7105 16.077 17.3697 16.4141C17.0289 16.7517 16.7163 17.1183 16.4323 17.5152C16.1483 17.9119 15.8471 18.2786 15.5292 18.616C15.2109 18.9535 14.9493 19.1221 14.745 19.1221C14.6424 19.1221 14.5145 19.0923 14.3613 19.0335C14.2081 18.9744 14.0915 18.9237 14.0115 18.8828C13.9322 18.8411 13.7962 18.7585 13.6028 18.6338C13.4092 18.5095 13.3015 18.4414 13.2788 18.4295C11.7219 17.5297 10.3868 16.4999 9.27296 15.3402C8.15951 14.1799 7.17067 12.7893 6.30703 11.1675C6.29569 11.1438 6.23019 11.0313 6.11096 10.8302C5.99155 10.6289 5.91196 10.487 5.8722 10.4039C5.83244 10.3212 5.78413 10.1998 5.72741 10.04C5.67069 9.88025 5.64221 9.74716 5.64221 9.64051C5.64221 9.42757 5.80419 9.15518 6.1281 8.82372C6.45194 8.49243 6.80432 8.17863 7.18488 7.88292C7.56574 7.58721 7.91776 7.26158 8.24172 6.90661C8.56557 6.55145 8.72749 6.25567 8.72749 6.01898C8.72749 5.85337 8.68772 5.68453 8.60826 5.51295C8.52873 5.341 8.40657 5.13117 8.24172 4.88247C8.07682 4.6339 7.97741 4.48608 7.94326 4.43851C7.77298 4.1428 7.59703 3.82619 7.41499 3.48881C7.23294 3.1515 7.03424 2.7755 6.81823 2.36126C6.6024 1.94721 6.43206 1.62749 6.30691 1.40262C5.9094 0.574193 5.6083 0.124192 5.40369 0.0534205C5.3241 0.0179105 5.20469 0 5.04576 0C4.73875 0 4.33825 0.0590797 3.84395 0.177612C3.34947 0.295958 2.96037 0.420088 2.67623 0.550499C2.10802 0.798945 1.50577 1.52096 0.86931 2.7163C0.28975 3.82874 0 4.9298 0 6.01867C0 6.33801 0.0198819 6.64871 0.0596456 6.95083C0.0994094 7.25263 0.170459 7.59299 0.272853 7.97185C0.375069 8.35058 0.457522 8.63192 0.519854 8.81513C0.582246 8.99847 0.698732 9.32689 0.86925 9.80052C1.03953 10.274 1.14192 10.5639 1.17602 10.6704C1.57371 11.8305 2.04533 12.8661 2.59073 13.7776C3.48811 15.2927 4.71272 16.8584 6.26387 18.4742C7.81507 20.0899 9.31797 21.3654 10.7726 22.3005C11.6476 22.8685 12.6422 23.3597 13.7558 23.7743C13.8581 23.8096 14.1364 23.916 14.5908 24.094C15.0454 24.2715 15.3609 24.3928 15.5369 24.4579C15.713 24.5231 15.9831 24.609 16.3464 24.7157C16.7105 24.8223 17.037 24.8963 17.3267 24.9381C17.6167 24.9789 17.915 25 18.2217 25C19.267 25 20.3241 24.698 21.3923 24.0944C22.5398 23.4317 23.2328 22.8043 23.4714 22.212C23.5969 21.9163 23.7158 21.5109 23.8294 20.9959C23.9434 20.4811 24 20.064 24 19.7443C24.0004 19.578 23.9832 19.454 23.9489 19.3704Z" fill="white"/>
</svg>
