<svg width="52" height="52" viewBox="0 0 52 52" fill="none" xmlns="http://www.w3.org/2000/svg">
<path d="M23.232 15.9532L24.1706 15.0147C26.7109 12.4743 30.8272 12.4743 33.3676 15.0147L43.1498 24.7969C46.2949 27.9421 46.2949 33.0402 43.1498 36.1853L42.6708 36.6644C39.5256 39.8095 34.4275 39.8095 31.2823 36.6644L23.6677 29.0497" stroke="#61C967" stroke-width="2" stroke-linecap="round" stroke-linejoin="round"/>
<path d="M11.9151 31.4476C8.71364 29.848 6.49188 26.5728 6.49188 22.7492C6.49188 17.3628 10.8595 12.9951 16.2459 12.9951C21.6324 12.9951 26 17.3628 26 22.7492C26 26.5706 23.7804 29.8458 20.5811 31.4455V31.4411L20.5789 41.1822C20.5767 41.7544 20.3492 42.3028 19.9438 42.706L17.7719 44.8779C16.9266 45.7211 15.561 45.7189 14.7178 44.8757L12.5437 42.6973C12.1384 42.292 11.9108 41.7414 11.9108 41.1692L11.9151 31.4433" stroke="#61C967" stroke-width="2" stroke-linecap="round" stroke-linejoin="round"/>
<path d="M16.246 22.2071V12.453C16.246 9.16047 18.9142 6.49219 22.2068 6.49219V6.49219C25.4993 6.49219 28.1676 9.16047 28.1676 12.453V13.1401" stroke="#61C967" stroke-width="2" stroke-linecap="round" stroke-linejoin="round"/>
<path d="M16.2438 22.2069C15.9447 22.2069 15.7019 22.4497 15.7062 22.7488C15.7062 23.0479 15.949 23.2907 16.2481 23.2907C16.5472 23.2907 16.79 23.0479 16.79 22.7488C16.7878 22.4497 16.5451 22.2069 16.2438 22.2069" stroke="#61C967" stroke-width="2" stroke-linecap="round" stroke-linejoin="round"/>
</svg>
