<svg width="292" height="252" viewBox="0 0 292 252" fill="none" xmlns="http://www.w3.org/2000/svg">
<path d="M268.347 10C268.347 4.47715 263.87 0 258.347 0H10C4.47714 0 0 4.47715 0 10V241.5C0 247.023 4.47714 251.5 10 251.5H258.347C263.87 251.5 268.347 247.023 268.347 241.5L268.346 86.9187C268.346 86.7384 268.342 86.5685 268.336 86.3883C268.243 83.592 267.959 59.3135 286.371 66.5058C302.229 72.7001 280.446 52.0149 271.698 44.0207C269.58 42.0851 268.346 39.3564 268.346 36.4871L268.347 22.8837V10Z" fill="white"/>
</svg>
